<svg xmlns="http://www.w3.org/2000/svg" viewBox="0 0 601.03 573.06"><defs><style>.cls-1{isolation:isolate;}.cls-2{fill:#c7d1db;}.cls-3{fill:#fdcf23;}.cls-4{fill:#1f3fad;}.cls-5{fill:#fd7706;}.cls-6{mix-blend-mode:multiply;}.cls-7{fill:#fff;}.cls-8{fill:#a7acb4;}.cls-9{fill:#f5cf4f;}</style></defs><g class="cls-1"><g id="Layer_2" data-name="Layer 2"><g id="CD_Box" data-name="CD Box"><rect x="7.5" y="108.94" width="563.75" height="433.29"/><path d="M571.75,542.73H7V108.44H571.75ZM8,541.73H570.75V109.44H8Z"/><rect x="7.5" y="41.23" width="563.75" height="70.45"/><path d="M571.75,112.18H7V40.73H571.75ZM8,111.18H570.75V41.73H8Z"/><rect x="7.5" y="542.39" width="563.75" height="30.18"/><path d="M571.75,573.06H7V541.89H571.75ZM8,572.06H570.75V542.89H8Z"/><path d="M392.51,16.85,384,9.42a8.09,8.09,0,0,0-5.32-1.92H191.58a8.28,8.28,0,0,0-5.45,2l-8.43,7.39a20.72,20.72,0,0,1-13.62,4.91H7.5v20H571.25v-20H406.15A20.73,20.73,0,0,1,392.51,16.85Z"/><path d="M571.75,42.23H7v-21H164.08a20.3,20.3,0,0,0,13.29-4.79l8.43-7.39A8.85,8.85,0,0,1,191.58,7H378.71a8.69,8.69,0,0,1,5.65,2l8.48,7.44a20.39,20.39,0,0,0,13.31,4.79h165.6ZM8,41.23H570.75v-19H406.15a21.39,21.39,0,0,1-14-5L383.7,9.8a7.59,7.59,0,0,0-5-1.8H191.58a7.85,7.85,0,0,0-5.12,1.84L178,17.24a21.37,21.37,0,0,1-13.95,5H8Z"/><circle cx="270.49" cy="24.45" r="3.27"/><circle cx="285.74" cy="24.45" r="3.27"/><circle cx="300.99" cy="24.45" r="3.27"/><rect class="cls-2" x="0.5" y="101.94" width="563.75" height="433.29"/><path d="M564.75,535.73H0V101.44H564.75ZM1,534.73H563.75V102.44H1Z"/><rect class="cls-3" x="0.5" y="34.23" width="563.75" height="70.45"/><path d="M564.75,105.18H0V33.73H564.75ZM1,104.18H563.75V34.73H1Z"/><rect class="cls-4" x="0.5" y="535.39" width="563.75" height="30.18"/><path d="M564.75,566.06H0V534.89H564.75ZM1,565.06H563.75V535.89H1Z"/><path class="cls-5" d="M385.51,9.85,377,2.42A8.09,8.09,0,0,0,371.71.5H184.58a8.28,8.28,0,0,0-5.45,2L170.7,9.86a20.72,20.72,0,0,1-13.62,4.91H.5v20H564.25v-20H399.15A20.73,20.73,0,0,1,385.51,9.85Z"/><path d="M564.75,35.23H0v-21H157.08a20.3,20.3,0,0,0,13.29-4.79l8.43-7.39A8.85,8.85,0,0,1,184.58,0H371.71a8.69,8.69,0,0,1,5.65,2l8.48,7.44a20.39,20.39,0,0,0,13.31,4.79h165.6ZM1,34.23H563.75v-19H399.15a21.39,21.39,0,0,1-14-5L376.7,2.8a7.59,7.59,0,0,0-5-1.8H184.58a7.85,7.85,0,0,0-5.12,1.84L171,10.24a21.37,21.37,0,0,1-13.95,5H1Z"/><circle cx="263.49" cy="17.45" r="3.27"/><circle cx="278.74" cy="17.45" r="3.27"/><circle cx="293.99" cy="17.45" r="3.27"/></g><g id="Decor"><path d="M51.62,78.7a9.59,9.59,0,1,1,9.59-9.59A9.6,9.6,0,0,1,51.62,78.7Zm0-18.18a8.59,8.59,0,1,0,8.59,8.59A8.6,8.6,0,0,0,51.62,60.52Z"/><rect x="51.12" y="46.97" width="1" height="44.27"/><rect x="29.49" y="68.61" width="44.27" height="1"/><path d="M203.63,91.45H98.74V50H203.63Zm-103.89-1H202.63V51H99.74Z"/><path d="M133,73.55h7.25v2.39H129.56V74.39c0-5.74,7.79-5,7.79-7.65,0-.88-.59-1.6-2.18-1.6-1.43,0-2.49.54-2.48,1.86h-3c0-2.79,1.83-4.34,5.33-4.34s5.32,1.49,5.32,3.94C140.34,71.27,133.6,70.12,133,73.55Z"/><path d="M141.26,69.47c0-4.58,2.34-6.81,6.15-6.81s6.15,2.23,6.15,6.81-2.36,6.81-6.15,6.81S141.26,74.05,141.26,69.47Zm9.28,0c0-3-1.27-4.21-3.13-4.21s-3.13,1.22-3.13,4.21,1.25,4.21,3.13,4.21S150.54,72.46,150.54,69.47Z"/><path d="M157.91,73.55h7.26v2.39H154.49V74.39c0-5.74,7.79-5,7.79-7.65,0-.88-.59-1.6-2.18-1.6-1.43,0-2.49.54-2.48,1.86h-3c0-2.79,1.83-4.34,5.33-4.34s5.32,1.49,5.32,3.94C165.27,71.27,158.53,70.12,157.91,73.55Z"/><path d="M175.6,73.55v2.39h-9.1V73.55h3.36V66a4.46,4.46,0,0,1-3.12.94V64.38A4.47,4.47,0,0,0,169.86,63h3.08V73.55Z"/><g id="DFYOGy" class="cls-6"><path d="M434.57,68.93a3.24,3.24,0,0,1-.18-.59c-.06-.45-.55-.91.1-1.34a2.27,2.27,0,0,1,1.36-.53c2.69,0,5.38,0,8.07,0a1.68,1.68,0,0,0,1.38-.57c.82-.89,1.68-1.73,2.51-2.57l25.55,25.55-4.3,2.9-.53-1.69-1.78.19-.51-1.71-1.79.19L463.94,87c-.46,0-.9.09-1.33.17s-.51,0-.59-.37-.24-.86-.38-1.32l-1.78.19L459.34,84l-.92.08c-.88.09-.87.09-1.13-.78-.08-.28-.17-.55-.26-.84l-1.76.21-.54-1.73-1.77.2-.52-1.72-1.78.19-.52-1.72-1.77.2-.53-1.72a5.57,5.57,0,0,0-1.13.13c-.58.18-.76-.08-.86-.58s-.2-.7-.31-1.08l-1.75.2c-.13-.46-.28-.92-.4-1.39-.08-.29-.22-.41-.54-.34s-.88.13-1.36.2l-.55-1.71-1.78.17-.51-1.7a9.32,9.32,0,0,0-1.21.14c-.42.1-.65,0-.74-.43a9.65,9.65,0,0,0-.36-1.24Z"/><path d="M462.83,63.38c.88.88,1.81,1.8,2.71,2.74a1.18,1.18,0,0,0,.92.37c2.83,0,5.66,0,8.49,0,.67,0,1.05.44,1.52.77.06,0,.08.22.06.31-.12.45-.27.89-.4,1.35l-1.77-.21-.54,1.73a9.59,9.59,0,0,1-1.35-.16c-.4-.1-.52.09-.6.41s-.23.81-.36,1.26c-.47-.06-.9-.1-1.31-.18s-.54,0-.6.39a11.21,11.21,0,0,1-.36,1.34c-.45-.07-.87-.1-1.28-.19s-.56.06-.65.42-.24.82-.37,1.28l-1.79-.24-.51,1.76-1.76-.19-.21.45-6.59-6.69Z"/><path d="M447.13,61.81c-1,1-2,2-3,2.91a.75.75,0,0,1-.48.12c-3,0-5.93,0-8.89,0a1,1,0,0,1-.66-.34c-1.36-1.75-2.7-3.52-4-5.29-.68-.9-.61-1.54.41-2,1.26-.62,2.62-1.05,3.94-1.56a5,5,0,0,1,.73-.2c.9-.16,1.52-.56,1.45-1.61a.69.69,0,0,1,.05-.28c.35-1.23.84-1.36,1.74-.46l8.23,8.23C446.78,61.43,446.92,61.59,447.13,61.81Zm-15.91-2.73c.6.7,1.24,1.36,1.78,2.09a1.71,1.71,0,0,0,2.15.64c1.21-.42,2.41-.88,3.6-1.35.8-.31,1.59-.64,2.36-1,.61-.29.67-.69.22-1.2-.21-.24-.43-.45-.66-.67a1.74,1.74,0,0,0-2-.38c-1.7.67-3.44,1.24-5.12,2A2,2,0,0,1,431.22,59.08Zm5.28,4.31c-.35-.25-.58-.51-.75-.48s-.35.33-.52.51c.19.17.36.44.55.46S436.16,63.63,436.5,63.39Zm8.44-2.45c-.23.34-.48.56-.46.74a.49.49,0,0,0,1,0C445.47,61.47,445.2,61.27,444.94,60.94Zm-2.34,1.64c-.24.34-.5.55-.48.73s.3.48.47.48a.67.67,0,0,0,.49-.47C443.1,63.15,442.84,62.93,442.6,62.58Z"/><path d="M463.55,61.78l6.28-6.26,2.69-2.69c.61-.6,1-.52,1.35.28a3.28,3.28,0,0,1,.28,1.18.93.93,0,0,0,.79.94c.95.29,1.92.52,2.84.86a14.68,14.68,0,0,1,2.49,1.12c1,.55,1,1.1.36,2-1.33,1.77-2.67,3.55-4,5.3a1.1,1.1,0,0,1-.76.36c-2.91,0-5.81,0-8.72,0a1.28,1.28,0,0,1-.75-.3C465.42,63.66,464.52,62.74,463.55,61.78Zm15.94-2.7-.07-.07c-.11.07-.24.12-.35.2a1.39,1.39,0,0,1-1.55.12c-1.85-.76-3.74-1.44-5.6-2.16a1.66,1.66,0,0,0-1.79.32,7.28,7.28,0,0,0-.63.61c-.66.7-.58,1.08.32,1.47s1.72.74,2.59,1.07c1.06.42,2.13.85,3.22,1.19a1.41,1.41,0,0,0,1.59-.18C478,60.81,478.74,59.94,479.49,59.08Zm-3.81,4.36c-.34-.26-.54-.54-.74-.53a.68.68,0,0,0-.48.48c0,.16.27.47.46.49S475.32,63.66,475.68,63.44Zm-7.55-.87c-.26.35-.54.54-.52.72a.69.69,0,0,0,.46.5c.17,0,.47-.27.5-.46S468.36,62.94,468.13,62.57Zm-1.66-.9c-.35-.25-.57-.51-.75-.49s-.35.32-.52.5c.17.17.34.44.53.47S466.12,61.91,466.47,61.67Z"/><path d="M453.73,82.19c-.16.54-.35,1-.47,1.58-.07.36-.25.42-.57.37s-.85-.12-1.33-.18l-.52,1.72-1.78-.18-.53,1.71L446.75,87l-.52,1.71-1.77-.19-.53,1.72-1.77-.19-.52,1.69-4.29-2.89,10-10c.45.73,1.2.19,1.9.32.11,1.4.87,1.92,2.2,1.44C452.13,82.19,452.13,82.19,453.73,82.19Z"/></g><path d="M413.78,96.9a.49.49,0,0,1-.35-.15l-3.95-4a3.51,3.51,0,0,1-1-2.49V51.42a3.55,3.55,0,0,1,1-2.5l3.36-3.35a.5.5,0,0,1,.7,0,.5.5,0,0,1,0,.71l-3.35,3.35a2.5,2.5,0,0,0-.74,1.79V90.31a2.46,2.46,0,0,0,.74,1.78l3.95,4a.51.51,0,0,1,0,.71A.51.51,0,0,1,413.78,96.9Z"/><path d="M422.42,96.9a.47.47,0,0,1-.35-.15l-3.95-4a3.47,3.47,0,0,1-1-2.49V51.42a3.55,3.55,0,0,1,1-2.5l3.35-3.35a.51.51,0,0,1,.71,0,.5.5,0,0,1,0,.71l-3.35,3.35a2.5,2.5,0,0,0-.74,1.79V90.31a2.46,2.46,0,0,0,.74,1.78l3.94,4a.5.5,0,0,1,0,.71A.47.47,0,0,1,422.42,96.9Z"/><path d="M496.25,96.9a.49.49,0,0,1-.35-.15.5.5,0,0,1,0-.71l4-4a2.51,2.51,0,0,0,.73-1.78V51.42a2.5,2.5,0,0,0-.74-1.79l-3.35-3.35a.5.5,0,0,1,.71-.71l3.35,3.35a3.51,3.51,0,0,1,1,2.5V90.31a3.47,3.47,0,0,1-1,2.49l-3.94,4A.51.51,0,0,1,496.25,96.9Z"/><path d="M487.62,96.9a.51.51,0,0,1-.36-.15.51.51,0,0,1,0-.71l3.95-4a2.48,2.48,0,0,0,.74-1.78V51.42a2.54,2.54,0,0,0-.74-1.79l-3.36-3.35a.5.5,0,0,1,.71-.71l3.35,3.35a3.52,3.52,0,0,1,1,2.5V90.31a3.51,3.51,0,0,1-1,2.49l-3.95,4A.5.5,0,0,1,487.62,96.9Z"/><rect class="cls-3" x="564.87" y="422.03" width="35.66" height="102.87"/><path d="M601,525.41H564.37V421.53H601Zm-35.66-1H600V422.53H565.37Z"/><path d="M582.07,446.66c-3.32,0-5.81-1.69-5.81-6.33v-5.67h11.62v5.67C587.88,445,585.4,446.66,582.07,446.66Zm0-3.49a2.57,2.57,0,0,0,2.89-2.86v-2.17h-5.78v2.17A2.58,2.58,0,0,0,582.07,443.17Z"/><path d="M582.07,447.34c3.69,0,6.19,2.59,6.19,6.52s-2.5,6.51-6.19,6.51-6.19-2.59-6.19-6.51S578.38,447.34,582.07,447.34Zm0,9.58a3.07,3.07,0,1,0-3.19-3.06A3,3,0,0,0,582.07,456.92Z"/><path d="M587.88,461.21v6.41c0,3.14-1.44,5-4.44,5s-4.44-1.82-4.44-4.95v-2.95h-2.74v-3.47Zm-6,6.13c0,1.07.51,1.75,1.55,1.75s1.55-.68,1.55-1.75v-2.66h-3.1Z"/><path d="M587.88,473.48v10.23h-2.8V477h-1.83v6.51h-2.34V477h-1.84v6.76h-2.81V473.48Z"/><path d="M577.94,497.29v-5.22l-1.68-.58v-3.58l11.62,4.34v4.86l-11.62,4.36v-3.6Zm2.58-.9,4.09-1.41v-.6L580.52,493Z"/><path d="M587.88,502.08v10.21H585v-6.74h-2V512h-2.53v-6.42h-4.22v-3.47Z"/><rect x="526.68" y="47.82" width="6.94" height="6.94"/><rect x="526.68" y="60.43" width="6.94" height="6.94"/><rect x="526.68" y="85.67" width="6.94" height="6.94"/><path d="M49.16,326a8.46,8.46,0,1,1,8.46-8.46A8.47,8.47,0,0,1,49.16,326Zm0-15.92a7.46,7.46,0,1,0,7.46,7.46A7.47,7.47,0,0,0,49.16,310.11Z"/><rect x="48.66" y="298.19" width="1" height="38.77"/><rect x="29.78" y="317.07" width="38.77" height="1"/><rect x="247.55" y="105.23" width="1" height="230.5"/><g id="DicLNM.tif" class="cls-6"><path class="cls-7" d="M564.35,293.18H464.11V192.93H564.35Zm-27.59-84.6-.14-.65c-4,1-8.14,1.52-11.89,3-17,6.93-31.17,17.82-43,31.75a35.1,35.1,0,0,0-7.63,14.55c-.95,3.91-.73,7.39,2.05,10.56,1.75,2,3.29,4.18,4.84,6.33a8.69,8.69,0,0,0,5.67,3.52c4.89.94,9.57-.09,14.11-1.71,17.68-6.29,32.18-17.15,44.29-31.32,3.9-4.56,7.2-9.53,8.9-15.39,1.12-3.87.79-7.41-2-10.55a30.9,30.9,0,0,1-3.47-4.59C545.73,209.68,541.74,208.14,536.76,208.58Z"/><path d="M536.76,208.58c5-.44,9,1.1,11.66,5.55a30.9,30.9,0,0,0,3.47,4.59c2.82,3.14,3.15,6.68,2,10.55-1.7,5.86-5,10.83-8.9,15.39-12.11,14.17-26.61,25-44.29,31.32-4.54,1.62-9.22,2.65-14.11,1.71a8.69,8.69,0,0,1-5.67-3.52c-1.55-2.15-3.09-4.34-4.84-6.33-2.78-3.17-3-6.65-2.05-10.56a35.1,35.1,0,0,1,7.63-14.55c11.87-13.93,26-24.82,43-31.75,3.75-1.53,7.91-2.06,11.89-3ZM486,262a91.66,91.66,0,0,0,8.88-3.14,106.77,106.77,0,0,0,39.69-30.51,34.29,34.29,0,0,0,5.18-9.65c1.26-3.43-1.11-5.78-4.77-5.17a36.87,36.87,0,0,0-6.21,1.55c-14.11,4.89-25.93,13.34-36.5,23.67-5,4.87-9.44,10.21-12.41,16.6C478,259.45,479.74,262.06,486,262Zm41.81-6.63c.11-2.52-3.61-7.94-5.2-8C524.33,250,525.94,252.46,527.85,255.4Zm11.35-24.34-.61.5c1.28,2.51,3.43,4.3,5.24,6.38l.53-.43ZM526,245l-.51.4,5.22,6.85.66-.51Zm14.94-3.08.72-.59-5.25-6.08-.36.29Zm-5.54,5.47.34-.25L531,240.3l-.62.45ZM502.84,261.1l-.55.34,4.33,6.77.51-.33Zm43.94-28.05.49-.39-4.66-6-.44.35ZM485.14,267l-.43.31,3.67,5.88.59-.4Zm33.37-15.89-.57.5,4.08,5.28.37-.29ZM515,260.92l.42-.33-3.48-5.07-.62.45Z"/><path class="cls-7" d="M486,262c-6.3,0-8-2.58-6.14-6.65,3-6.39,7.41-11.73,12.41-16.6,10.57-10.33,22.39-18.78,36.5-23.67a36.87,36.87,0,0,1,6.21-1.55c3.66-.61,6,1.74,4.77,5.17a34.29,34.29,0,0,1-5.18,9.65,106.77,106.77,0,0,1-39.69,30.51A91.66,91.66,0,0,1,486,262Zm8.82-6.22v-.62a2.78,2.78,0,0,0-.6-.19c-3.44-.35-4.11-1.53-2.6-4.64a22,22,0,0,1,1.29-2.32,57,57,0,0,1,14.3-14.68c5.53-4.11,11.42-7.66,18.07-9.63a6.72,6.72,0,0,1,4.6.34c.81.41.85,2.31,1.28,3.72a30.65,30.65,0,0,0,1.36-3.36c.93-3.29-1-5.28-4.26-4.48-1.43.35-2.85.73-4.24,1.21-9.82,3.35-18.12,9.15-25.64,16.15a46.28,46.28,0,0,0-10.87,14.12c-1,2-.37,4.11,1.57,4.42A32.51,32.51,0,0,0,494.86,255.81Z"/><path class="cls-7" d="M527.85,255.4c-1.91-2.94-3.52-5.39-5.2-8C524.24,247.46,528,252.88,527.85,255.4Z"/><path class="cls-7" d="M539.2,231.06l5.16,6.45-.53.43c-1.81-2.08-4-3.87-5.24-6.38Z"/><path class="cls-7" d="M526,245l5.37,6.74-.66.51-5.22-6.85Z"/><path class="cls-7" d="M540.89,241.92,536,235.54l.36-.29,5.25,6.08Z"/><path class="cls-7" d="M535.35,247.39l-5-6.64.62-.45,4.74,6.84Z"/><path class="cls-7" d="M502.84,261.1l4.29,6.78-.51.33-4.33-6.77Z"/><path class="cls-7" d="M546.78,233.05,542.17,227l.44-.35,4.66,6Z"/><path class="cls-7" d="M485.14,267l3.83,5.79-.59.4-3.67-5.88Z"/><path class="cls-7" d="M518.51,251.09l3.88,5.49-.37.29-4.08-5.28Z"/><path class="cls-7" d="M515,260.92l-3.68-5,.62-.45,3.48,5.07Z"/><path d="M494.86,255.81a32.51,32.51,0,0,1-5.75,0c-1.94-.31-2.53-2.39-1.57-4.42a46.28,46.28,0,0,1,10.87-14.12c7.52-7,15.82-12.8,25.64-16.15,1.39-.48,2.81-.86,4.24-1.21,3.28-.8,5.19,1.19,4.26,4.48a30.65,30.65,0,0,1-1.36,3.36c-.43-1.41-.47-3.31-1.28-3.72a6.72,6.72,0,0,0-4.6-.34c-6.65,2-12.54,5.52-18.07,9.63A57,57,0,0,0,492.94,248a22,22,0,0,0-1.29,2.32c-1.51,3.11-.84,4.29,2.6,4.64a2.78,2.78,0,0,1,.6.19Z"/></g><g id="DicLNM.tif-2" data-name="DicLNM.tif" class="cls-6"><path class="cls-7" d="M501.84,215.34h56.61V158.73H501.84Zm15.59-47.77.08-.37a50,50,0,0,1,6.71,1.72,63.06,63.06,0,0,1,24.3,17.93,19.73,19.73,0,0,1,4.31,8.22,6.12,6.12,0,0,1-1.16,6c-1,1.13-1.85,2.36-2.73,3.58a4.89,4.89,0,0,1-3.2,2,15.05,15.05,0,0,1-8-1,58.46,58.46,0,0,1-25-17.69,23.55,23.55,0,0,1-5-8.69,5.87,5.87,0,0,1,1.15-6,17.11,17.11,0,0,0,2-2.59A6.39,6.39,0,0,1,517.43,167.57Z"/><path d="M517.43,167.57a6.39,6.39,0,0,0-6.59,3.13,17.11,17.11,0,0,1-2,2.59,5.87,5.87,0,0,0-1.15,6,23.55,23.55,0,0,0,5,8.69,58.46,58.46,0,0,0,25,17.69,15.05,15.05,0,0,0,8,1,4.89,4.89,0,0,0,3.2-2c.88-1.22,1.75-2.45,2.73-3.58a6.12,6.12,0,0,0,1.16-6,19.73,19.73,0,0,0-4.31-8.22,63.06,63.06,0,0,0-24.3-17.93,50,50,0,0,0-6.71-1.72Zm28.64,30.18a51.69,51.69,0,0,1-5-1.77,60.34,60.34,0,0,1-22.41-17.23,19.51,19.51,0,0,1-2.93-5.45c-.71-1.94.63-3.26,2.7-2.92a21.43,21.43,0,0,1,3.51.87c8,2.77,14.64,7.54,20.61,13.37a32.07,32.07,0,0,1,7,9.38C550.6,196.3,549.63,197.77,546.07,197.75ZM522.45,194c-.06-1.43,2-4.48,2.94-4.5Zm-6.4-13.75.34.28a19,19,0,0,1-3,3.61l-.3-.25Zm7.48,7.87.29.23-3,3.87-.38-.29Zm-8.44-1.74-.4-.33,3-3.43.2.16Zm3.13,3.09-.19-.14,2.67-3.86.36.25Zm18.36,7.74.31.2-2.45,3.82-.28-.19Zm-24.81-15.83-.28-.22,2.63-3.4.25.2Zm34.8,19.16.25.17L544.74,204l-.33-.22Zm-18.84-9,.32.28-2.3,3-.21-.17Zm2,5.55-.24-.18,2-2.87.36.26Z"/><path class="cls-7" d="M546.07,197.75c3.56,0,4.53-1.45,3.46-3.75a32.07,32.07,0,0,0-7-9.38c-6-5.83-12.65-10.6-20.61-13.37a21.43,21.43,0,0,0-3.51-.87c-2.07-.34-3.41,1-2.7,2.92a19.51,19.51,0,0,0,2.93,5.45A60.34,60.34,0,0,0,541.05,196,51.69,51.69,0,0,0,546.07,197.75Zm-5-3.51v-.35a1.5,1.5,0,0,1,.34-.11c1.94-.2,2.32-.86,1.47-2.62a12.87,12.87,0,0,0-.73-1.31,32.17,32.17,0,0,0-8.08-8.29,33,33,0,0,0-10.2-5.44,3.86,3.86,0,0,0-2.6.19c-.45.24-.48,1.31-.72,2.1a18.25,18.25,0,0,1-.77-1.89c-.52-1.86.56-3,2.41-2.53.8.19,1.61.41,2.39.68a40.44,40.44,0,0,1,14.48,9.12,26.16,26.16,0,0,1,6.14,8c.54,1.14.21,2.31-.89,2.49A18.47,18.47,0,0,1,541.09,194.24Z"/><path class="cls-7" d="M522.45,194l2.94-4.5C524.5,189.53,522.39,192.58,522.45,194Z"/><path class="cls-7" d="M516.05,180.26l-2.92,3.64.3.25a19,19,0,0,0,3-3.61Z"/><path class="cls-7" d="M523.53,188.13l-3,3.81.38.29,3-3.87Z"/><path class="cls-7" d="M515.09,186.39l2.76-3.6-.2-.16-3,3.43Z"/><path class="cls-7" d="M518.22,189.48l2.84-3.75-.36-.25L518,189.34Z"/><path class="cls-7" d="M536.58,197.22l-2.42,3.83.28.19,2.45-3.82Z"/><path class="cls-7" d="M511.77,181.39l2.6-3.42-.25-.2-2.63,3.4Z"/><path class="cls-7" d="M546.57,200.55l-2.16,3.27.33.22,2.08-3.32Z"/><path class="cls-7" d="M527.73,191.57l-2.19,3.1.21.17,2.3-3Z"/><path class="cls-7" d="M529.72,197.12l2.08-2.79-.36-.26-2,2.87Z"/><path d="M541.09,194.24a18.47,18.47,0,0,0,3.24,0c1.1-.18,1.43-1.35.89-2.49a26.16,26.16,0,0,0-6.14-8,40.44,40.44,0,0,0-14.48-9.12c-.78-.27-1.59-.49-2.39-.68-1.85-.45-2.93.67-2.41,2.53a18.25,18.25,0,0,0,.77,1.89c.24-.79.27-1.86.72-2.1a3.86,3.86,0,0,1,2.6-.19,33,33,0,0,1,10.2,5.44,32.17,32.17,0,0,1,8.08,8.29,12.87,12.87,0,0,1,.73,1.31c.85,1.76.47,2.42-1.47,2.62a1.5,1.5,0,0,0-.34.11Z"/></g><ellipse cx="521.89" cy="277.26" rx="34.2" ry="1.77"/><path d="M127.54,325.84H90.81v-14.4h36.73Zm-35.73-1h34.73v-12.4H91.81Z"/><rect x="127.04" y="318.14" width="33.5" height="1"/><path d="M166.88,325.1a6.46,6.46,0,1,1,6.46-6.46A6.46,6.46,0,0,1,166.88,325.1Zm0-11.91a5.46,5.46,0,1,0,5.46,5.45A5.46,5.46,0,0,0,166.88,313.19Z"/><rect x="160.91" y="318.13" width="11.91" height="1" transform="translate(-192.63 330.09) rotate(-64.19)"/><rect class="cls-2" x="91.31" y="311.94" width="8.7" height="13.4"/><path d="M100.51,325.84h-9.7v-14.4h9.7Zm-8.7-1h7.7v-12.4h-7.7Z"/><rect x="100.01" y="311.94" width="15.09" height="13.4"/><path d="M115.6,325.84H99.51v-14.4H115.6Zm-15.09-1H114.6v-12.4H100.51Z"/><rect class="cls-2" x="25" y="495.23" width="514" height="20"/><path d="M539.5,515.73H24.5v-21h515Zm-514-1h513v-19H25.5Z"/><path d="M145.6,461.09h.54q3.8,0,5,1.08c.79.71,1.19,2.18,1.19,4.41v4.21h-5.2v-4.47a1.1,1.1,0,0,0-.23-.81,1.06,1.06,0,0,0-.74-.21h-.54a1.06,1.06,0,0,0-.74.21,1.1,1.1,0,0,0-.23.81v12.27a1.11,1.11,0,0,0,.23.82,1.06,1.06,0,0,0,.74.21h.54a1.06,1.06,0,0,0,.74-.21,1.11,1.11,0,0,0,.23-.82v-5.1h5.2v4.85c0,2.22-.4,3.7-1.19,4.41s-2.45,1.08-5,1.08h-.54q-3.79,0-5-1.08c-.79-.71-1.19-2.19-1.19-4.41V466.58c0-2.23.4-3.7,1.19-4.41S143.07,461.09,145.6,461.09Z"/><path d="M153.63,483.7V461.22h6.68c2.48,0,4.11.35,4.88,1s1.16,2.14,1.16,4.32v2.54a5.41,5.41,0,0,1-.61,3.05,3,3,0,0,1-2.28.93,3.08,3.08,0,0,1,2.29,1.11,6,6,0,0,1,.6,3.16v6.33h-5.14v-6.9c0-.95-.31-1.44-.93-1.48h-1.51v8.38Zm5.14-18.31v6h1.54a1.06,1.06,0,0,0,.69-.18,1,1,0,0,0,.21-.75v-4.15a.9.9,0,0,0-.23-.72,1.11,1.11,0,0,0-.7-.18Z"/><path d="M173.51,461.09h.61q3.75,0,4.95,1.06c.79.71,1.18,2.17,1.18,4.4v11.82c0,2.21-.39,3.67-1.18,4.38s-2.45,1.08-4.95,1.08h-.61q-3.73,0-4.93-1.09c-.8-.73-1.21-2.19-1.21-4.37V466.55c0-2.23.4-3.69,1.19-4.4S171,461.09,173.51,461.09Zm0,18.56h.55a1.24,1.24,0,0,0,.78-.19,1.05,1.05,0,0,0,.24-.83V466.29a1.05,1.05,0,0,0-.24-.83,1.24,1.24,0,0,0-.78-.19h-.55a1.28,1.28,0,0,0-.79.19,1.05,1.05,0,0,0-.24.83v12.34a1.05,1.05,0,0,0,.24.83A1.28,1.28,0,0,0,173.54,479.65Z"/><path d="M187.61,461.09h.29q3.78,0,5,1.08c.79.71,1.19,2.18,1.19,4.41v2.28h-5.21v-2.57a1.06,1.06,0,0,0-.22-.8,1.13,1.13,0,0,0-.74-.19h-.29a1.13,1.13,0,0,0-.74.19,1.06,1.06,0,0,0-.22.8v1.35A2,2,0,0,0,187,469a5.94,5.94,0,0,0,1.8.85l2,.71a12.14,12.14,0,0,1,1.46.59,4.84,4.84,0,0,1,1,.74,2.53,2.53,0,0,1,.74,1.28,8.67,8.67,0,0,1,.19,2v3.12c0,2.22-.39,3.7-1.19,4.41s-2.45,1.08-5,1.08h-.38q-3.8,0-5-1.08c-.79-.71-1.19-2.19-1.19-4.41V476h5.21v2.61a1.05,1.05,0,0,0,.22.78,1.07,1.07,0,0,0,.74.21H188a.82.82,0,0,0,1-1v-2.06c0-.17,0-.32,0-.45a.76.76,0,0,0-.11-.34,1.62,1.62,0,0,1-.14-.24.81.81,0,0,0-.25-.21l-.28-.16-.42-.17-.48-.2-2.19-.77a16.2,16.2,0,0,1-1.51-.67,5.27,5.27,0,0,1-1.07-.79,2.71,2.71,0,0,1-.82-1.33,7.5,7.5,0,0,1-.23-2v-2.67c0-2.23.4-3.7,1.19-4.41S185.08,461.09,187.61,461.09Z"/><path d="M200.94,461.09h.29q3.78,0,5,1.08c.79.71,1.19,2.18,1.19,4.41v2.28h-5.21v-2.57a1.06,1.06,0,0,0-.22-.8,1.13,1.13,0,0,0-.74-.19h-.29a1.13,1.13,0,0,0-.74.19,1.06,1.06,0,0,0-.22.8v1.35a2,2,0,0,0,.35,1.4,5.94,5.94,0,0,0,1.8.85l2,.71a12.14,12.14,0,0,1,1.46.59,4.84,4.84,0,0,1,1,.74,2.53,2.53,0,0,1,.74,1.28,8.67,8.67,0,0,1,.19,2v3.12c0,2.22-.39,3.7-1.19,4.41s-2.45,1.08-5,1.08h-.38q-3.8,0-5-1.08c-.79-.71-1.19-2.19-1.19-4.41V476H200v2.61a1.05,1.05,0,0,0,.22.78,1.07,1.07,0,0,0,.74.21h.38a.82.82,0,0,0,1-1v-2.06c0-.17,0-.32,0-.45a.76.76,0,0,0-.11-.34,1.62,1.62,0,0,1-.14-.24.81.81,0,0,0-.25-.21l-.28-.16-.42-.17-.48-.2L198.4,474a16.2,16.2,0,0,1-1.51-.67,5.27,5.27,0,0,1-1.07-.79,2.71,2.71,0,0,1-.82-1.33,7.5,7.5,0,0,1-.23-2v-2.67c0-2.23.4-3.7,1.19-4.41S198.41,461.09,200.94,461.09Z"/><path d="M208.2,476v-4h8.57v4Z"/><path d="M224,461.09h.55q3.79,0,5,1.08c.79.71,1.19,2.18,1.19,4.41v4.21h-5.21v-4.47a1.11,1.11,0,0,0-.22-.81,1.07,1.07,0,0,0-.74-.21H224a1.07,1.07,0,0,0-.74.21,1.11,1.11,0,0,0-.22.81v12.27a1.12,1.12,0,0,0,.22.82,1.07,1.07,0,0,0,.74.21h.55a1.07,1.07,0,0,0,.74-.21,1.12,1.12,0,0,0,.22-.82v-5.1h5.21v4.85c0,2.22-.4,3.7-1.19,4.41s-2.45,1.08-5,1.08H224q-3.78,0-5-1.08c-.8-.71-1.19-2.19-1.19-4.41V466.58c0-2.23.39-3.7,1.19-4.41S221.51,461.09,224,461.09Z"/><path d="M232.16,483.7V461.22h5.11V470h2.57v-8.8h5.1V483.7h-5.1v-9.18h-2.57v9.18Z"/><path d="M257.05,461.22l3.21,22.48h-5.1l-.48-3.79h-3.31l-.45,3.79h-5.14L249,461.22Zm-4.11,4.3-1.22,9.89h2.6l-1.25-9.89Z"/><path d="M261.13,483.7V461.22h5.11V483.7Z"/><path d="M267.78,461.22h5l3.08,10.63h0V461.22h4.69V483.7h-5.23l-2.6-9.89h0v9.89h-4.91Z"/><path d="M286.18,483.7V461.22h6.65c2.49,0,4.12.35,4.9,1.06s1.17,2.16,1.17,4.37v11.62c0,2.21-.39,3.67-1.17,4.37s-2.41,1.06-4.9,1.06Zm6.65-18.31h-1.51v14.14h1.51a.82.82,0,0,0,1-1V466.32a.94.94,0,0,0-.23-.75A1.2,1.2,0,0,0,292.83,465.39Z"/><path d="M305.33,474.39v4.94h5.55v4.37H300.22V461.22h10.66v4.37h-5.55V470h5v4.37Z"/><path d="M312,483.7V461.22h6.68c2.48,0,4.11.35,4.88,1s1.16,2.14,1.16,4.32v2.54a5.41,5.41,0,0,1-.61,3.05,3,3,0,0,1-2.28.93,3.08,3.08,0,0,1,2.29,1.11,6,6,0,0,1,.6,3.16v6.33h-5.14v-6.9c0-.95-.31-1.44-.93-1.48h-1.51v8.38Zm5.14-18.31v6h1.54a1.06,1.06,0,0,0,.69-.18,1,1,0,0,0,.21-.75v-4.15a.9.9,0,0,0-.23-.72,1.11,1.11,0,0,0-.7-.18Z"/><path d="M325.91,483.7V461.22H331V483.7Z"/><path d="M347.11,461.22l-3.53,22.48h-8.06L332,461.22h5.14l2.38,16.8h.09l2.45-16.8Z"/><path d="M357.39,461.22l3.21,22.48h-5.1l-.49-3.79h-3.3l-.45,3.79h-5.14l3.21-22.48Zm-4.11,4.3-1.22,9.89h2.6l-1.25-9.89Z"/><path d="M368.57,465.59V483.7h-5.14V465.59h-3.79v-4.37h12.72v4.37Z"/><path d="M373.23,483.7V461.22h5.1V483.7Z"/><path d="M394.42,461.22l-3.53,22.48h-8.06l-3.57-22.48h5.14l2.38,16.8h.1l2.44-16.8Z"/><path d="M400.49,474.39v4.94h5.56v4.37H395.39V461.22h10.66v4.37h-5.56V470h5v4.37Z"/><path d="M413.28,461.09h.29q3.78,0,5,1.08c.8.71,1.19,2.18,1.19,4.41v2.28h-5.2v-2.57a1.11,1.11,0,0,0-.22-.8,1.13,1.13,0,0,0-.74-.19h-.29a1.11,1.11,0,0,0-.74.19,1.06,1.06,0,0,0-.23.8v1.35a2,2,0,0,0,.36,1.4,5.94,5.94,0,0,0,1.8.85l2,.71a12.14,12.14,0,0,1,1.46.59,5.12,5.12,0,0,1,1,.74,2.53,2.53,0,0,1,.74,1.28,8.67,8.67,0,0,1,.19,2v3.12c0,2.22-.4,3.7-1.19,4.41s-2.45,1.08-5,1.08h-.38q-3.79,0-5-1.08c-.79-.71-1.19-2.19-1.19-4.41V476h5.2v2.61a.82.82,0,0,0,1,1h.38a1.07,1.07,0,0,0,.74-.21,1.05,1.05,0,0,0,.23-.78v-2.06c0-.17,0-.32,0-.45a.76.76,0,0,0-.11-.34,1.79,1.79,0,0,1-.15-.24.65.65,0,0,0-.24-.21l-.29-.16-.41-.17-.49-.2-2.18-.77a15.06,15.06,0,0,1-1.51-.67,5.59,5.59,0,0,1-1.08-.79,2.69,2.69,0,0,1-.81-1.33,7.5,7.5,0,0,1-.23-2v-2.67c0-2.23.4-3.7,1.19-4.41S410.75,461.09,413.28,461.09Z"/><rect x="433.5" y="466.73" width="1" height="12.33"/><rect x="437.35" y="466.73" width="1" height="12.33"/><rect x="441.19" y="466.73" width="1" height="12.33"/><rect x="445.04" y="466.73" width="1" height="12.33"/><rect x="448.88" y="466.73" width="1" height="12.33"/><rect x="452.73" y="466.73" width="1" height="12.33"/><rect x="456.58" y="466.73" width="1" height="12.33"/><rect x="460.42" y="466.73" width="1" height="12.33"/><rect x="464.27" y="466.73" width="1" height="12.33"/><rect x="468.12" y="466.73" width="1" height="12.33"/><rect x="471.96" y="466.73" width="1" height="12.33"/><rect x="475.81" y="466.73" width="1" height="12.33"/><rect x="479.65" y="466.73" width="1" height="12.33"/><rect x="483.5" y="466.73" width="1" height="12.33"/><rect x="487.35" y="466.73" width="1" height="12.33"/><rect x="491.19" y="466.73" width="1" height="12.33"/><rect x="495.04" y="466.73" width="1" height="12.33"/><rect x="498.88" y="466.73" width="1" height="12.33"/><rect x="502.73" y="466.73" width="1" height="12.33"/><rect x="506.58" y="466.73" width="1" height="12.33"/><rect x="510.42" y="466.73" width="1" height="12.33"/><rect x="514.27" y="466.73" width="1" height="12.33"/><rect x="518.12" y="466.73" width="1" height="12.33"/><rect x="521.96" y="466.73" width="1" height="12.33"/><rect x="525.81" y="466.73" width="1" height="12.33"/><rect x="529.65" y="466.73" width="1" height="12.33"/><rect x="533.5" y="466.73" width="1" height="12.33"/><rect x="25.5" y="466.73" width="1" height="12.33"/><rect x="29.35" y="466.73" width="1" height="12.33"/><rect x="33.19" y="466.73" width="1" height="12.33"/><rect x="37.04" y="466.73" width="1" height="12.33"/><rect x="40.88" y="466.73" width="1" height="12.33"/><rect x="44.73" y="466.73" width="1" height="12.33"/><rect x="48.58" y="466.73" width="1" height="12.33"/><rect x="52.42" y="466.73" width="1" height="12.33"/><rect x="56.27" y="466.73" width="1" height="12.33"/><rect x="60.12" y="466.73" width="1" height="12.33"/><rect x="63.96" y="466.73" width="1" height="12.33"/><rect x="67.81" y="466.73" width="1" height="12.33"/><rect x="71.65" y="466.73" width="1" height="12.33"/><rect x="75.5" y="466.73" width="1" height="12.33"/><rect x="79.35" y="466.73" width="1" height="12.33"/><rect x="83.19" y="466.73" width="1" height="12.33"/><rect x="87.04" y="466.73" width="1" height="12.33"/><rect x="90.88" y="466.73" width="1" height="12.33"/><rect x="94.73" y="466.73" width="1" height="12.33"/><rect x="98.58" y="466.73" width="1" height="12.33"/><rect x="102.42" y="466.73" width="1" height="12.33"/><rect x="106.27" y="466.73" width="1" height="12.33"/><rect x="110.12" y="466.73" width="1" height="12.33"/><rect x="113.96" y="466.73" width="1" height="12.33"/><rect x="117.81" y="466.73" width="1" height="12.33"/><rect x="121.65" y="466.73" width="1" height="12.33"/><rect x="125.5" y="466.73" width="1" height="12.33"/><rect class="cls-7" x="29.99" y="128.62" width="196.63" height="117.76"/><path d="M227.5,247.26H29.11V127.74H227.5ZM30.87,245.5H225.74v-116H30.87Z"/><rect x="29.99" y="128.62" width="196.63" height="80.26"/><path class="cls-7" d="M37.28,168.52c0-19.9,14-33.13,34.9-33.13,15.16,0,30.69,6.65,32.76,27.66H85.42c-1.7-6.81-6.51-10-13.24-10-8.13,0-14.57,6.07-14.57,15.46S64.05,184,72.18,184c6.73,0,11.54-3.18,13.24-10.13h19.52c-2.07,21.15-17.45,27.81-32.76,27.81C51.25,201.65,37.28,188.41,37.28,168.52Z"/><path class="cls-7" d="M176.16,168.52c0,17.82-8.88,31.06-34.17,31.06H110.78V137.46H142C167.28,137.46,176.16,150.62,176.16,168.52Zm-20.56,0c0-10-5.62-13.9-13.61-13.9H131.34v27.8H142C150,182.42,155.6,178.43,155.6,168.52Z"/><path class="cls-7" d="M180.74,188.9l20.59-17.48v-1H181.22V159.35h37.35V170l-20.88,17.48v1h20.6v11.07H180.74Z"/><path d="M36.78,217.31H55.7v5.55h-12v2.68H55.25v4.54H43.7v2.68h12v5.55H36.78Z"/><path d="M63.84,227.83v-.35l-7.09-10.17h7.44l3.68,5.63h.65l3.67-5.63h7.45l-7,10.17v.35l7.22,10.48H72.29l-3.77-5.9h-.65l-3.78,5.9H56.57Z"/><path d="M78.32,227.81c0-6.72,4.72-11.2,11.79-11.2,5.13,0,10.37,2.25,11.07,9.35H94.59a4.2,4.2,0,0,0-4.48-3.37,5.23,5.23,0,0,0,0,10.44,4.2,4.2,0,0,0,4.48-3.42h6.59c-.7,7.15-5.89,9.4-11.07,9.4C83,239,78.32,234.53,78.32,227.81Z"/><path d="M124.55,217.31v21h-6.92v-7.6h-8.15v7.6h-6.92v-21h6.92v7.6h8.15v-7.6Z"/><path d="M142.62,235.53h-9l-.93,2.78h-7.15l7.73-21H143l7.73,21h-7.15Zm-1.7-5.12-2.19-6.6h-1.2l-2.2,6.6Z"/><path d="M151.7,217.31h7.94l7,11.35h.62V217.31H174v21h-7.77L159.07,227h-.63v11.35H151.7Z"/><path d="M198.33,238.31h-3.69l-.1-2.78c-1.45,2-4.08,3.48-7.78,3.48-6.45,0-11.39-4.48-11.39-11.2s4.69-11.2,12-11.2c5,0,10,2.4,10.87,8h-6.87a4,4,0,0,0-3.85-2.07,5.22,5.22,0,0,0-.2,10.44c1,0,3.65-.27,4.35-2.72H187v-3.6h11.29Z"/><path d="M200.21,217.31h18.92v5.55h-12v2.68h11.55v4.54H207.13v2.68h12v5.55H200.21Z"/><rect class="cls-7" x="181.11" y="138.42" width="36.78" height="10.57"/><rect x="29.99" y="208" width="196.63" height="1.76"/><rect class="cls-8" x="28.43" y="257.3" width="172.94" height="30.08" rx="15.04"/><path d="M186.33,287.73H43.47a15.39,15.39,0,1,1,0-30.78H186.33a15.39,15.39,0,0,1,0,30.78ZM43.47,257.66a14.69,14.69,0,0,0,0,29.37H186.33a14.69,14.69,0,1,0,0-29.37Z"/><rect class="cls-9" x="26.55" y="257.3" width="57.33" height="30.08" rx="15.04"/><path d="M68.85,287.73H41.59a15.39,15.39,0,1,1,0-30.78H68.85a15.39,15.39,0,0,1,0,30.78ZM41.59,257.66a14.69,14.69,0,0,0,0,29.37H68.85a14.69,14.69,0,0,0,0-29.37Z"/></g><g id="Text"><path d="M279.13,306.89v1.19h-1.7v-1.19c-3.9-.17-6.55-1.66-6.59-5.14h4.83c0,1,.81,1.35,1.76,1.45v-2.3c-2.43-.39-6.37-.91-6.37-4.41,0-2.71,2.47-4.37,6.37-4.53v-1.3h1.7V292c3.22.2,6.15,1.37,6.07,5.16h-4.71a1.41,1.41,0,0,0-1.36-1.52v2.32c2.59.27,6.62.67,6.62,4.39C285.75,305.21,283.2,306.7,279.13,306.89Zm-1.7-9.23v-2.08c-.75.1-1.39.38-1.39,1C276,296.87,276.18,297.34,277.43,297.66Zm3.26,4.59c0-.46-.39-.74-1.56-1v2C280.1,303.12,280.69,302.84,280.69,302.25Z"/><path d="M286.5,299.42c0-5.32,3.74-8.86,9.34-8.86,4.05,0,8.2,1.78,8.76,7.4h-5.22a3.32,3.32,0,0,0-3.54-2.67,4.14,4.14,0,0,0,0,8.26,3.32,3.32,0,0,0,3.54-2.71h5.22c-.56,5.66-4.67,7.44-8.76,7.44C290.24,308.28,286.5,304.74,286.5,299.42Z"/><path d="M323.16,299.42c0,4.76-2.37,8.3-9.14,8.3h-8.34V291.11H314C320.79,291.11,323.16,294.63,323.16,299.42Zm-5.5,0c0-2.67-1.5-3.72-3.64-3.72h-2.84v7.44H314C316.16,303.14,317.66,302.07,317.66,299.42Z"/><path d="M323.65,303.31l8.5-7.21v-.42h-8.3v-4.57h15.42v4.41l-8.62,7.22v.42h8.5v4.56h-15.5Z"/><path d="M340.36,295.31a2.73,2.73,0,1,1,2.72,2.68A2.73,2.73,0,0,1,340.36,295.31Zm0,8.42a2.73,2.73,0,1,1,2.72,2.69A2.74,2.74,0,0,1,340.36,303.73Z"/><path d="M352.15,297.39a31.36,31.36,0,0,0,1.3-6.93l2.26.29a35.56,35.56,0,0,1-1.2,7.46Zm7.92-1.67a24.68,24.68,0,0,0-1.2-3.59V310h-3.13V285.22h3.13v5l1.43-.61a29.55,29.55,0,0,1,2.08,5Zm10.81,4.3a11.85,11.85,0,0,0,6.8,7.12,12.55,12.55,0,0,0-2.23,3c-3.32-1.57-5.45-4.26-6.91-7.82a14.44,14.44,0,0,1-6.75,7.87,13.74,13.74,0,0,0-2.23-2.45A11.14,11.14,0,0,0,366,300h-5.29v-3h5.71c.08-.85.08-1.65.08-2.45v-2.41H362v-2.93h4.57v-4h3.19v4h5.76V297h1.68v3Zm-1.17-5.42c0,.8,0,1.59-.08,2.42h2.76v-4.86h-2.68Z"/><path d="M385.65,304.62c.54.29,1.12.66,2,1.06,1.78.9,4.19,1.09,7.06,1.09a80.64,80.64,0,0,0,9.27-.59,13.33,13.33,0,0,0-.82,3.09c-1.78.13-6,.29-8.55.29-3.19,0-5.5-.29-7.47-1.3-1.25-.59-2.12-1.33-2.79-1.33-.93,0-2.28,1.54-3.48,3.05l-1.94-2.71a13.31,13.31,0,0,1,3.69-2.57v-7.07h-3.34v-2.92h6.37Zm-2.07-12.28a27.13,27.13,0,0,0-4.09-4.51l2.39-1.73a29.33,29.33,0,0,1,4.23,4.3Zm9.72-2.18h-6.56v-2.63h6.56v-2.25h3.09v2.25h6.93v2.63h-6.93v1.44h6.05v7.15h-5a39.07,39.07,0,0,1,5.79,4.06L401.33,305a30.45,30.45,0,0,0-4.94-3.82v4.64H393.3V301a16.59,16.59,0,0,1-5.2,4.39,11.94,11.94,0,0,0-2-2.42,14.78,14.78,0,0,0,5.81-4.22h-4.43V291.6h5.81Zm-2.89,6.19h2.89V294h-2.89Zm6-2.33v2.33h3V294Z"/><path d="M405.37,309.24c2.07-.67,3.27-1.81,3.43-3.22a.89.89,0,0,1-.29,0,2.36,2.36,0,0,1-2.53-2.36,2.42,2.42,0,0,1,2.6-2.39c1.89,0,2.87,1.4,2.87,3.63,0,3-1.94,5.48-5.23,6.46Z"/><path d="M424.05,289.79a19.18,19.18,0,0,1-2.52,3.19,15.4,15.4,0,0,0-2.58-1.67,15.79,15.79,0,0,0,4.14-6.25l3,.8c-.19.45-.4.9-.61,1.38h5.87v2.55h-3.19a11.91,11.91,0,0,1,1,2L426.41,293a18.22,18.22,0,0,0-1.46-3.19Zm-3.56,6.11h3.08V310h-3.08Zm3.67-3.77a16.83,16.83,0,0,1,2.94,3.19L424.63,297a15.57,15.57,0,0,0-2.79-3.34ZM436.48,307h-10v-9.57h10Zm5.87-.35c0,1.52-.32,2.23-1.33,2.68a11.52,11.52,0,0,1-4.4.43,12.34,12.34,0,0,0-.93-2.68,29.8,29.8,0,0,0,3,.05c.42,0,.56-.11.56-.48V295.93H427.5v-2.79h14.85Zm-13.17-6.91v1.39h4.51v-1.39Zm4.51,4.95v-1.44h-4.51v1.44Zm9.57-17.46v2.58h-3.48a13.41,13.41,0,0,1,1.06,1.91L438.13,293a14.81,14.81,0,0,0-1.73-3.19h-1.27a15.33,15.33,0,0,1-2,2.81,14.77,14.77,0,0,0-2.57-1.67,13.39,13.39,0,0,0,3.32-5.82l3,.69c-.16.46-.31.93-.5,1.41Z"/><path d="M469,298.72s-.05.85-.11,1.25c-.55,5.74-1.16,8.15-2,9a3.11,3.11,0,0,1-2.15,1,30.51,30.51,0,0,1-3.32.05,6,6,0,0,0-.83-2.68c1.12.1,2.15.1,2.63.1a1.2,1.2,0,0,0,1-.31c.5-.48,1-2.1,1.4-5.69h-2.28a21.88,21.88,0,0,1-6.08,8.74,17.66,17.66,0,0,0-2.5-1.94,16.2,16.2,0,0,0,5.31-6.8h-2.28a24.33,24.33,0,0,1-7.92,8,16.71,16.71,0,0,0-2.34-2.26,18.49,18.49,0,0,0,6.7-5.71h-2.31a25.49,25.49,0,0,1-4.12,3.22,21.17,21.17,0,0,0-2.39-2.24,19.3,19.3,0,0,0,6.37-5.36h-2.33V286.34h17.48V297.1H455.38c-.35.56-.72,1.09-1.12,1.62Zm-16.5-8.18h11.16v-1.65H452.45Zm0,4h11.16V292.9H452.45Z"/><path d="M471.8,309.24c2.07-.67,3.27-1.81,3.43-3.22a.92.92,0,0,1-.3,0,2.35,2.35,0,0,1-2.52-2.36,2.41,2.41,0,0,1,2.6-2.39c1.89,0,2.87,1.4,2.87,3.63,0,3-1.94,5.48-5.23,6.46Z"/><path d="M279.9,314.2a51.55,51.55,0,0,1-2.15,5.21V338h-3V324.72c-.61.91-1.25,1.73-1.86,2.47a19.33,19.33,0,0,0-1.7-3.32,30,30,0,0,0,5.76-10.54ZM291.4,326c.53,4.76,1.33,8,2.15,8,.37,0,.61-1.14.77-3.24a8.19,8.19,0,0,0,2.21,1.73c-.64,4.3-1.91,5.31-3,5.31-2.89,0-4.41-4.65-5.18-11.85H283.3v8.21l2.76-.61a19.36,19.36,0,0,0,.05,2.68c-4.38,1.23-5.28,1.57-5.81,1.92a7.91,7.91,0,0,0-1-2.53,1.75,1.75,0,0,0,1.09-1.72V316.09h0l0,0a67.52,67.52,0,0,0,12.59-2.85l2.55,2.58a47.29,47.29,0,0,1-4.67,1.28c.05,2.1.16,4.14.29,6h4.75V326Zm-3.29-2.92c-.11-1.67-.22-3.51-.3-5.37-1.48.3-3,.54-4.51.75v4.62Zm-.32,8.26a56,56,0,0,1,2.36,5.53l-2.36.87a44,44,0,0,0-2.21-5.68Z"/><path d="M321.13,322.47a30.77,30.77,0,0,1-4.57,9.11c.77,1.91,1.63,3,2.48,3,.63,0,.95-1.33,1.08-4.65a8.81,8.81,0,0,0,2.69,1.78c-.51,4.91-1.57,6.08-4,6.08-1.86,0-3.32-1.33-4.49-3.51a22.28,22.28,0,0,1-4.49,3.62,21.31,21.31,0,0,0-2.28-2.61,20.34,20.34,0,0,0,5.42-4.3,54.64,54.64,0,0,1-1.84-10.71h-7.7v2.85H310s0,.82,0,1.19c-.08,5.58-.24,7.95-.85,8.72a2.47,2.47,0,0,1-1.83,1.06,22.82,22.82,0,0,1-3.05.08,7.27,7.27,0,0,0-.88-2.95c.95.08,1.86.11,2.28.11a.88.88,0,0,0,.8-.32c.27-.38.37-1.65.45-5h-3.45c-.11,3.88-.67,9.06-2.84,12.3a13.81,13.81,0,0,0-2.69-2.15c2-3.19,2.21-7.81,2.21-11.26v-7.76h10.84c-.06-1.3-.11-2.6-.11-3.93h3.32c0,1.33,0,2.63.05,3.93h4.07a31.74,31.74,0,0,0-3.4-2.31l1.91-1.89a22.86,22.86,0,0,1,4.33,2.84l-1.27,1.36h2.76v3.13h-8.21a63.05,63.05,0,0,0,1.06,7.28A26.8,26.8,0,0,0,318,321.7Z"/><path d="M342,321.59a22.56,22.56,0,0,0,7.46,9.62,12.89,12.89,0,0,0-2.5,2.76,16.85,16.85,0,0,1-2.81-2.74v2.31h-5.47V338H335.3v-4.49h-5.58v-2.36a20.61,20.61,0,0,1-3,2.92,14.63,14.63,0,0,0-2.31-2.58c3.08-2.12,5.79-5.92,7.44-9.93h-6.51v-3.21h10v-5.13h3.35v5.13h10v3.21Zm-6.67,8.74v-8.74h-.19a32.92,32.92,0,0,1-4.7,8.74Zm8.07,0a33.63,33.63,0,0,1-4.62-8.74h-.1v8.74Z"/><path d="M370.21,325.39a19.3,19.3,0,0,1-4.2,6.24,23.75,23.75,0,0,0,9.65,3.4,11.94,11.94,0,0,0-1.92,2.84,24,24,0,0,1-10.2-4.17A29.46,29.46,0,0,1,353.4,338a18.77,18.77,0,0,0-1.92-2.82,26.75,26.75,0,0,0,9.73-3.61,21.27,21.27,0,0,1-3.88-6.11l2.84-.88a15.21,15.21,0,0,0,3.4,5.1,13.67,13.67,0,0,0,3.45-5.23Zm-9-4.33a28,28,0,0,1-7,6.19,22.78,22.78,0,0,0-2.49-2.31,21.33,21.33,0,0,0,6.48-5.05Zm13.95-1.41h-23.3v-3.08h10.36a21.7,21.7,0,0,0-1.35-2.63l3-1.06a21.39,21.39,0,0,1,1.93,3.66l-.08,0h9.41Zm-6.62.08a41.51,41.51,0,0,1,6.83,5.6l-2.71,2.05a40.36,40.36,0,0,0-6.61-5.87Z"/><path d="M401.14,326.72s-.05.85-.11,1.24c-.55,5.74-1.17,8.16-2,9a3.11,3.11,0,0,1-2.15,1,30.51,30.51,0,0,1-3.32.05,5.94,5.94,0,0,0-.83-2.68c1.12.1,2.15.1,2.63.1a1.14,1.14,0,0,0,1-.32c.51-.47,1-2.09,1.41-5.68h-2.28a21.8,21.8,0,0,1-6.09,8.74,17.55,17.55,0,0,0-2.49-1.94,16.28,16.28,0,0,0,5.31-6.8h-2.28a24.52,24.52,0,0,1-7.92,8,17.27,17.27,0,0,0-2.34-2.26,18.67,18.67,0,0,0,6.7-5.71H384a24.92,24.92,0,0,1-4.11,3.21,22,22,0,0,0-2.39-2.23,19.52,19.52,0,0,0,6.37-5.36h-2.34V314.34H399V325.1H387.56q-.51.82-1.11,1.62Zm-16.5-8.19H395.8v-1.64H384.64Zm0,4H395.8V320.9H384.64Z"/><path d="M309.32,164.28c1.39,0,1.68-.79,1.93-5.64a20.08,20.08,0,0,0,6.59,2.77c-.74,7.43-2.63,9.46-7.78,9.46h-5.55c-6.19,0-8.07-2-8.07-8.32V154h-4c-1.24,7.88-4.11,14.17-16.69,17.84a20.76,20.76,0,0,0-4.12-6.25c10.41-2.47,12.24-6.54,13.13-11.59h-8.12V134h6.69a50,50,0,0,0-3.42-6.88l6.44-2.63a40.21,40.21,0,0,1,4.61,8.62l-2.08.89h8.72a50.87,50.87,0,0,0,4.8-9.36l7.68,2.23c-1.49,2.48-3,5-4.51,7.13h6.69v20H304v8.37c0,1.69.25,1.88,1.78,1.88ZM284.1,147.69h20.26v-7.34H284.1Z"/><path d="M355.75,157.94a23.41,23.41,0,0,0,12.68,7.83,27.94,27.94,0,0,0-4.36,5.6,25.84,25.84,0,0,1-12.78-9.66c-2.58,3.62-6.69,7.13-13.13,10.11a25.72,25.72,0,0,0-4.91-5c6.74-2.62,10.51-5.75,12.54-8.87H336V152.1l-3.67,1v10.35c0,3.22-.49,5.11-2.23,6.24s-4.11,1.49-7.38,1.44a29.15,29.15,0,0,0-1.88-6.93c1.53,0,3.22,0,3.81,0s.8-.19.8-.84V155l-4,1L320,149.12c1.59-.29,3.42-.69,5.46-1.18V140.3h-4.71v-6.58h4.71v-9h6.88v9h3.82v2.42a30.15,30.15,0,0,0,8.72-11.29l7.08,1.33a23.21,23.21,0,0,1-1.34,2.63h8l1.09-.3,4.76,3.12a52.14,52.14,0,0,1-3.87,5.8h4.26V151.9h2.58v6Zm-18.68-6.14-.35.1h2.08V140.35a22.17,22.17,0,0,0-2.62-3v2.92h-3.82v6l3.77-.94Zm9.76-17c-.69.89-1.44,1.78-2.18,2.67h8.07c.65-.84,1.24-1.78,1.84-2.67Zm1.24,17.14a21.19,21.19,0,0,0,.25-3.42v-5.7h-2.68v9.12Zm8.07-9.12-.15.15-.19-.15h-.45v5.8a25.67,25.67,0,0,1-.2,3.32h2.48v-9.12Z"/><path d="M376.71,164.73a5,5,0,0,1-5.3-4.95c0-3,2.47-5,5.5-5,3.91,0,6,2.88,6,7.43,0,5.75-3.81,10.61-10.5,12.44l-1.83-4.76c3.81-1,6.09-3.07,6.49-5.2Z"/><path d="M282.51,194.45c0,8.52-.79,21.41-5.79,29.33a28.39,28.39,0,0,0-6.34-3.61c4.7-7.29,5.05-18.14,5.05-25.72V180.23c12-.44,25.27-1.68,33.54-3.56l5.6,5.69c-3.67.8-7.63,1.49-11.84,2-.05,1-.1,2.13-.2,3.22H317.3v6.24H301.94c-.1.94-.2,1.88-.35,2.72h13.28v18.09h-7.63v-11.5H291.53v11H284.3V196.58h10.3c0-.84.1-1.78.15-2.72H282.51Zm21,13.78c0,4.85-2.48,11.69-18.63,16.1a27,27,0,0,0-5-5.5c15.11-3.22,16.05-7.93,16.05-10.8v-3.42h7.58Zm-8.47-23c-4.21.39-8.42.69-12.54.89v1.49H295Zm9.61,28.88c4.41,1.59,9.91,4,13.38,5.6L313,224.48a112.8,112.8,0,0,0-13.32-6.15Z"/><path d="M337.37,204.91l-4.51,1.14v10.6c0,3.17-.5,4.85-2.28,5.89s-4.21,1.29-7.53,1.29a26,26,0,0,0-1.89-6.39c1.54.05,3.37.05,4,.05s.84-.2.84-.84v-8.87l-3.91.94-1.79-6.89c1.64-.29,3.62-.69,5.7-1.13V193h-5.05v-6.64H326v-9.12h6.89v9.12h4.36V193h-4.36v6.14l3.61-.84ZM366,180v29.77h-7.33v-2.13h-3.17v16.7h-6.79v-16.7h-3.37v2.13h-7V180Zm-20.66,6.54v4h3.37v-4Zm3.37,14.61V197h-3.37v4.11Zm10-14.61h-3.17v4h3.17Zm0,14.61V197h-3.17v4.11Z"/><path d="M376.71,217.34a5,5,0,0,1-5.3-5c0-3,2.47-5,5.5-5,3.91,0,6,2.88,6,7.44,0,5.74-3.81,10.6-10.5,12.43l-1.83-4.76c3.81-1,6.09-3.07,6.49-5.2Z"/><path d="M284.94,272.58a38.27,38.27,0,0,0-3.52-5.8,19.38,19.38,0,0,1-7.33,9.57,21.2,21.2,0,0,0-3.57-3.82c6.94-4.26,7.68-12.53,7.68-18.28V240.82h5.11V254.3a36.55,36.55,0,0,1-1.69,11.94l3.62-2.43a38.6,38.6,0,0,1,3.91,5.75Zm-7.78-9.51h-5V232.2H289.5v30.57h-5.15V238.1h-7.19Zm33.69.64a28,28,0,0,0,6.79,7.38,22.33,22.33,0,0,0-4.11,4.51,28.33,28.33,0,0,1-4.46-5.3v6.54h-5.15V263.71h-1.84v13.08h-5.15v-6.44a26,26,0,0,1-4.8,5.65,25.48,25.48,0,0,0-4.21-4.71,26.13,26.13,0,0,0,7.08-7.58h-2.82v-5.4h4.75v-1.58h-6.59v-5.45h6.59v-1.49h-4.56v-5.4h4.56v-1.78h-5.84v-5.5h5.05a53.67,53.67,0,0,0-2.68-4.81l4.86-2.23a52.67,52.67,0,0,1,3.72,6.29l-1.49.75h4.11a42.92,42.92,0,0,0,3.27-7.34l6.14,2.28c-1.28,1.69-2.47,3.47-3.56,5.06H317v5.5h-7.93v1.78h6.64v6.89h1.63v5.45h-1.63v7Zm-8.77-19.32h1.84v-1.78h-1.84Zm0,6.89h1.84v-1.49h-1.84Zm1.84,7v-1.58h-1.84v1.58Zm5.15-8.52v1.49h1.78v-1.49Zm1.78,6.94h-1.78v1.58h1.78Z"/><path d="M341.63,267.87v9h-7v-7.73c-4.51.75-8.87,1.49-12.48,2.08l-1.39-6.83,3-.35v-26h-2.38v-6.39h22.79v6.39h-2.52v23.63l3.66-.5.35,6Zm-11-29.82v4.06h4v-4.06Zm0,14.51h4v-4.41h-4Zm4,10.11v-4.06h-4v4.56Zm31.91-26.9c-1,11.1-3.17,20-6.69,27A27.43,27.43,0,0,0,368,271a26.58,26.58,0,0,0-4.8,5.6,31.65,31.65,0,0,1-7.48-7.53,36.07,36.07,0,0,1-8.52,7.93,24.3,24.3,0,0,0-4.51-5.4,27.07,27.07,0,0,0,9.21-9.17c-2.82-5.94-4.7-13-6.09-20.91H344.6v-6.73h16.25l1.19-.2Zm-14.32,5.79a69.14,69.14,0,0,0,3.57,13.13,63.49,63.49,0,0,0,3.32-13.13Z"/><path d="M388.9,232.5a77.54,77.54,0,0,1-4.26,8.57v35.77h-7.48V252a57.22,57.22,0,0,1-4.32,4.61,51.3,51.3,0,0,0-4-7.44,52.1,52.1,0,0,0,13.13-19Zm13.87,18.63c1.19,9.86,3.42,16.35,6.69,16.89,1,.1,1.49-2.23,1.78-7.53a27.29,27.29,0,0,0,5.9,4.16c-1.39,10.21-4.46,12.34-7.33,12.14-8.58-.89-12.44-9.66-14.22-24.62l-8.53,1.19-1-6.94,8.92-1.24c-.35-4.41-.54-9.26-.69-14.51h7.33c.05,4.8.2,9.36.5,13.52l13.77-1.88,1,6.84Zm7.58-9.57a39.18,39.18,0,0,0-6.09-8.37l5.45-3.32a39.11,39.11,0,0,1,6.49,8Z"/><path d="M461.78,263.91c0,3.32-.59,5.35-2.87,6.49s-5,1.29-8.47,1.24a27.63,27.63,0,0,0-2.38-7.23c1.83.09,4.46.09,5.15.09s1-.19,1-.79V252.32h-7.53v24.57h-7.53V252.32H432v19.17h-7.44V245.28h14.57v-5.7c-5.45.2-10.9.3-16.05.3a24.27,24.27,0,0,0-1.54-6.44c13.92-.15,29.28-1,40.18-2.58l2.73,6.59c-5.4.8-11.5,1.34-17.79,1.74v6.09h15.11Z"/><path d="M109.65,374.74a56.45,56.45,0,0,0,13.46,13.78,58.91,58.91,0,0,0-9.49,10.64h6.67v12.42h-34l-1.36,5.12h31.84s-.21,3.44-.42,5.22c-.94,13.56-2.3,20.45-5.43,23.58s-6.78,4.07-12.21,4.28a180.74,180.74,0,0,1-18.79,0c-.31-4-2.61-9.29-5.53-12.94,7.62.63,16.18.73,19.83.73,2.3,0,3.86,0,5.22-.83s2.09-3.45,2.61-7.83H67.17c1.77-4.8,3.76-11.27,5.32-17.33H63.41V399.16h1.78a101.83,101.83,0,0,0-4.28-10.33v1.25H53.6v9.19H61v13H53.6v11.38l10.54-2.82,2,12.84c-13.68,4.17-28.5,8.45-40.08,11.79L22.6,431.31l3.66-.84V396.34H37.63v31.42l3-.73V390.08H26.15V354H60.91v30.16a56.16,56.16,0,0,0,10.54-9.39H63.73V361.8h16.7a71.8,71.8,0,0,0,4.48-10.44l13,3.45c-.84,2.4-1.77,4.69-2.71,7h25.36v12.94Zm-71.49,2.71H48.28V366.7H38.16Zm74.2,21.71a64.13,64.13,0,0,1-9.29-10.75v7H76.25v-5a67.19,67.19,0,0,1-10.33,8.76Zm-23.9-24.42a100.15,100.15,0,0,1-6.16,8.77H99.84a79.13,79.13,0,0,1-4.7-8.77Z"/><path d="M178.33,426.72c1.67.83,3.44,2.08,5.74,3.34,5.22,3.13,11.9,4,19.73,4a187,187,0,0,0,23.48-1.67c-1.36,4-3.24,11.27-3.34,15-5,.42-13.67.73-20.25.73-8.87,0-15.13-1.67-21-5-3.65-2.19-6.88-4.69-8.76-4.69-2.51,0-6.47,6.57-9,11.48l-9.18-14.3c.73-.73,1.56-1.46,2.29-2.19-14,10.85-16.91,13.46-18.58,15.76a39.79,39.79,0,0,0-7-9.61,15.39,15.39,0,0,0,5.22-11.89v-14h-8.45V400.94h8.45v-8.87H134v-6.58c-.62.73-1.15,1.46-1.77,2.09a79,79,0,0,0-6.47-13.88c4.8-5.74,8.56-14.41,10.75-23.17l12.42,3.55c-.52,1.77-1.05,3.65-1.67,5.42h12.94v12.94H141.9a74,74,0,0,1-3.75,7h19.41v12.63H151v8.87h9.81v12.73H151V424l6.47-4.8a53.6,53.6,0,0,0,4.17,11.38c1-.73,2.09-1.46,3.13-2.09V396.76h-5.32V383.09h18.89Zm-13.25-48.43a180.8,180.8,0,0,0-4.91-23l12.52-3.55a205.16,205.16,0,0,1,5.54,22.44Zm26.82,20.87c-3.65,0-7.83.63-8.77,1.67a109,109,0,0,0-4.28-12.1c2-.73,3.45-3.14,5-7,.52-1.35,1.46-4.17,2.51-7.82h-6.16V361.38h9.18c.73-3.76,1.36-7.72,1.78-11.48l14,2.51c-.62,2.92-1.35,5.94-2.19,9H225.4v12.53H199c-1.57,4.59-3.34,9-5.12,12.94h5V376.62h13.05v10.23h11.69l-.11,12.31H211.94v6.89H225.3v12.84H211.94v12.73H198.89V418.89H181.57V406.05h17.32v-6.89Z"/><path d="M262.77,355.54a127.39,127.39,0,0,1-24.42,26.19,89.47,89.47,0,0,0-7.83-11.06c7-5.11,14.93-13.78,18.89-20.35Zm3.13,20.77a111.28,111.28,0,0,1-8.24,13.77v59.49H242.84V407.62c-1.36,1.35-2.72,2.5-4.07,3.65a94.79,94.79,0,0,0-7.62-14.09,78.51,78.51,0,0,0,21.6-25.68Zm14.61,27.34c-4-3.44-12.62-8.35-19-11.38l8-10.85c6.15,2.5,15,6.78,19.41,10.12Zm-18.26,33a311.16,311.16,0,0,0,21-31.94l10.75,10c-6.06,10.75-12.94,21.82-19.62,31.84Zm19.93-60.95c-3.44-3.55-11.16-8.77-16.9-12l9-10.13c5.64,2.82,13.57,7.41,17.54,10.86Zm47.49,21H320V433.5c0,6.68-.94,10.75-5.12,13.15s-9.39,2.61-16.07,2.61a55.6,55.6,0,0,0-4.07-14.72c3.44.11,7.62.11,9,.11s1.67-.31,1.67-1.46V396.66H291.58V382.78h38.09Zm-1.35-27.35H293.46V355.64h34.86Z"/><path d="M433.21,431.83v14.82h-95V431.83h39.45V413.88h-27V399.27h27v-16h-20a92.39,92.39,0,0,1-9.08,14.19,101.18,101.18,0,0,0-13.67-9.18c8-8.56,14.71-22.86,18.26-36.95l15.76,3.55a130.48,130.48,0,0,1-4.59,13.57h13.36V350.32h15.86v18.16h34.13V383.3H393.55v16h30v14.61h-30v17.95Z"/><path d="M444.18,401.35h41.43v47.7H470.48v-4.59h-12v5h-14.3Zm78-7.41H458.06V354.28h64.08Zm-63.66,21.92V430h12V415.86Zm48.11-47.07H472.67v10.75h33.92Zm28.91,32.56v47.7H520.26v-4.59H507.53v5H493V401.35ZM520.26,430V415.86H507.53V430Z"/></g></g></g></svg>