<svg xmlns="http://www.w3.org/2000/svg" xmlns:xlink="http://www.w3.org/1999/xlink" viewBox="0 0 1053.9 498.48"><defs><style>.cls-1{fill:none;}.cls-2{isolation:isolate;}.cls-3{fill:#cacaca;}.cls-4{clip-path:url(#clip-path);}.cls-5{fill:#999;}.cls-6{fill:#9e9e9e;}.cls-7{fill:#a3a3a3;}.cls-8{fill:#a8a8a8;}.cls-9{fill:#adadad;}.cls-10{fill:#b3b3b3;}.cls-11{fill:#b8b8b8;}.cls-12{fill:#bdbdbd;}.cls-13{fill:#c2c2c2;}.cls-14{fill:#c7c7c7;}.cls-15{fill:#949494;}.cls-16{fill:#8f8f8f;}.cls-17{fill:#8a8a8a;}.cls-18{fill:#858585;}.cls-19{fill:#fff;}.cls-20{fill:#fdcf23;}.cls-21{clip-path:url(#clip-path-2);}.cls-22{fill:#cbcbcb;}.cls-23{fill:#fd7706;}.cls-24{fill:#c9c9c9;}.cls-25{clip-path:url(#clip-path-3);}.cls-26{fill:#ccc;}</style><clipPath id="clip-path"><path class="cls-1" d="M689.8,325.86l.28,13.48c.85,39.39-33.05,79.5-101.63,110.68C453.41,511.41,235,515,100.68,457.93,34.57,429.86,1.13,392.36.31,354.19L0,340.72c.82,38.17,34.26,75.67,100.37,103.74,134.35,57,352.73,53.48,487.77-7.91C656.74,405.37,690.64,365.26,689.8,325.86Z"/></clipPath><clipPath id="clip-path-2"><path class="cls-1" d="M357.55,260.55l2.26,56.09c.09,2.15-1.73,4.37-5.43,6.09-7,3.26-18.11,3.49-24.79.52-3.15-1.4-4.75-3.27-4.83-5.2L322.5,262c.08,1.93,1.68,3.79,4.83,5.2,6.68,3,17.78,2.74,24.79-.52C355.82,264.93,357.64,262.71,357.55,260.55Z"/></clipPath><clipPath id="clip-path-3"><path class="cls-1" d="M357.63,82.11l2.09,48.35c.1,2.08-1.69,4.24-5.33,5.93-7,3.23-18.06,3.54-24.79.68-3.2-1.36-4.84-3.19-4.92-5.09l-2.1-48.35c.08,1.9,1.72,3.73,4.93,5.09,6.72,2.86,17.82,2.55,24.78-.68C355.93,86.35,357.72,84.19,357.63,82.11Z"/></clipPath></defs><g id="Layer_2" data-name="Layer 2"><g id="Background"><g class="cls-2"><ellipse class="cls-3" cx="344.91" cy="333.29" rx="344.97" ry="151.57" transform="translate(-7.09 7.49) rotate(-1.23)"/><g class="cls-2"><g class="cls-4"><g class="cls-2"><path class="cls-5" d="M689.8,325.86l.28,13.48a67.26,67.26,0,0,1-.76,11.66L689,337.53a68.32,68.32,0,0,0,.77-11.67"/><path class="cls-6" d="M689,337.53l.29,13.47a72.5,72.5,0,0,1-2.66,11.25l-.29-13.47A72.77,72.77,0,0,0,689,337.53"/><path class="cls-7" d="M686.37,348.78l.29,13.47a81.55,81.55,0,0,1-4.41,10.92L682,359.7a82.09,82.09,0,0,0,4.41-10.92"/><path class="cls-8" d="M682,359.7l.29,13.47a97.09,97.09,0,0,1-6.2,10.78l-.29-13.47A97.09,97.09,0,0,0,682,359.7"/><path class="cls-9" d="M675.76,370.48l.29,13.47a114.68,114.68,0,0,1-8.13,10.8l-.28-13.47a116.29,116.29,0,0,0,8.12-10.8"/><path class="cls-10" d="M667.64,381.28l.28,13.47a143.39,143.39,0,0,1-10.41,11l-.29-13.48a143.48,143.48,0,0,0,10.42-11"/><path class="cls-11" d="M657.22,392.3l.29,13.48q-6.13,5.85-13.42,11.53l-.29-13.47q7.28-5.68,13.42-11.54"/><path class="cls-12" d="M643.8,403.84l.29,13.47q-8.21,6.38-17.87,12.51l-.29-13.47q9.66-6.12,17.87-12.51"/><path class="cls-13" d="M625.93,416.35l.29,13.47a294.11,294.11,0,0,1-27.6,15.38l-.29-13.47a296.39,296.39,0,0,0,27.6-15.38"/><path class="cls-14" d="M598.33,431.73l.29,13.47q-4.95,2.44-10.17,4.82c-39.33,17.88-85.73,30.85-135.07,38.85l-.29-13.47c49.34-8,95.74-21,135.07-38.85q5.22-2.39,10.17-4.82"/><path class="cls-13" d="M453.09,475.4l.29,13.47c-13.1,2.13-26.41,3.9-39.85,5.32l-.29-13.47c13.44-1.42,26.75-3.19,39.85-5.32"/><path class="cls-12" d="M413.24,480.72l.29,13.47q-16,1.69-32.24,2.72L381,483.44q16.22-1,32.24-2.72"/><path class="cls-11" d="M381,483.44l.29,13.47q-14.35.91-28.79,1.3l-.29-13.48q14.43-.37,28.79-1.29"/><path class="cls-10" d="M352.21,484.73l.29,13.48q-13.39.35-26.78.25L325.43,485q13.38.11,26.78-.26"/><path class="cls-9" d="M325.43,485l.29,13.47q-12.8-.09-25.52-.6l-.29-13.47q12.72.51,25.52.6"/><path class="cls-8" d="M299.91,484.39l.29,13.47q-12.42-.5-24.73-1.4L275.18,483q12.3.9,24.73,1.4"/><path class="cls-7" d="M275.18,483l.29,13.47q-12.24-.88-24.31-2.18l-.29-13.47q12.08,1.29,24.31,2.18"/><path class="cls-6" d="M250.87,480.81l.29,13.47q-12.22-1.3-24.23-3l-.29-13.47q12,1.71,24.23,3"/><path class="cls-5" d="M226.64,477.79l.29,13.47q-12.45-1.77-24.58-4l-.29-13.48q12.13,2.22,24.58,4"/><path class="cls-15" d="M202.06,473.8l.29,13.48q-13-2.37-25.53-5.24l-.28-13.47q12.54,2.87,25.52,5.23"/><path class="cls-16" d="M176.54,468.57l.28,13.47q-14-3.21-27.46-7.05l-.29-13.47q13.41,3.84,27.47,7.05"/><path class="cls-17" d="M149.07,461.52l.29,13.47q-16.65-4.77-32.17-10.51L116.9,451c10.33,3.83,21.08,7.33,32.17,10.51"/><path class="cls-18" d="M116.9,451l.29,13.47q-8.44-3.14-16.51-6.55C34.57,429.86,1.13,392.36.31,354.19L0,340.72c.82,38.17,34.26,75.67,100.37,103.74q8.06,3.42,16.51,6.55"/></g></g></g></g><g class="cls-2"><path class="cls-19" d="M356,318.4a31.72,31.72,0,0,0-10-2.19c0-1.5-.07-3-.1-4.49a31.94,31.94,0,0,1,10,2.18c3.74,1.59,5.62,3.71,5.67,5.86l.1,4.49C361.61,322.1,359.72,320,356,318.4Z"/><path class="cls-19" d="M328.43,318.84c-3.88,1.76-5.79,4-5.74,6.25l-.1-4.49c0-2.22,1.87-4.49,5.74-6.25,4.77-2.17,11.38-3.06,17.52-2.63,0,1.49.07,3,.1,4.49C339.81,315.78,333.19,316.67,328.43,318.84Z"/><path class="cls-20" d="M391.24,302.37a87.42,87.42,0,0,0-10.82-3.71c0-1.5-.07-3-.1-4.49a85.25,85.25,0,0,1,10.82,3.71c13.24,5.62,19.94,13.15,20.1,20.82l.1,4.49C411.18,315.52,404.48,308,391.24,302.37Z"/><path class="cls-20" d="M293.36,304c-13.73,6.24-20.52,14.29-20.35,22.2l-.1-4.49c-.17-7.91,6.62-16,20.36-22.2,23.67-10.76,60.25-12.65,87.05-5.3,0,1.49.07,3,.1,4.49C353.61,291.31,317,293.2,293.36,304Z"/><path d="M409.24,318.74l.1,4.49c-.16-7.44-6.67-14.75-19.53-20.21-26.13-11.09-68.76-10.4-95,1.54-13.34,6.07-19.94,13.88-19.77,21.56l-.1-4.49c-.17-7.68,6.43-15.5,19.77-21.56,26.27-11.94,68.9-12.64,95-1.54C402.58,304,409.08,311.3,409.24,318.74Z"/><path d="M643.6,313.66l.1,4.49c-.75-34.78-31.83-66.92-87.75-90.66-56.81-24.11-132.45-36.67-213-35.37S186.6,208.44,129.5,234.4s-88.65,59.76-88.86,95.16c0,.55,0,1.1,0,1.64l-.1-4.49c0-.54,0-1.09,0-1.64.21-35.4,31.76-69.2,88.86-95.16s132.91-41,213.46-42.28S499,198.89,555.85,223C611.78,246.74,642.85,278.88,643.6,313.66Z"/><path class="cls-20" d="M643.7,318.15c0,.54,0,1.09,0,1.64l-.1-4.49c0-.55,0-1.1,0-1.64Z"/><path d="M644.6,313.64l.1,4.49c0,.55,0,1.09,0,1.64l-.1-4.49C644.62,314.73,644.61,314.19,644.6,313.64Z"/><path class="cls-19" d="M275.2,328.09a11.83,11.83,0,0,1-.19-2l-.1-4.49a13,13,0,0,0,.19,2C275.13,325.1,275.16,326.59,275.2,328.09Z"/><path class="cls-20" d="M643.6,323.14c0-1.5-.07-3-.1-4.49.07-1.12.11-2.24.11-3.35l.1,4.49C643.7,320.91,643.67,322,643.6,323.14Z"/><path class="cls-19" d="M275.2,328.09c0-.23,0-.45,0-.68v-.24l0-.92-.06-2.65a14.76,14.76,0,0,0,1,3.31c0,1.49.07,3,.1,4.49A14.26,14.26,0,0,1,275.2,328.09Z"/><path class="cls-19" d="M409.34,323.23a14.1,14.1,0,0,1-1.26,6l-.09-4.49a14.15,14.15,0,0,0,1.25-6Z"/><path d="M361.56,319.76l.1,4.49c0,2.23-1.87,4.5-5.75,6.26-7.63,3.47-20,3.67-27.55.45-3.74-1.59-5.63-3.71-5.67-5.87l-.1-4.49c.05,2.16,1.94,4.28,5.67,5.87,7.59,3.22,19.93,3,27.56-.45C359.69,324.26,361.61,322,361.56,319.76Z"/><path class="cls-19" d="M346.79,354.05c0-1.49-.07-3-.1-4.49,15.58-.74,30.86-3.84,42.78-9.26,9.85-4.48,16-9.91,18.52-15.54l.09,4.49c-2.49,5.63-8.66,11.07-18.51,15.54C377.65,350.21,362.37,353.31,346.79,354.05Z"/><path class="cls-19" d="M294.53,346.34c-9.8-4.16-15.9-9.4-18.33-14.94,0-1.5-.06-3-.1-4.49,2.43,5.54,8.54,10.78,18.34,14.94,14.28,6.06,33.48,8.6,52.25,7.71,0,1.5.07,3,.1,4.49C328,354.94,308.81,352.4,294.53,346.34Z"/><path d="M411.24,318.69l.1,4.49c.17,7.91-6.62,16-20.36,22.21-27.05,12.3-71,13-97.86,1.59-13.25-5.62-19.95-13.15-20.11-20.82l-.1-4.49c.16,7.67,6.86,15.2,20.11,20.82,26.91,11.42,70.81,10.71,97.86-1.59C404.62,334.66,411.41,326.6,411.24,318.69Z"/><path class="cls-20" d="M601.45,388c0-1.5-.06-3-.1-4.49,26.15-19.7,40.73-41.87,42.15-64.81,0,1.5.07,3,.1,4.49C642.18,346.08,627.6,368.25,601.45,388Z"/><path class="cls-20" d="M460.58,444.6c-.05-2.08-.07-3.23-.13-4.49,34.75-7.12,66.7-17.11,94.29-29.65,18.2-8.27,33.8-17.34,46.61-27,0,1.5.07,3,.1,4.49-12.82,9.66-28.42,18.73-46.61,27C527.26,427.49,495.31,437.47,460.58,444.6Z"/><path class="cls-20" d="M460.58,444.6l-3.66.73c0-.84,0-1.69-.05-2.54,0-.65,0-1.3,0-2l3.62-.73C460.51,441.37,460.53,442.38,460.58,444.6Z"/><path class="cls-20" d="M128.41,421.86C72.48,398.12,41.4,366,40.65,331.2l-.1-4.49c.75,34.79,31.83,66.92,87.76,90.66,56.81,24.12,132.44,36.68,213,35.37a651.87,651.87,0,0,0,115.53-11.9c0,.85,0,1.69.05,2.54,0,.65,0,1.3,0,1.95a651.86,651.86,0,0,1-115.52,11.9C260.85,458.54,185.21,446,128.41,421.86Z"/><path d="M644.61,315.28c-.21,35.52-31.87,69.43-89.16,95.48S422.1,451.87,341.3,453.18s-156.71-11.3-213.7-35.49-88.27-57.08-88.06-92.6,31.87-69.43,89.16-95.48,133.35-41.11,214.16-42.42,156.7,11.29,213.7,35.49S644.82,279.76,644.61,315.28ZM341.3,452.74c80.55-1.31,156.34-16.32,213.44-42.28s88.67-59.75,88.87-95.17-31-68.18-87.76-92.29-132.45-36.67-213-35.37S186.51,204,129.4,229.91s-88.65,59.76-88.86,95.16,31,68.19,87.77,92.3,132.44,36.68,213,35.37"/><path d="M355.89,313.9c7.59,3.23,7.55,8.65-.07,12.12s-20,3.67-27.56.45-7.56-8.65.07-12.12S348.3,310.68,355.89,313.9Z"/><path d="M391.14,297.88c26.91,11.42,26.79,30.72-.26,43s-70.95,13-97.86,1.59-26.8-30.72.25-43S364.22,286.46,391.14,297.88Zm-96.7,44c26.13,11.09,68.76,10.4,95-1.55s26.38-30.68.25-41.77-68.77-10.4-95,1.54-26.38,30.68-.24,41.78"/><path class="cls-20" d="M643.61,315.3c-.2,35.4-31.77,69.2-88.87,95.16s-132.9,41-213.44,42.28-156.18-11.25-213-35.37-88-56.89-87.77-92.3,31.77-69.2,88.87-95.16,132.9-41,213.45-42.28S499,198.89,555.85,223,643.82,279.89,643.61,315.3ZM293,342.49c26.91,11.42,70.81,10.71,97.86-1.59s27.17-31.6.26-43-70.82-10.71-97.87,1.59-27.16,31.59-.25,43"/><path class="cls-19" d="M389.72,298.53c26.13,11.09,26,29.83-.25,41.77s-68.9,12.64-95,1.55-26-29.84.24-41.78S363.58,287.43,389.72,298.53Zm-61.46,27.94c7.59,3.22,19.93,3,27.56-.45s7.66-8.89.07-12.12-19.93-3-27.56.45-7.66,8.89-.07,12.12"/><path d="M39.65,331.23l-.1-4.49c.76,34.89,31.94,67.13,88.05,90.95,57,24.19,132.89,36.8,213.7,35.49s156.85-16.38,214.15-42.42,88.95-60,89.16-95.48l.1,4.49c-.21,35.52-31.88,69.43-89.17,95.48S422.2,456.36,341.39,457.67s-156.7-11.29-213.69-35.49C71.58,398.37,40.4,366.12,39.65,331.23Z"/></g><g class="cls-2"><g class="cls-2"><g class="cls-21"><g class="cls-2"><path class="cls-5" d="M357.55,260.55l2.26,56.09a3.25,3.25,0,0,1,0,.54l-2.26-56.09a3.25,3.25,0,0,0,0-.54"/><path class="cls-6" d="M357.53,261.09l2.26,56.09a4.08,4.08,0,0,1-.11.59l-2.26-56.08a4.21,4.21,0,0,0,.11-.6"/><path class="cls-7" d="M357.42,261.69l2.26,56.08a3.48,3.48,0,0,1-.21.59l-2.26-56.08a3.48,3.48,0,0,0,.21-.59"/><path class="cls-8" d="M357.21,262.28l2.26,56.08a5.23,5.23,0,0,1-.29.58l-2.26-56.08a6.27,6.27,0,0,0,.29-.58"/><path class="cls-9" d="M356.92,262.86l2.26,56.08a6.7,6.7,0,0,1-.4.58l-2.26-56.08a6.7,6.7,0,0,0,.4-.58"/><path class="cls-10" d="M356.52,263.44l2.26,56.08c-.16.2-.33.4-.52.6L356,264c.19-.2.36-.4.52-.6"/><path class="cls-11" d="M356,264l2.26,56.08c-.21.21-.43.42-.68.63l-2.26-56.08A8.43,8.43,0,0,0,356,264"/><path class="cls-12" d="M355.32,264.67l2.26,56.08c-.28.24-.59.47-.92.7l-2.26-56.08c.33-.23.64-.46.92-.7"/><path class="cls-13" d="M354.4,265.37l2.26,56.08a15.9,15.9,0,0,1-1.43.86L353,266.23c.52-.28,1-.57,1.43-.86"/><path class="cls-14" d="M353,266.23l2.26,56.08-.85.42a27.29,27.29,0,0,1-5.95,1.89l-2.26-56.09a26.75,26.75,0,0,0,5.95-1.88l.85-.42"/><path class="cls-13" d="M346.17,268.53l2.26,56.09c-.69.13-1.39.25-2.1.35l-2.26-56.08q1.06-.15,2.1-.36"/><path class="cls-12" d="M344.07,268.89,346.33,325c-.56.08-1.13.15-1.69.2l-2.26-56.08c.57-.06,1.13-.12,1.69-.2"/><path class="cls-11" d="M342.38,269.09l2.26,56.08-1.49.11-2.26-56.08,1.49-.11"/><path class="cls-10" d="M340.89,269.2l2.26,56.08-1.38.05-2.26-56.08,1.38-.05"/><path class="cls-9" d="M339.51,269.25l2.26,56.08h-1.32l-2.25-56.08h1.31"/><path class="cls-8" d="M338.2,269.25l2.25,56.08-1.27,0-2.26-56.08,1.28,0"/><path class="cls-7" d="M336.92,269.21l2.26,56.08-1.25-.08-2.26-56.09c.41,0,.83.07,1.25.09"/><path class="cls-6" d="M335.67,269.12l2.26,56.09-1.25-.13L334.42,269c.41.05.83.09,1.25.12"/><path class="cls-5" d="M334.42,269l2.26,56.08c-.43-.05-.85-.11-1.27-.18l-2.26-56.08c.42.07.84.12,1.27.18"/><path class="cls-15" d="M333.15,268.82l2.26,56.08q-.68-.11-1.32-.24l-2.26-56.08c.44.08.87.17,1.32.24"/><path class="cls-16" d="M331.83,268.58l2.26,56.08-1.43-.34-2.26-56.08,1.43.34"/><path class="cls-17" d="M330.4,268.24l2.26,56.08c-.58-.16-1.13-.33-1.67-.52l-2.26-56.08c.54.19,1.1.36,1.67.52"/><path class="cls-18" d="M328.73,267.72,331,323.8c-.49-.17-.95-.35-1.4-.55-3.15-1.4-4.75-3.27-4.83-5.2L322.5,262c.08,1.93,1.68,3.79,4.83,5.2.45.2.92.38,1.4.55"/></g></g></g><ellipse class="cls-22" cx="340.02" cy="261.26" rx="17.54" ry="7.97" transform="translate(-10.24 13.9) rotate(-2.31)"/></g><g class="cls-2"><path class="cls-19" d="M356,131.29c-7.59-3.22-19.93-3-27.56.45,0-1.5-.07-3-.1-4.49,7.63-3.47,20-3.67,27.56-.45,3.74,1.59,5.62,3.71,5.67,5.86l.1,4.49C361.61,135,359.72,132.88,356,131.29Z"/><path class="cls-19" d="M328.43,131.74c-3.88,1.76-5.79,4-5.74,6.25l-.1-4.49c0-2.22,1.87-4.49,5.74-6.25C328.36,128.75,328.39,130.24,328.43,131.74Z"/><path class="cls-23" d="M339.07,107.25l-.09-4.49c18.8-.69,37.87,2,52.16,8,13.24,5.62,19.94,13.15,20.1,20.82l.1,4.49c-.16-7.67-6.86-15.2-20.1-20.82C377,109.21,357.87,106.56,339.07,107.25Z"/><path class="cls-23" d="M293.37,116.86c-13.74,6.24-20.53,14.29-20.36,22.2l-.1-4.49c-.17-7.91,6.62-16,20.36-22.2,12.69-5.77,29.09-9,45.71-9.61l.09,4.49C322.46,107.87,306.06,111.09,293.37,116.86Z"/><path d="M409.25,131.63l.09,4.49c-.16-7.44-6.66-14.75-19.52-20.21-26.14-11.09-68.77-10.4-95,1.55C281.44,123.52,274.84,131.34,275,139l-.1-4.49c-.17-7.68,6.43-15.5,19.77-21.56,26.28-12,68.91-12.64,95-1.55C402.58,116.88,409.09,124.19,409.25,131.63Z"/><path d="M643.6,126.56l.1,4.49C643,96.27,611.87,64.13,556,40.39,499.14,16.28,423.5,3.72,343,5S186.6,21.34,129.5,47.3s-88.65,59.76-88.86,95.16c0,.55,0,1.09,0,1.63l-.1-4.49c0-.54,0-1.08,0-1.63.21-35.4,31.76-69.2,88.86-95.16S262.32,1.84,342.86.53,499,11.78,555.85,35.9C611.78,59.64,642.85,91.78,643.6,126.56Z"/><path class="cls-23" d="M643.7,131.05c0,.54,0,1.09,0,1.63l-.1-4.49c0-.54,0-1.09,0-1.63Z"/><path d="M644.6,126.53l.1,4.49c0,.55,0,1.1,0,1.65l-.1-4.49C644.62,127.63,644.61,127.08,644.6,126.53Z"/><path class="cls-23" d="M41.11,150.32a61.52,61.52,0,0,1-.46-6.22l-.1-4.49a61.52,61.52,0,0,0,.46,6.22C41.05,147.32,41.08,148.82,41.11,150.32Z"/><path d="M361.56,132.66l.1,4.49c0,2.23-1.87,4.5-5.75,6.26-7.63,3.47-20,3.67-27.55.45-3.74-1.59-5.63-3.71-5.67-5.87l-.1-4.49c.05,2.16,1.94,4.28,5.67,5.86,7.59,3.23,19.93,3,27.56-.44C359.69,137.16,361.61,134.89,361.56,132.66Z"/><path class="cls-19" d="M409.34,136.12c.09,3.9-1.57,7.84-5,11.56,0-1.49-.06-3-.1-4.49,3.4-3.72,5.06-7.66,5-11.56C409.28,133,409.31,134.78,409.34,136.12Z"/><path class="cls-19" d="M294.53,159.24C281.67,153.78,275.17,146.47,275,139l-.1-4.49c.16,7.44,6.67,14.75,19.53,20.2,26.13,11.1,68.76,10.41,95-1.54,6.57-3,11.51-6.4,14.8-10,0,1.5.07,3,.1,4.49-3.3,3.61-8.23,7-14.8,10C363.3,169.64,320.67,170.33,294.53,159.24Z"/><path d="M391.14,110.78c26.91,11.42,26.79,30.72-.26,43s-70.95,13-97.86,1.59-26.8-30.73.25-43S364.22,99.36,391.14,110.78Zm-96.7,44c26.13,11.1,68.76,10.41,95-1.54s26.39-30.68.25-41.78S321,101,294.68,113s-26.38,30.68-.24,41.77"/><path class="cls-23" d="M41.11,150.32c0-.31,0-.61,0-.91v-.92L41,145.83a63.66,63.66,0,0,0,5.26,18.3l.09,4.49A64,64,0,0,1,41.11,150.32Z"/><path d="M411.24,131.59l.1,4.49c.17,7.91-6.62,16-20.36,22.21-27.05,12.3-71,13-97.86,1.59-13.25-5.62-19.95-13.15-20.11-20.82l-.1-4.49c.16,7.67,6.86,15.2,20.11,20.82,26.91,11.42,70.81,10.71,97.86-1.59C404.62,147.55,411.41,139.5,411.24,131.59Z"/><path class="cls-23" d="M627.14,176.18c0-1.5-.07-3-.1-4.49,10.82-13.9,16.49-28.56,16.57-43.5l.1,4.49C643.63,147.63,638,162.28,627.14,176.18Z"/><path class="cls-23" d="M487.65,251.21l-.09-4.49a416.65,416.65,0,0,0,67.18-23.36c33-15,57.48-32.63,72.3-51.67,0,1.49.07,3,.1,4.49-14.82,19-39.29,36.66-72.3,51.67A416.44,416.44,0,0,1,487.65,251.21Z"/><path d="M644.61,128.18c-.21,35.52-31.87,69.43-89.16,95.48S422.11,264.77,341.3,266.08s-156.71-11.3-213.7-35.49S39.33,173.51,39.54,138,71.42,68.56,128.7,42.51,262.05,1.4,342.86.09s156.7,11.29,213.7,35.49S644.83,92.66,644.61,128.18ZM341.3,265.64c80.55-1.31,156.34-16.32,213.44-42.28s88.67-59.76,88.87-95.17S612.65,60,555.85,35.9,423.4-.77,342.86.53,186.5,16.85,129.4,42.81,40.75,102.57,40.54,138s31,68.19,87.77,92.3,132.45,36.67,213,35.37"/><path class="cls-19" d="M389.72,111.42c26.14,11.1,26,29.84-.25,41.78s-68.9,12.64-95,1.54-26-29.83.24-41.77S363.59,100.33,389.72,111.42Zm-61.46,27.94c7.59,3.23,19.93,3,27.56-.44s7.66-8.89.07-12.12-19.93-3-27.56.45-7.66,8.89-.07,12.11"/><path class="cls-23" d="M46.36,168.62v-.07l-.09-4.42c11.4,25.21,39.54,48.1,82,66.14,56.81,24.11,132.45,36.67,213,35.37q10.68-.18,21.24-.67l.09,4.49q-10.54.5-21.23.67c-80.54,1.3-156.19-11.26-213-35.37C85.91,216.72,57.76,193.83,46.36,168.62Z"/><path class="cls-23" d="M643.61,128.19c-.2,35.41-31.77,69.21-88.87,95.17s-132.9,41-213.44,42.28-156.18-11.26-213-35.37-88-56.89-87.77-92.3,31.77-69.2,88.87-95.16S262.32,1.83,342.86.53,499,11.78,555.85,35.9,643.82,92.79,643.61,128.19ZM293,155.39c26.91,11.42,70.81,10.71,97.86-1.59s27.17-31.6.26-43-70.82-10.71-97.87,1.59-27.17,31.59-.25,43"/><path d="M355.89,126.8c7.59,3.23,7.55,8.65-.07,12.12s-20,3.67-27.56.44-7.56-8.64.07-12.11S348.3,123.58,355.89,126.8Z"/><path class="cls-23" d="M362.63,269.46l-.09-4.49c44.33-2.06,86.81-8.3,125-18.25,0,1.27.05,2.54.08,3.81,0,.23,0,.46,0,.68C449.44,261.16,407,267.4,362.63,269.46Z"/><path d="M39.65,144.13l-.1-4.49c.76,34.89,31.94,67.13,88.05,91,57,24.19,132.89,36.8,213.7,35.49s156.86-16.38,214.15-42.42,88.95-60,89.16-95.48l.1,4.49c-.21,35.52-31.88,69.43-89.17,95.48s-133.33,41.11-214.15,42.42-156.7-11.3-213.69-35.49C71.58,211.26,40.4,179,39.65,144.13Z"/></g><path d="M810.13,301.38c0,2-.34,3.12-1.76,3.8s-3.19.71-5.66.71a16.46,16.46,0,0,0-1.39-4.07c1.56.07,3.42.07,3.9,0s.67-.13.67-.57v-8.85h-6.17v17.29h-4.24V292.43h-5.93V306h-4.14V288.5h10.07V284c-3.89.2-7.83.3-11.49.3a12,12,0,0,0-.85-3.62,235.56,235.56,0,0,0,27.4-1.83l1.52,3.62c-3.62.58-7.86,1-12.34,1.29v4.72h10.41Z"/><path d="M840.54,295a21.71,21.71,0,0,1-4,6.58,79.17,79.17,0,0,1,9.9,4.85l-3.29,3.42a81.12,81.12,0,0,0-10.07-5.29c-3.66,2.54-8.34,4.14-13.83,5.19a19.4,19.4,0,0,0-2.41-3.73,35.56,35.56,0,0,0,11.77-3.36c-2.75-1.12-5.53-2.17-8.07-3l.07-.07c1-1.32,2.1-2.91,3.15-4.61h-7v-3.8h9.19a52.6,52.6,0,0,0,2.3-5l4.51.91a43.51,43.51,0,0,1-1.9,4.07h15.77V295Zm-19.08-5.7h-4.11v-7.56h11.77c-.37-.95-.85-1.93-1.26-2.78l4.24-1c.65,1.15,1.36,2.61,1.87,3.76h12v7.56h-4.31v-3.83H821.46Zm7.29,5.7c-.65,1-1.26,2-1.87,2.92,1.83.61,3.66,1.32,5.56,2a15.56,15.56,0,0,0,3.43-4.95Z"/><path d="M862.82,294.9c-1-.85-2.85-2.23-4.37-3.29a15.4,15.4,0,0,1-6.24,4.89,12.73,12.73,0,0,0-2.54-2.72c3.45-1.35,5.18-3,6-4.71h-5.63v-3.15h2.27c-.81-.51-1.89-1.12-2.57-1.46a14.5,14.5,0,0,0,3.73-6.61l3.56.74c-.21.65-.41,1.33-.68,2h8.41v3.12h-4.41v1.53a5.16,5.16,0,0,1,0,.68h5.22v3.15H860c1.43.75,4.82,2.68,5.7,3.26Zm-6.31-9a4.91,4.91,0,0,0,0-.75v-1.46h-1.7a15,15,0,0,1-1.56,2.21Zm-1.93,9.49h22.11v14.28h-4.14V308.6h-14v1.12h-4Zm4,3.15v1.9h14v-1.9Zm14,6.82v-2h-14v2Zm7.05-24.85v12.85H866.72V280.53Zm-4,3.56h-5.15v5.73h5.15Z"/><path d="M896.22,280.12a28.32,28.32,0,0,1,3.83,7.46L896.39,289a10.37,10.37,0,0,0-.55-1.7c-8.17.68-9.52.92-10.37,1.26a28.83,28.83,0,0,0-1.36-3.77,3.2,3.2,0,0,0,1.66-1.32,27.29,27.29,0,0,0,3.06-5.56l4.27,1.12a31.11,31.11,0,0,1-3.63,5.56l5-.31a32.18,32.18,0,0,0-1.69-2.94Zm2.13,25.5c0,1.76-.34,2.74-1.49,3.32s-2.71.68-4.71.68a13.66,13.66,0,0,0-1.32-3.56,28.48,28.48,0,0,0,3,0c.41,0,.54-.1.54-.51v-2.27H889.3v6.41h-3.73V290.22h12.78Zm-9.05-12.07v1.79h5.05v-1.79Zm5.05,6.74v-2H889.3v2Zm11.53-7.08c-3.93,0-4.92-1.16-4.92-4.85V278.15h4V283a50.06,50.06,0,0,0,6.13-2.85l2.58,2.91a58.08,58.08,0,0,1-8.71,3.19v2c0,1.22.2,1.36,1.49,1.36h3.66c1.12,0,1.32-.51,1.49-3.46a10.64,10.64,0,0,0,3.53,1.46c-.44,4.34-1.53,5.56-4.61,5.56ZM910.36,306c1.18,0,1.39-.65,1.56-4a12.62,12.62,0,0,0,3.56,1.46c-.45,4.75-1.53,6.1-4.75,6.1H906c-4,0-5-1.18-5-4.88V294h4v4.58a36,36,0,0,0,6.37-3.15l2.65,2.95a56.71,56.71,0,0,1-9,3.59v2.68c0,1.19.24,1.36,1.56,1.36Z"/><path d="M927.14,300.9a15.8,15.8,0,0,0,1.12,3.09c-5.32,4-6.31,4.81-6.85,5.53a9.68,9.68,0,0,0-1.93-2.58,4.86,4.86,0,0,0,1.69-3.63v-5.19h-3.12V294.7h3.12v-3.56h-1.73v-2.2c-.2.23-.37.47-.57.67a19.67,19.67,0,0,0-1.8-3.62,21.67,21.67,0,0,0,3.56-7.87l3.32.95c-.2.75-.47,1.52-.74,2.31h4.71v3.45h-6.1a24.63,24.63,0,0,1-1.6,2.92h6.95v3.39h-2.44v3.56h3.39v3.42h-3.39v4.55Zm6.37,2c.58.31,1.19.78,2,1.26a12.27,12.27,0,0,0,6.37,1.28,67.86,67.86,0,0,0,7.63-.47,18.12,18.12,0,0,0-.88,4c-1.69.14-4.71.24-6.78.24a12.21,12.21,0,0,1-6.75-1.63c-1.18-.71-2.2-1.56-2.81-1.56-.85,0-2.2,2-3.22,3.7l-2.44-3.8a15.19,15.19,0,0,1,3.29-2.64V292.8h-2.28v-3.66h5.9Zm-3.45-16.14a45.25,45.25,0,0,0-1.94-6.88l3.33-1a60.82,60.82,0,0,1,2.1,6.74Zm7.9,6.44a4.79,4.79,0,0,0-2.75.55,25.28,25.28,0,0,0-1.19-3.29c.61-.21,1.12-1,1.6-2.27.2-.48.61-1.56,1-3h-2.48v-3.35h3.39c.31-1.26.58-2.58.78-3.87l3.73.71c-.24,1-.54,2.1-.85,3.16h7.7v3.35h-8.81c-.61,1.66-1.29,3.29-1.94,4.71h2.31v-3.55H944v3.55h4.24l0,3.29H944v3.05h4.85v3.46H944v4.75H940.5v-4.75h-5.94v-3.46h5.94v-3.05Z"/><path d="M951.05,294.9c0-6.39,1.11-15.94,13-15.94v4.67c-6.52,0-7.74,4.88-7.74,11.27s1.22,11.3,7.74,11.3v4.67C952.16,310.87,951.05,301.32,951.05,294.9Z"/><path d="M988.89,300.07c0,3.93-2.74,6.7-9.75,6.7H966.45V283H979.2c6.78,0,8.93,2.8,8.93,6.08a4.88,4.88,0,0,1-3.28,4.83v.37A5.84,5.84,0,0,1,988.89,300.07Zm-16.81-12.63v5.26h6.69c2.58,0,4-.88,4-2.6s-1.38-2.66-4-2.66Zm11.1,11.78c0-1.92-1.5-3-4.12-3h-7v6.1h7C981.68,302.36,983.18,301.12,983.18,299.22Z"/><path d="M990.44,299.42h5.09c.19,2.23,2,3.65,5.93,3.68,3.67,0,5.68-1.25,5.68-3.11,0-1.64-1.33-2.46-4.15-2.94l-2.94-.51c-4.49-.79-9-2-9-7.15,0-4.49,3.79-7.15,10.43-7.15,6.19,0,10.48,2.18,10.54,8.05H1007c-.37-2.14-2-3.58-5.6-3.58-3.22,0-4.91,1.1-4.91,2.93,0,1.45,1.16,2.35,3.59,2.8l2.57.45c4.52.82,10.09,1.59,10.09,7.27,0,4.72-3.87,7.4-11.28,7.4C994.23,307.56,990.41,305,990.44,299.42Z"/><path d="M1014.23,294.9c0-7.46,5.31-12.66,13-12.66,5.2,0,10.54,2.32,11.7,9.3h-5.4a6.15,6.15,0,0,0-6.3-4.41c-4.21,0-7.43,3.19-7.43,7.77s3.22,7.77,7.43,7.77a6.13,6.13,0,0,0,6.3-4.43h5.4c-1.16,7-6.44,9.32-11.7,9.32C1019.54,307.56,1014.23,302.36,1014.23,294.9Z"/><path d="M1040.9,306.2c6.53,0,7.74-4.88,7.74-11.3s-1.21-11.27-7.74-11.27V279c11.9,0,13,9.55,13,15.94s-1.1,16-13,16Z"/><rect x="609.17" y="292.27" width="161.63" height="2"/><path d="M782.34,148.79c0-5.72,4.08-9.71,10-9.71,4,0,8.08,1.78,9,7.13h-4.14a4.71,4.71,0,0,0-4.83-3.38,6,6,0,0,0,0,11.92,4.71,4.71,0,0,0,4.83-3.4h4.14c-.89,5.37-4.94,7.15-9,7.15C786.42,158.5,782.34,154.51,782.34,148.79Z"/><path d="M822,148.79c0,5.18-2.68,9.1-9.75,9.1h-8.36v-18.2h8.36C819.29,139.69,822,143.61,822,148.79Zm-4.33,0c0-3.51-1.91-5.46-5.44-5.46h-4l0,10.92h4C815.73,154.25,817.64,152.3,817.64,148.79Z"/><path d="M823.88,154.38l10.68-10.73v-.34h-10.4v-3.62h15.93v3.51l-10.77,10.72v.35H840v3.62H823.88Z"/><path d="M842.66,139.69H858v3.53H847v4h10.61v3.12H847v4h11v3.55H842.66Z"/><path d="M866.65,148.79v-.24l-6.37-8.86H865l4.18,6h.41l4.16-6h4.73l-6.35,8.86v.24l6.5,9.1h-4.77l-4.27-6.2h-.41l-4.27,6.2h-4.76Z"/><path d="M878.85,148.79c0-5.72,4.07-9.71,10-9.71,4,0,8.09,1.78,9,7.13h-4.13a4.72,4.72,0,0,0-4.84-3.38,6,6,0,0,0,0,11.92,4.71,4.71,0,0,0,4.84-3.4h4.13c-.88,5.37-4.94,7.15-9,7.15C882.92,158.5,878.85,154.51,878.85,148.79Z"/><path d="M918,139.69v18.2h-4.33v-7.3h-9v7.3h-4.31v-18.2h4.31V147h9v-7.3Z"/><path d="M934.83,154.84h-9l-1.12,3h-4.47l7-18.2h6.07l7.07,18.2H936Zm-1.21-3.28-2.86-7.78h-.82l-2.86,7.78Z"/><path d="M942.68,139.69h5l8.45,12.24h.41V139.69h4.23v18.2h-4.92l-8.56-12.24h-.39v12.24h-4.22Z"/><path d="M982.56,157.89h-2.7l-.05-2.64A7.76,7.76,0,0,1,973,158.5a9.41,9.41,0,0,1-9.71-9.71c0-5.72,4.08-9.71,10.06-9.71,3.94,0,7.93,1.84,8.9,6.42H978a4.62,4.62,0,0,0-4.53-2.67,6,6,0,0,0-.08,11.92,4.78,4.78,0,0,0,5-3.56h-5.29v-2.92h9.51Z"/><path d="M985.55,139.69h15.32v3.53h-11v4h10.61v3.12H989.87v4h11v3.55H985.55Z"/><rect x="609.17" y="143.06" width="161.63" height="2"/><g class="cls-2"><path class="cls-24" d="M352.7,77c6.73,2.85,6.55,7.79-.41,11s-18.06,3.54-24.78.68-6.55-7.79.41-11S346,74.16,352.7,77Z"/><g class="cls-2"><g class="cls-25"><g class="cls-2"><path class="cls-5" d="M357.63,82.11l2.09,48.35a2.8,2.8,0,0,1,0,.5l-2.1-48.35a4.26,4.26,0,0,0,0-.5"/><path class="cls-6" d="M357.61,82.61l2.1,48.35a3,3,0,0,1-.11.58l-2.09-48.35a3.91,3.91,0,0,0,.1-.58"/><path class="cls-7" d="M357.51,83.19l2.09,48.35a4.11,4.11,0,0,1-.19.56l-2.1-48.35a4.18,4.18,0,0,0,.2-.56"/><path class="cls-8" d="M357.31,83.75l2.1,48.35a4.87,4.87,0,0,1-.28.56L357,84.3a4.07,4.07,0,0,0,.28-.55"/><path class="cls-9" d="M357,84.3l2.1,48.36a6,6,0,0,1-.38.55l-2.1-48.35a5,5,0,0,0,.38-.56"/><path class="cls-10" d="M356.65,84.86l2.1,48.35c-.15.19-.31.38-.49.57l-2.09-48.35c.17-.19.34-.38.48-.57"/><path class="cls-11" d="M356.17,85.43l2.09,48.35q-.28.3-.63.6L355.53,86c.23-.2.44-.4.64-.6"/><path class="cls-12" d="M355.53,86l2.1,48.35a9.77,9.77,0,0,1-.84.65l-2.1-48.35a8.43,8.43,0,0,0,.84-.65"/><path class="cls-13" d="M354.69,86.68l2.1,48.35c-.38.26-.79.52-1.23.77l-2.1-48.35a13.78,13.78,0,0,0,1.23-.77"/><path class="cls-14" d="M353.46,87.45l2.1,48.35c-.37.2-.76.4-1.17.59-.61.28-1.24.54-1.9.78l-2.1-48.35c.66-.24,1.3-.5,1.9-.78.41-.19.8-.39,1.17-.59"/><path class="cls-26" d="M350.39,88.82l2.1,48.35-1.23.4-2.1-48.35,1.23-.4"/><path class="cls-14" d="M349.16,89.22l2.1,48.35a30.87,30.87,0,0,1-3.62.86l-2.1-48.35a30.87,30.87,0,0,0,3.62-.86"/><path class="cls-13" d="M345.54,90.08l2.1,48.35c-.64.12-1.28.21-1.93.3l-2.1-48.35c.65-.09,1.3-.18,1.93-.3"/><path class="cls-12" d="M343.61,90.38l2.1,48.35c-.52.06-1,.12-1.57.16L342,90.54c.53,0,1-.1,1.57-.16"/><path class="cls-11" d="M342,90.54l2.1,48.35c-.48,0-.95.07-1.43.09l-2.1-48.35c.48,0,1,0,1.43-.09"/><path class="cls-10" d="M340.61,90.63l2.1,48.35c-.44,0-.89,0-1.33,0l-2.1-48.35c.44,0,.89,0,1.33,0"/><path class="cls-9" d="M339.28,90.67l2.1,48.35h-1.29L338,90.67c.42,0,.85,0,1.28,0"/><path class="cls-8" d="M338,90.67,340.09,139l-1.24,0-2.1-48.35,1.25,0"/><path class="cls-7" d="M336.75,90.63l2.1,48.35-1.23-.08-2.1-48.36q.62.06,1.23.09"/><path class="cls-6" d="M335.52,90.54l2.1,48.36-1.22-.13-2.1-48.35c.4,0,.81.09,1.22.12"/><path class="cls-5" d="M334.3,90.42l2.1,48.35-1.24-.17-2.1-48.35,1.24.17"/><path class="cls-15" d="M333.06,90.25l2.1,48.35c-.44-.07-.88-.15-1.3-.24L331.76,90c.43.09.86.17,1.3.24"/><path class="cls-16" d="M331.76,90l2.1,48.35q-.72-.15-1.41-.33l-2.09-48.35c.45.12.92.23,1.4.33"/><path class="cls-17" d="M330.36,89.68,332.45,138c-.56-.15-1.1-.31-1.62-.49l-2.1-48.35c.52.18,1.06.34,1.63.49"/><path class="cls-18" d="M328.73,89.19l2.1,48.35c-.43-.15-.83-.3-1.23-.47-3.2-1.36-4.84-3.19-4.92-5.09l-2.1-48.35c.08,1.9,1.72,3.73,4.93,5.09.39.17.8.32,1.22.47"/></g></g></g></g></g></g></svg>