<svg xmlns="http://www.w3.org/2000/svg" viewBox="0 0 247.01 234.4"><defs><style>.cls-1{fill:#c7d1db;}.cls-2{fill:#fdcf23;}.cls-3{fill:#1f3fad;}.cls-4{fill:#fff;}</style></defs><g id="Layer_2" data-name="Layer 2"><g id="Layer_1-2" data-name="Layer 1"><rect class="cls-1" x="0.5" y="42.4" width="246.01" height="180.74"/><path d="M247,223.64H0V41.9H247Zm-246-1H246V42.9H1Z"/><rect class="cls-2" x="0.5" y="13.51" width="246.01" height="72.2"/><path d="M247,86.2H0V13H247ZM1,85.2H246V14H1Z"/><rect class="cls-3" x="0.5" y="221.44" width="246.01" height="12.46"/><path d="M247,234.4H0V220.94H247Zm-246-1H246V221.94H1Z"/><path class="cls-1" d="M168.51,4.36l-3.7-3.07A3.7,3.7,0,0,0,162.49.5H80.83a3.76,3.76,0,0,0-2.38.81L74.77,4.37a9.37,9.37,0,0,1-5.94,2H.5v8.25h246V6.39h-72A9.37,9.37,0,0,1,168.51,4.36Z"/><path d="M247,15.14H0V5.89H68.83A8.86,8.86,0,0,0,74.45,4l3.68-3A4.21,4.21,0,0,1,80.83,0h81.66a4.09,4.09,0,0,1,2.64.91L168.83,4a8.91,8.91,0,0,0,5.63,1.91H247Zm-246-1H246V6.89H174.46a10,10,0,0,1-6.27-2.14L164.5,1.68a3.19,3.19,0,0,0-2-.68H80.83a3.23,3.23,0,0,0-2.06.7L75.09,4.75a9.92,9.92,0,0,1-6.26,2.14H1Z"/><circle class="cls-4" cx="117.47" cy="7.5" r="1.35"/><path d="M117.47,9.35a1.85,1.85,0,1,1,1.85-1.85A1.85,1.85,0,0,1,117.47,9.35Zm0-2.7a.85.85,0,1,0,.85.85A.85.85,0,0,0,117.47,6.65Z"/><circle class="cls-4" cx="123.77" cy="7.5" r="1.35"/><path d="M123.77,9.35a1.85,1.85,0,1,1,1.85-1.85A1.85,1.85,0,0,1,123.77,9.35Zm0-2.7a.85.85,0,1,0,.85.85A.85.85,0,0,0,123.77,6.65Z"/><circle class="cls-4" cx="130.07" cy="7.5" r="1.35"/><path d="M130.07,9.35a1.85,1.85,0,1,1,1.85-1.85A1.85,1.85,0,0,1,130.07,9.35Zm0-2.7a.85.85,0,1,0,.85.85A.85.85,0,0,0,130.07,6.65Z"/><path d="M104.54,54.6a16.3,16.3,0,0,0,.86,3.5c-6.63,3.91-7.79,4.66-8.47,5.37a12.58,12.58,0,0,0-1.87-2.68,4.71,4.71,0,0,0,1.87-3.61V52H92.48v-3.6h4.45V45H94.28V42.56c-.34.38-.68.72-1,1.06a29.47,29.47,0,0,0-1.87-4,19.7,19.7,0,0,0,4.86-7.72L99.79,33c-.24.65-.51,1.36-.82,2h5.61v3.84H97c-.54.92-1.15,1.73-1.73,2.55h8.84V45h-3.54v3.34h4V52h-4v4.86Zm18.57-4.46a27.28,27.28,0,0,1-6,7c.71,1.6,1.53,2.55,2.31,2.55s1-.88,1.12-3.6a9.35,9.35,0,0,0,2.76,2.18c-.65,4.11-1.64,5.23-4.29,5.23-2.07,0-3.7-1.53-5-4a38.87,38.87,0,0,1-7.17,3.7,13.27,13.27,0,0,0-2.45-3.26,34.62,34.62,0,0,0,8.23-4,53.75,53.75,0,0,1-1.46-6.46l-5.71,1-.65-3.56,5.88-1.06c-.13-1.09-.23-2.18-.34-3.26l-4.14.64-.68-3.6,4.58-.71c-.13-2.38-.2-4.83-.2-7.21h3.88c0,2.21,0,4.45.1,6.63l7.44-1.16.65,3.54L114.17,42c.1,1.08.2,2.14.34,3.19l7.78-1.43.58,3.47L115,48.72c.27,1.66.61,3.26.92,4.65a20.54,20.54,0,0,0,3.81-4.69Zm-4.49-12.68a43.25,43.25,0,0,0-4.22-3.19l2.35-2.11A35,35,0,0,1,121,35.08Z"/><path d="M147.45,59.12c2.79,0,3.3-.61,3.67-3.81a12.47,12.47,0,0,0,3.88,1.4c-.68,4.79-2,6.18-7.28,6.18H136.64c-6.25,0-8.09-1.22-8.09-6V44.13c-.75.75-1.5,1.42-2.21,2a30.25,30.25,0,0,0-3.3-3.06,27.85,27.85,0,0,0,8.88-11.49l4.18,1.25a33.62,33.62,0,0,1-1.74,3.37h17.95s0,1.19-.06,1.7c-.31,10.67-.62,14.65-1.57,16a3.3,3.3,0,0,1-2.48,1.53,19.3,19.3,0,0,1-3.91.13,9,9,0,0,0-1-3.84,20.68,20.68,0,0,0,2.75.1,1,1,0,0,0,1-.51c.55-.68.85-3.57,1.09-11.28H131.92c-.65.88-1.3,1.7-1.94,2.48h13V53.41h-10.4v3.43c0,2,.55,2.28,4.08,2.28ZM132.56,46.06V49.8H139V46.06Z"/><path d="M16.88,109.46a45.84,45.84,0,0,1-2.57,5.22v18.07H12V118.17a28.07,28.07,0,0,1-2.52,3,16.31,16.31,0,0,0-1.33-2.44,28.23,28.23,0,0,0,6.45-10Zm8.29,13.78A10.47,10.47,0,0,1,23.59,128a25.63,25.63,0,0,0,9.23,2.5,10.53,10.53,0,0,0-1.43,2.18,25.35,25.35,0,0,1-9.21-3,13.68,13.68,0,0,1-5.61,3,10.36,10.36,0,0,0-1.48-2,11.86,11.86,0,0,0,5.12-2.34,14.16,14.16,0,0,1-3.49-4.05l2-.63a10.63,10.63,0,0,0,2.91,3.12,8.48,8.48,0,0,0,1.17-3.53h-6v-7.31h6.19v-2.24H16.1v-2.21h6.84v-2.57h2.39v2.57h7.18v2.21H25.33v2.24h6.42v7.31Zm-2.23-2v-3.3H19v3.3Zm2.39-3.3v3.3h4.11v-3.3Z"/><path d="M55.39,129.61c0,1.4-.34,2.13-1.28,2.49a14.35,14.35,0,0,1-4.86.42,9.82,9.82,0,0,0-.8-2.34c1.66.08,3.38,0,3.87,0s.65-.16.65-.65v-4.65H46.68v7.43H44.26v-7.43h-6A14.88,14.88,0,0,1,35,132.8a7.88,7.88,0,0,0-1.9-1.58c2.83-3.15,3.09-7.75,3.09-11.42v-9.25H55.39Zm-11.13-7v-3.85H38.62v1c0,.88,0,1.85-.11,2.81Zm-5.64-9.78v3.67h5.64v-3.67Zm14.35,0H46.68v3.67H53Zm0,9.78v-3.85H46.68v3.85Z"/><path d="M78.81,110.29v22.18H76.27v-1.72H63.42v1.72H61V110.29Zm-15.39,2.36v3.7H76.27v-3.7Zm0,6v3.75H76.27v-3.75Zm12.85,9.75v-3.71H63.42v3.71Z"/><path d="M106.27,112.73v2.21H83.1v-2.21h6a18.2,18.2,0,0,0-2.16-3.2l2.26-.78a16,16,0,0,1,2.5,3.49l-1.33.49h7.49a24.1,24.1,0,0,0,2.29-4.06l2.62.81c-.7,1.12-1.43,2.26-2.16,3.25ZM94.36,130.1c0,1.12-.23,1.72-1,2.05a8.78,8.78,0,0,1-3.59.42,9.93,9.93,0,0,0-.8-2.08c1.14,0,2.29,0,2.6,0s.47-.13.47-.47v-2.94H86.9v5.41H84.64V117h9.72Zm-7.46-11v2.13h5.15v-2.13Zm5.15,6.18v-2.21H86.9v2.21Zm7.3,2.58H97.12V117.25h2.23Zm2.94-11.31h2.39v13.31c0,1.27-.28,1.92-1.17,2.29a10.68,10.68,0,0,1-4.16.44,8.28,8.28,0,0,0-.86-2.29c1.46.05,2.86.05,3.26,0s.54-.13.54-.5Z"/><path d="M112.2,120.79a22.43,22.43,0,0,0-4.76-2.86l1.27-1.79a21.13,21.13,0,0,1,4.84,2.62Zm2.49,3.3c-1.38,2.71-3.09,5.8-4.65,8.25l-2-1.62a76.46,76.46,0,0,0,4.89-8.24ZM113,114a21.33,21.33,0,0,0-4.47-3.17l1.35-1.74a20.34,20.34,0,0,1,4.57,3Zm3.72,7.23h2.18v2.6c0,2.81-.44,6.21-3.9,8.68a7.53,7.53,0,0,0-1.69-1.58c3.07-2.11,3.41-4.89,3.41-7.18Zm12.35-.18a14.44,14.44,0,0,0-1.17-1.8c-10.22.73-11.47.84-12.3,1.15a20.29,20.29,0,0,0-.63-2.26,4.64,4.64,0,0,0,1.88-.76c.44-.41,1.63-1.92,2.62-3.2h-4.73V112h7a21.63,21.63,0,0,0-1-2.73l2.21-.52a21.17,21.17,0,0,1,1.3,3.25h6.53v2.18h-8.58c-.88,1.17-1.93,2.5-2.81,3.57l7-.4c-.55-.72-1.14-1.4-1.66-2l1.79-1.07a40.52,40.52,0,0,1,4.47,5.54Zm-7.85.21h2.1v10.27h-2.1Zm7.72,9a.79.79,0,0,0,.46-.1c.11-.08.19-.29.27-.68s.05-1.35.07-2.57a5.36,5.36,0,0,0,1.67.93,18.15,18.15,0,0,1-.26,3,1.75,1.75,0,0,1-.76,1.06,2.78,2.78,0,0,1-1.35.32h-1.3a2.46,2.46,0,0,1-1.53-.52c-.42-.39-.55-.86-.55-2.47v-8h2.21v8.09a1.48,1.48,0,0,0,.13.83.5.5,0,0,0,.36.1Z"/><path d="M141.24,115.17a34.82,34.82,0,0,1-2.84,4V132.7H136V121.83a33.53,33.53,0,0,1-2.58,2.34,13.56,13.56,0,0,0-1.66-2,27.72,27.72,0,0,0,7.2-7.8Zm-1-5.46a34.24,34.24,0,0,1-6.86,6.58,11.71,11.71,0,0,0-1.38-2,23.57,23.57,0,0,0,5.93-5.59Zm15.6,10h-3.74v10c0,1.38-.32,2.08-1.3,2.47a16.45,16.45,0,0,1-4.92.39,9.47,9.47,0,0,0-.78-2.42c1.67,0,3.41,0,3.88,0s.65-.13.65-.5v-10h-8.22v-2.32h14.43Zm-.73-7.1H142.51v-2.31h12.61Z"/><path d="M180,112.81s0,.83,0,1.14c-.37,11.73-.68,15.76-1.72,17.06a2.89,2.89,0,0,1-2.26,1.22,26.81,26.81,0,0,1-3.93,0,5.68,5.68,0,0,0-.78-2.34c1.67.13,3.18.16,3.83.16a1.18,1.18,0,0,0,1.09-.44c.83-.86,1.17-4.79,1.51-14.59h-6.14a26.06,26.06,0,0,1-2.37,4.37,11.74,11.74,0,0,0-1.9-1.35V130h-7v2H158v-19h2.91a32,32,0,0,0,.91-4.21l2.63.44c-.45,1.3-.94,2.68-1.36,3.77h4.16v4.91a24.71,24.71,0,0,0,3.88-9.12l2.34.54c-.31,1.2-.65,2.4-1.07,3.54ZM160.22,115V120h4.83V115Zm4.83,12.8v-5.75h-4.83v5.75Zm8.66-2a42.5,42.5,0,0,0-3.79-6l1.9-1.06a46.74,46.74,0,0,1,3.92,5.8Z"/><path d="M191.16,126.49a10.56,10.56,0,0,0,.52,2c-4.89,3-5.67,3.46-6.14,4a6.3,6.3,0,0,0-1.17-1.64,3.16,3.16,0,0,0,1.38-2.49v-4.71h-3.59v-2.16h3.59V118.4h-2.29v-2.11a9.26,9.26,0,0,1-.91,1,11.42,11.42,0,0,0-1.17-2.31,15.56,15.56,0,0,0,3.75-6.11l2.16.65c-.24.65-.53,1.35-.84,2h4.6v2.32h-5.82a18.37,18.37,0,0,1-1.69,2.41h7.15v2.19h-2.76v3.09h3.31v2.16h-3.31v4.66Zm14-4.11a20.74,20.74,0,0,1-4.76,5.46c.7,1.56,1.48,2.47,2.34,2.47.6,0,.86-.65,1-2.84a5.87,5.87,0,0,0,1.72,1.28c-.39,3-1.09,3.82-2.91,3.82-1.67,0-3-1.22-4-3.3a29.3,29.3,0,0,1-5.85,3,9,9,0,0,0-1.49-1.93,25.64,25.64,0,0,0,6.48-3.22,40.08,40.08,0,0,1-1.2-5.41l-4.57.86-.39-2.13,4.7-.89c-.13-1-.23-2-.31-3l-3.46.52-.39-2.16,3.72-.57c-.1-1.82-.15-3.69-.18-5.59h2.34c0,1.8,0,3.54.1,5.25l5.91-.88.39,2.1-6.17,1c.08,1,.18,2,.29,3l6.19-1.17.39,2.13-6.29,1.17a30.13,30.13,0,0,0,.91,4.34,17.33,17.33,0,0,0,3.51-4.08Zm-3-9.55a20.82,20.82,0,0,0-3.51-2.39l1.4-1.27a20.25,20.25,0,0,1,3.56,2.18Z"/><path d="M225,129.84c2.21,0,2.55-.52,2.83-3.09a7.75,7.75,0,0,0,2.34.85c-.44,3.51-1.35,4.5-5,4.5h-9.21c-4.34,0-5.61-.78-5.61-4V117.2a21.14,21.14,0,0,1-2.19,2.08,14.66,14.66,0,0,0-2-1.79,21.93,21.93,0,0,0,6.87-8.82l2.44.71a24.21,24.21,0,0,1-1.43,2.83h14s0,.75,0,1.07c-.29,8.37-.52,11.41-1.25,12.35a2.29,2.29,0,0,1-1.74,1,18.5,18.5,0,0,1-3,0,5.93,5.93,0,0,0-.63-2.29,17.56,17.56,0,0,0,2.4.1.85.85,0,0,0,.83-.36c.41-.57.68-3,.91-9.62h-13a26.46,26.46,0,0,1-1.82,2.31H221v7.93h-8.32v3.36c0,1.43.44,1.74,3.17,1.74ZM212.66,119v3.64h6V119Z"/><path d="M232,132c2-.72,3.17-1.92,3.3-3.51a1.34,1.34,0,0,1-.36,0,2,2,0,0,1-2.19-2,2.06,2.06,0,0,1,2.21-2.08c1.64,0,2.5,1.27,2.5,3.25a6.29,6.29,0,0,1-4.78,6.05Z"/><path d="M39.92,142.16c-.37,5.05-1.25,8.84-2.76,11.78a36,36,0,0,1,2.73,2.6l-1.64,2a22.84,22.84,0,0,0-2.42-2.47,14.57,14.57,0,0,1-5.92,4.63,9.61,9.61,0,0,0-1.43-2A11.64,11.64,0,0,0,34,154.46c-1.46-1.27-3-2.52-4.42-3.61a64.83,64.83,0,0,0,1.77-6.64H28.53V142h3.33c.31-1.79.59-3.54.78-5.15L35,137c-.21,1.58-.52,3.27-.83,5H38l.44,0Zm-6.22,2.05c-.47,2.08-.93,4.06-1.43,5.78,1,.73,2,1.56,3,2.34a24.48,24.48,0,0,0,2.11-8.12Zm17.58-4.7v20.1H48.89v-1.56H43.32V160H41V139.51Zm-2.39,16.25v-14H43.32v14Z"/><path d="M52.91,140.39h5.53l4.5,12.77h.33l4.51-12.77H73.3v18.2H69.16v-11h-.37l-4,11H61.43l-4-11h-.37v11H52.91Z"/><path d="M73.86,140.39H89.18v3.53h-11v4H88.79V151H78.17v4h11v3.55H73.86Z"/><path d="M107.6,144h-6.83v14.58H96.44V144h-6.8v-3.62h18Z"/><path d="M118.26,155.54h-9l-1.13,3.05H103.7l7-18.2h6.07l7.06,18.2h-4.49ZM117,152.27l-2.86-7.78h-.82l-2.86,7.78Z"/><path d="M123.76,140.39h5.53l4.5,12.77h.33l4.5-12.77h5.53v18.2H140v-11h-.37l-4,11h-3.35l-4-11h-.37v11h-4.14Z"/><path d="M158.62,155.54h-9l-1.13,3.05h-4.46l7-18.2h6.07l7.06,18.2h-4.48Zm-1.21-3.27-2.86-7.78h-.83l-2.86,7.78Z"/><path d="M163,153h3.9c.15,1.71,1.56,2.79,4.55,2.82,2.82,0,4.36-1,4.36-2.39,0-1.25-1-1.88-3.19-2.25l-2.25-.39c-3.45-.61-6.87-1.52-6.87-5.48,0-3.45,2.9-5.48,8-5.48,4.75,0,8,1.67,8.09,6.17h-3.88c-.28-1.65-1.56-2.75-4.29-2.75-2.47,0-3.77.84-3.77,2.25,0,1.11.88,1.8,2.75,2.15l2,.35c3.47.62,7.74,1.21,7.74,5.56,0,3.62-3,5.68-8.65,5.68S163,157.23,163,153Z"/><path d="M194,158.59l-6-7.49h-.3l-3.14,3.25v4.24h-4.29v-18.2h4.29v8.73h.32l8.28-8.73h4.9l-7.59,8.08,8,10.12Z"/><path d="M205.8,144.42H210v2.24H205.8v.6c1,1,3.59,4,4.18,4.76l-1.45,2c-.52-.93-1.72-2.6-2.73-4V160.6h-2.42V150.14a25.23,25.23,0,0,1-4.19,7.05,12.23,12.23,0,0,0-1.27-2.24,24,24,0,0,0,4.86-8.29h-4.24v-2.24h4.84v-3.87c-1.35.23-2.73.39-4,.54a10.38,10.38,0,0,0-.68-1.87,48.61,48.61,0,0,0,9.65-2.18l1.61,1.87a23.87,23.87,0,0,1-4.16,1.14Zm14.9-5.22v20.07h-2.47v-1.92h-5.07v2.1h-2.34V139.2ZM218.23,155V141.51h-5.07V155Z"/><path d="M60.43,182.69c0,1.28-.26,2-1.19,2.37a11.1,11.1,0,0,1-4.35.44,10.57,10.57,0,0,0-.8-2.42c1.43.06,2.86.06,3.27,0s.55-.13.55-.47v-7.59H52.29v13.57H49.8V175.05H44.44v10.66H42v-13H49.8v-3.85c-3.12.16-6.3.26-9.21.26a7.87,7.87,0,0,0-.52-2.15,169.13,169.13,0,0,0,21-1.51l.94,2.24c-2.7.41-6.14.75-9.7,1v4h8.14Z"/><path d="M82.3,177.1a16.37,16.37,0,0,1-3.41,5.54,62.43,62.43,0,0,1,7.85,3.88l-2,2a54.34,54.34,0,0,0-8-4.13,25.85,25.85,0,0,1-10.5,4.16,10.7,10.7,0,0,0-1.46-2.21,25.78,25.78,0,0,0,9.36-3c-2.21-.91-4.5-1.76-6.55-2.41l0,0a41.42,41.42,0,0,0,2.6-3.8H64.59v-2.28h7a41.41,41.41,0,0,0,1.92-4l2.65.51c-.46,1.15-1.06,2.35-1.66,3.52H87.13v2.28Zm-14.67-4H65.19v-5.45h9.25c-.33-.76-.72-1.64-1.09-2.37l2.5-.6c.52.94,1.09,2.08,1.48,3h9.18v5.45H83.93v-3.19H67.63Zm5.62,4c-.6,1-1.17,1.93-1.74,2.76,1.58.52,3.27,1.14,4.94,1.79a12.35,12.35,0,0,0,3.06-4.55Z"/><path d="M98.81,177.34c-.76-.63-2.45-1.85-3.7-2.71a11,11,0,0,1-5,3.93A7.45,7.45,0,0,0,88.59,177c3-1.17,4.37-2.68,5-4.14h-4.7v-1.92h1.77a14.66,14.66,0,0,0-1.85-1.09,12.13,12.13,0,0,0,2.86-5.13l2.16.45c-.18.59-.39,1.14-.6,1.71h6.73v1.93H96.34v1.35a6.78,6.78,0,0,1,0,.78h4.27v1.92H96l-.08.24c1.06.52,3.92,2.21,4.63,2.7ZM94,170.89a7.59,7.59,0,0,0,0-.81v-1.32H92.23a10.23,10.23,0,0,1-1.51,2.13Zm-1.56,7h16.31V188.6h-2.48v-.89H94.85v.91H92.46Zm2.39,1.92v2h11.44v-2Zm11.44,5.93v-2.08H94.85v2.08ZM111,166.81v9.28h-9.39v-9.28Zm-2.39,2.13h-4.73v5h4.73Z"/><path d="M122.34,166.34a24.08,24.08,0,0,1,3.14,5.64l-2.16.91a11.14,11.14,0,0,0-.54-1.35c-6.68.52-7.62.65-8.24.91a16.86,16.86,0,0,0-.81-2.29,2.35,2.35,0,0,0,1.22-1,20.77,20.77,0,0,0,2.55-4.45l2.52.73a29.32,29.32,0,0,1-3,4.6l4.86-.31a24.61,24.61,0,0,0-1.58-2.6Zm1.92,19.71c0,1.14-.23,1.77-1,2.13a8.67,8.67,0,0,1-3.53.42,8.8,8.8,0,0,0-.81-2.19c1.09.05,2.16.05,2.52,0s.42-.11.42-.42v-2.47h-4.79v5.07h-2.26V174h9.44Zm-7.18-10v1.85h4.79V176Zm4.79,5.67v-2h-4.79v2Zm8-5.51c-2.7,0-3.35-.71-3.35-3.1v-8.24h2.36v4.08a41.53,41.53,0,0,0,5.46-2.31l1.56,1.74a48,48,0,0,1-7,2.52v2.19c0,.83.18,1,1.28,1h3.56c.93,0,1.12-.42,1.22-2.84a6.45,6.45,0,0,0,2.13.91c-.28,3.2-.93,4.06-3.12,4.06Zm4,10.16c1,0,1.17-.49,1.3-3.27a7.65,7.65,0,0,0,2.13.91c-.29,3.53-.94,4.47-3.22,4.47h-4.11c-2.73,0-3.43-.7-3.43-3.12v-8.48h2.39v3.88a27.14,27.14,0,0,0,5.67-2.63l1.58,1.8a36.62,36.62,0,0,1-7.25,2.83v2.6c0,.86.21,1,1.32,1Z"/><path d="M145.24,182.67a8.1,8.1,0,0,0,.68,1.84c-4,2.86-4.63,3.38-5,3.9a8,8,0,0,0-1.2-1.63,3.33,3.33,0,0,0,1.25-2.6v-4.42h-2.68v-2.08H141v-3.23h-1.71v-1.79c-.16.21-.29.39-.45.57a12.12,12.12,0,0,0-1.14-2.19,16,16,0,0,0,2.78-6.21l2.06.55c-.19.7-.42,1.45-.68,2.16h3.95v2.1H141a20,20,0,0,1-1.51,2.73h5.83v2.08h-2.13v3.23h2.73v2.08h-2.73v4.34Zm4.55,1.17c.47.21.94.62,1.64,1a9,9,0,0,0,4.81,1,57.12,57.12,0,0,0,5.9-.34,11.12,11.12,0,0,0-.57,2.45c-1.3.1-3.8.18-5.36.18a9.57,9.57,0,0,1-5.12-1.22c-.88-.57-1.61-1.22-2.1-1.22-.71,0-1.77,1.43-2.66,2.78l-1.53-2.24a10.33,10.33,0,0,1,2.81-2.26v-8.19h-2.19v-2.18h4.37Zm-1.95-12.72a31,31,0,0,0-1.82-4.88l2-.63a32.74,32.74,0,0,1,1.9,4.79Zm5.41,4.71a4.18,4.18,0,0,0-2.05.36c-.13-.44-.47-1.45-.71-2,.42-.13.78-.78,1.2-1.71.21-.45.57-1.41,1-2.68h-2.32v-2h2.94c.26-1,.52-2,.7-3.07l2.27.44c-.24.86-.47,1.77-.73,2.63h6.16v2h-6.89c-.52,1.43-1.09,2.81-1.66,4h2.26v-2.94h2.13v2.94h3.54v2h-3.54v3h4.06v2.08h-4.06V185h-2.13V180.9H150.6v-2.08h4.81v-3Z"/><path d="M172.31,182.49a10.56,10.56,0,0,0,.52,2c-4.89,3-5.67,3.46-6.14,4a6.3,6.3,0,0,0-1.17-1.64,3.16,3.16,0,0,0,1.38-2.49v-4.71h-3.59v-2.16h3.59V174.4h-2.29v-2.11a9.26,9.26,0,0,1-.91,1,11.42,11.42,0,0,0-1.17-2.31,15.56,15.56,0,0,0,3.75-6.11l2.15.65a21.16,21.16,0,0,1-.83,2h4.6v2.32h-5.82a18.37,18.37,0,0,1-1.69,2.41h7.15v2.19h-2.76v3.09h3.31v2.16h-3.31v4.66Zm14-4.11a20.74,20.74,0,0,1-4.76,5.46c.7,1.56,1.48,2.47,2.34,2.47.6,0,.86-.65,1-2.84a5.87,5.87,0,0,0,1.72,1.28c-.39,3-1.1,3.82-2.92,3.82-1.66,0-3-1.22-4-3.3a29.3,29.3,0,0,1-5.85,3,9.35,9.35,0,0,0-1.49-1.93,26,26,0,0,0,6.48-3.22,38.61,38.61,0,0,1-1.2-5.41l-4.57.86-.39-2.13,4.7-.89c-.13-1-.23-2-.31-3l-3.46.52-.39-2.16,3.72-.57c-.1-1.82-.16-3.69-.18-5.59h2.34c0,1.8,0,3.54.1,5.25l5.91-.88.38,2.1-6.16,1c.08,1,.18,2,.29,3l6.19-1.17.39,2.13-6.29,1.17a30.13,30.13,0,0,0,.91,4.34,17.28,17.28,0,0,0,3.5-4.08Zm-3-9.55a20.82,20.82,0,0,0-3.51-2.39l1.4-1.27a20.25,20.25,0,0,1,3.56,2.18Z"/><path d="M206.11,185.84c2.21,0,2.55-.52,2.83-3.09a7.75,7.75,0,0,0,2.34.85c-.44,3.51-1.35,4.5-5,4.5H197c-4.34,0-5.61-.78-5.61-4V173.2a21.14,21.14,0,0,1-2.19,2.08,14.66,14.66,0,0,0-2-1.79,21.93,21.93,0,0,0,6.87-8.82l2.44.71a24.21,24.21,0,0,1-1.43,2.83h14s0,.75,0,1.07c-.29,8.37-.52,11.41-1.25,12.35a2.29,2.29,0,0,1-1.74,1,18.5,18.5,0,0,1-3,0,6.1,6.1,0,0,0-.62-2.29,17.42,17.42,0,0,0,2.39.1.84.84,0,0,0,.83-.36c.41-.57.68-3,.91-9.62h-13a26.46,26.46,0,0,1-1.82,2.31h10.35v7.93h-8.32v3.36c0,1.43.44,1.74,3.17,1.74ZM193.81,175v3.64h5.95V175Z"/></g></g></svg>