<svg xmlns="http://www.w3.org/2000/svg" viewBox="0 0 247.01 234.4"><defs><style>.cls-1{fill:#c7d1db;}.cls-2{fill:#fdcf23;}.cls-3{fill:#1f3fad;}.cls-4{fill:#fff;}</style></defs><g id="Layer_2" data-name="Layer 2"><g id="Layer_1-2" data-name="Layer 1"><rect class="cls-1" x="0.5" y="42.4" width="246.01" height="180.74"/><path d="M247,223.64H0V41.9H247Zm-246-1H246V42.9H1Z"/><rect class="cls-2" x="0.5" y="13.51" width="246.01" height="72.2"/><path d="M247,86.2H0V13H247ZM1,85.2H246V14H1Z"/><rect class="cls-3" x="0.5" y="221.44" width="246.01" height="12.46"/><path d="M247,234.4H0V220.94H247Zm-246-1H246V221.94H1Z"/><path class="cls-1" d="M168.51,4.36l-3.7-3.07A3.7,3.7,0,0,0,162.49.5H80.83a3.76,3.76,0,0,0-2.38.81L74.77,4.37a9.37,9.37,0,0,1-5.94,2H.5v8.25h246V6.39h-72A9.37,9.37,0,0,1,168.51,4.36Z"/><path d="M247,15.14H0V5.89H68.83A8.86,8.86,0,0,0,74.45,4l3.68-3A4.21,4.21,0,0,1,80.83,0h81.66a4.09,4.09,0,0,1,2.64.91L168.83,4a8.91,8.91,0,0,0,5.63,1.91H247Zm-246-1H246V6.89H174.46a10,10,0,0,1-6.27-2.14L164.5,1.68a3.19,3.19,0,0,0-2-.68H80.83a3.23,3.23,0,0,0-2.06.7L75.09,4.75a9.92,9.92,0,0,1-6.26,2.14H1Z"/><circle class="cls-4" cx="117.47" cy="7.5" r="1.35"/><path d="M117.47,9.35a1.85,1.85,0,1,1,1.85-1.85A1.85,1.85,0,0,1,117.47,9.35Zm0-2.7a.85.85,0,1,0,.85.85A.85.85,0,0,0,117.47,6.65Z"/><circle class="cls-4" cx="123.77" cy="7.5" r="1.35"/><path d="M123.77,9.35a1.85,1.85,0,1,1,1.85-1.85A1.85,1.85,0,0,1,123.77,9.35Zm0-2.7a.85.85,0,1,0,.85.85A.85.85,0,0,0,123.77,6.65Z"/><circle class="cls-4" cx="130.07" cy="7.5" r="1.35"/><path d="M130.07,9.35a1.85,1.85,0,1,1,1.85-1.85A1.85,1.85,0,0,1,130.07,9.35Zm0-2.7a.85.85,0,1,0,.85.85A.85.85,0,0,0,130.07,6.65Z"/><path d="M72.72,53c-.75-1.19-2.11-3-3.36-4.59V63.57h-4V50.08a30.35,30.35,0,0,1-3.88,8,26.43,26.43,0,0,0-2.24-4.19c2.24-2.68,4.32-7.44,5.37-11.62H60.31V38.52h5.07v-6.7h4v6.7H73.3v3.74H69.36v1.66C70.68,45,74.25,48.44,75,49.26ZM90.88,35.32c-1,8.06-3.17,14.31-6.43,19a25.37,25.37,0,0,0,7.34,6,10.87,10.87,0,0,0-2.89,3.43,31.61,31.61,0,0,1-7.1-6.08A26.56,26.56,0,0,1,74,63.5a14.19,14.19,0,0,0-2.55-3.36,21.9,21.9,0,0,0,8-5.85c-2.41-4-3.91-9-5-15.5l1-.2H73.64V34.68h14l.64-.17ZM78.13,38.59A41.73,41.73,0,0,0,82,50.76a35.64,35.64,0,0,0,4.52-12.17Z"/><path d="M122.94,59v3.57H92V59h3.91V49.36L94.52,50a15.6,15.6,0,0,0-2.32-3.33,39.13,39.13,0,0,0,9.9-4.55l2.82,2a60.39,60.39,0,0,1-8.5,5h22.74V59Zm-.41-17.17H92.41V38.21h8a37.79,37.79,0,0,0-3-4.89l3.43-1.5a25,25,0,0,1,3.54,5.44l-1.84,1h9.9l-1.87-.64a36.26,36.26,0,0,0,3.12-5.75L117.84,33c-1.16,1.87-2.42,3.78-3.47,5.17h8.16ZM99.45,59h2.82V52.49H99.45ZM106,52.49V59h2.82V52.49Zm6.29-10.44a93.42,93.42,0,0,1,10.57,4.29l-2.24,3.19a97.24,97.24,0,0,0-10.44-4.65Zm.24,10.44V59h2.89V52.49Z"/><path d="M130.42,43.65c0,5.71-.51,14.14-3.91,19.55a16.08,16.08,0,0,0-3.54-2c3.2-5,3.47-12.34,3.47-17.51V34c8.16-.31,17.54-1.16,23.05-2.38l3.16,3.2c-2.55.54-5.44,1-8.46,1.36,0,.88-.14,1.83-.21,2.78h10.58V42.5H143.61c-.1.88-.24,1.66-.34,2.41h9.28V57.05H148.3V48.61H136.2v8.16h-4.08V44.91h7.24c.07-.75.14-1.53.21-2.41h-9.15Zm14.11,8.77c0,3.37-1.53,8.06-12.51,11.12a15.41,15.41,0,0,0-2.79-3.09c10.4-2.38,11.05-5.89,11.05-8.13V49.74h4.25ZM139.77,39c0-.78.07-1.56.07-2.31-3.13.31-6.33.51-9.42.68V39Zm5.61,17.75c3.09,1.16,7,2.92,9.42,4.11l-2.86,2.69a67.93,67.93,0,0,0-9.42-4.42Z"/><path d="M166.15,50.14l-3.4.92v8c0,1.91-.34,2.86-1.42,3.44s-2.59.75-4.8.75a14.3,14.3,0,0,0-1.12-3.61c1.22,0,2.48,0,2.89,0s.58-.14.58-.62v-7l-3.09.82L154.73,49c1.23-.27,2.62-.58,4.15-1V42h-3.71V38.28h3.71V31.85h3.87v6.43H166V42h-3.27v5.1l2.89-.68Zm19.42-16.38V53.68h-4.12v-1.6h-3.3V63.57h-3.8V52.08H171v1.63h-4v-20ZM171,37.43V41h3.33v-3.6Zm3.33,11v-3.7H171v3.7Zm7.1-11h-3.3V41h3.3Zm0,11v-3.7h-3.3v3.7Z"/><path d="M43.06,127.66c.47.28,1,.67,1.77,1.17,1.69,1,3.93,1.19,6.76,1.19a95.62,95.62,0,0,0,9.65-.54,8.81,8.81,0,0,0-.65,2.34c-1.87.13-6.29.26-9.08.26-3.17,0-5.27-.29-7.09-1.36-1-.59-1.9-1.43-2.47-1.43-.84,0-2.11,1.49-3.33,3.15l-1.48-2a11.91,11.91,0,0,1,3.61-2.84v-6.83H37.27v-2.24h5.79Zm-.88-12a38.79,38.79,0,0,0-4.45-4.45l1.67-1.43A38.24,38.24,0,0,1,43.9,114Zm5.67,12.95H45.59V115.23h6.55c-1.43-.68-3.07-1.38-4.45-1.9L49.25,112c1.09.37,2.37.86,3.62,1.38a19.54,19.54,0,0,0,2.93-1.84H45.69v-1.88H58l.47-.13,1.45,1.15a24.65,24.65,0,0,1-5,3.69,13.29,13.29,0,0,1,1.66.86h3.36v11.1c0,1.09-.21,1.64-.94,2a9.26,9.26,0,0,1-3.48.36,6.69,6.69,0,0,0-.65-1.95c1.06.06,2.08,0,2.37,0s.41-.1.41-.42v-1.84H53.78v4H51.59v-4H47.85Zm0-11.52v1.87h3.74v-1.87Zm3.74,5.59v-2H47.85v2Zm2.19-5.59v1.87h3.87v-1.87Zm3.87,5.59v-2H53.78v2Z"/><path d="M67.87,127.14c.47.31,1,.7,1.77,1.14,1.66,1,4,1.2,6.83,1.2a90.14,90.14,0,0,0,9.42-.55,10,10,0,0,0-.76,2.65c-1.79.11-6.21.26-8.73.26-3.23,0-5.39-.28-7.26-1.38-1.12-.65-2-1.5-2.55-1.5-.8,0-2,1.61-3.14,3.27l-1.72-2.36a11.83,11.83,0,0,1,3.77-2.94v-6.29H62.2v-2.27h5.67Zm-1.33-11.86a23.91,23.91,0,0,0-3.77-4.5l1.87-1.25a26.3,26.3,0,0,1,3.9,4.32Zm12.79.34H69.56v-2.29h9.77v-4.42H81.8v4.42h3.39v2.29H81.8v9.46c0,1.51-.36,2.19-1.37,2.55a16.06,16.06,0,0,1-5.07.47,10,10,0,0,0-.84-2.47c1.77.08,3.62.08,4.14.05s.67-.16.67-.62Zm-6.83,1.63a36.84,36.84,0,0,1,3.66,5l-2,1.25a39.8,39.8,0,0,0-3.56-5.2Z"/><path d="M110.2,114.27v2.13h-8.74c-.08.83-.18,1.58-.29,2.26h7.23v9.07h-2.54v-6.86H95.58v6.73H93.17v-8.94h5.64c.08-.68.15-1.43.23-2.26H91.48v1.43c0,4.24-.39,10.45-2.94,14.53a7.43,7.43,0,0,0-2.11-1.22c2.45-3.85,2.68-9.39,2.68-13.31V110.6c6.19-.26,13.52-.86,17.66-1.82l1.92,2c-2,.41-4.29.78-6.76,1.06-.08.79-.16,1.62-.23,2.48Zm-8.17,9.8c0,2.6-1,6.19-9.33,8.58a8.13,8.13,0,0,0-1.64-1.87c7.93-2,8.45-4.87,8.45-6.74v-2.21H102Zm-2.83-9.8c0-.78.1-1.51.15-2.22-2.62.24-5.33.4-7.87.5v1.72Zm3.51,13.31a68.18,68.18,0,0,1,7.44,3.35l-1.72,1.61A51.55,51.55,0,0,0,101,129Z"/><path d="M119.74,122.25l-2.84.83v6.79c0,1.19-.23,1.82-.93,2.15a8,8,0,0,1-3.46.45,8.57,8.57,0,0,0-.68-2.16c1,0,2,0,2.29,0s.47-.13.47-.46v-6.14l-2.68.75-.65-2.34c.94-.2,2.08-.49,3.33-.8v-5.23h-3v-2.23h3V108.8h2.31v5.08h2.71v2.23H116.9v4.63l2.53-.7Zm14.64-11.94v14.77h-2.45v-1.3H128.6v8.84h-2.28v-8.84H123v1.35h-2.34V110.31ZM123,112.52v3.41h3.36v-3.41Zm3.36,9.08v-3.49H123v3.49Zm5.61-9.08H128.6v3.41h3.33Zm0,9.08v-3.49H128.6v3.49Z"/><path d="M143.55,116.42h4.19v2.24h-4.19v.6c1,1,3.59,4,4.19,4.76l-1.46,2c-.52-.93-1.71-2.6-2.73-4V132.6h-2.41V122.14a25.47,25.47,0,0,1-4.19,7,12.23,12.23,0,0,0-1.27-2.24,24.11,24.11,0,0,0,4.86-8.29H136.3v-2.24h4.84v-3.87c-1.36.23-2.73.39-4,.54a9.61,9.61,0,0,0-.67-1.87A48.49,48.49,0,0,0,146.1,109l1.61,1.87a23.87,23.87,0,0,1-4.16,1.14Zm14.9-5.22v20.07H156v-1.92h-5.07v2.1h-2.34V111.2ZM156,127V113.51h-5.07V127Z"/><path d="M165.94,123v6.74c0,1.19-.23,1.84-.91,2.21a7.38,7.38,0,0,1-3.38.46,7.67,7.67,0,0,0-.65-2.23c1,0,2,0,2.29,0s.44-.1.44-.46v-6l-2.73.84-.55-2.34,3.28-.89v-5.23h-3v-2.23h3v-5h2.21v5h2.76v2.23h-2.76v4.58l2.5-.73.33,2.19Zm11.62,7.05a15.53,15.53,0,0,0,2.19.13c.72,0,4.08,0,5.07,0a7.57,7.57,0,0,0-.68,2.13h-4.47c-3.62,0-6.32-.65-8-4.08a11.26,11.26,0,0,1-2.94,4.45,10.93,10.93,0,0,0-1.79-1.46c2.23-1.79,3.35-4.7,3.77-8.37l2.18.26a26.6,26.6,0,0,1-.49,2.73,5.87,5.87,0,0,0,2.91,3.59v-7.59h-6.24v-2h15v2h-6.53v2.7h5.2v1.92h-5.2Zm5.15-11.81H170.28v-8.63h12.43Zm-2.31-6.83h-7.91v1.68h7.91Zm0,3.32h-7.91v1.72h7.91Z"/><path d="M193.37,109.56A40.48,40.48,0,0,1,190.8,115v17.65h-2.37V118.69a27.93,27.93,0,0,1-2.16,2.62,16.87,16.87,0,0,0-1.32-2.47,28.84,28.84,0,0,0,6.16-10Zm5.77,17a22.86,22.86,0,0,1-5,6,15.45,15.45,0,0,0-1.93-1.53,16.68,16.68,0,0,0,4.68-5.18Zm10.12-4.34v2.36H192.51v-2.36h3.75V116.4h-3.12v-2.32h3.12v-5h2.36v5h4.47V109h2.37v5.09H209v2.32h-3.54v5.85Zm-10.64,0h4.47V116.4h-4.47Zm5.93,3.66a31.74,31.74,0,0,1,4.47,5.44l-2,1.3a29.79,29.79,0,0,0-4.4-5.67Z"/><path d="M42,148.79a22.43,22.43,0,0,0-4.76-2.86l1.27-1.79a21.13,21.13,0,0,1,4.84,2.62Zm2.49,3.3c-1.38,2.71-3.09,5.8-4.65,8.25l-2-1.62a76.46,76.46,0,0,0,4.89-8.24ZM42.78,142a21.33,21.33,0,0,0-4.47-3.17l1.35-1.74a20.34,20.34,0,0,1,4.57,3Zm3.72,7.23h2.18v2.6c0,2.81-.44,6.21-3.9,8.68A7.53,7.53,0,0,0,43.09,159c3.07-2.11,3.41-4.89,3.41-7.18Zm12.35-.18a14.44,14.44,0,0,0-1.17-1.8c-10.22.73-11.47.84-12.3,1.15a20.29,20.29,0,0,0-.63-2.26,4.64,4.64,0,0,0,1.88-.76c.44-.41,1.63-1.92,2.62-3.2H44.52V140h7a21.63,21.63,0,0,0-1-2.73l2.21-.52a21.17,21.17,0,0,1,1.3,3.25h6.53v2.18H52c-.89,1.17-1.93,2.5-2.81,3.57l7-.4c-.55-.72-1.14-1.4-1.66-2l1.79-1.07a40.52,40.52,0,0,1,4.47,5.54Zm-7.85.21h2.1v10.27H51Zm7.72,9a.79.79,0,0,0,.46-.1c.11-.08.19-.29.27-.68s0-1.35.07-2.57a5.36,5.36,0,0,0,1.67.93,18.15,18.15,0,0,1-.26,3,1.75,1.75,0,0,1-.76,1.06,2.78,2.78,0,0,1-1.35.32h-1.3a2.46,2.46,0,0,1-1.53-.52c-.42-.39-.55-.86-.55-2.47v-8h2.21v8.09a1.48,1.48,0,0,0,.13.83.5.5,0,0,0,.36.1Z"/><path d="M72.18,156.8c-.1-.47-.23-1-.41-1.53-6.81,1.63-7.8,2-8.48,2.36v-.08a.13.13,0,0,0,0,.08c-.13-.47-.52-1.61-.76-2.18.42-.16.78-.83,1.22-1.77a44.12,44.12,0,0,0,2-6.58h-3.4v-2.18H73.64v2.18H68.18a51.21,51.21,0,0,1-2.44,7.36l5.4-1.22c-.44-1.22-.91-2.52-1.37-3.62l2-.52a45.67,45.67,0,0,1,2.54,7Zm1-15.81h-10v-2.13h10Zm12.17,1.59s0,.83,0,1.17c-.32,10.53-.6,14.22-1.49,15.36a2.61,2.61,0,0,1-2,1.15,22.94,22.94,0,0,1-3.54,0,6.17,6.17,0,0,0-.73-2.34c1.38.1,2.6.1,3.15.1a1,1,0,0,0,1-.39c.62-.75.93-4,1.19-12.74H79.57c-.34,6.42-1.43,12.14-5.18,15.73a6.18,6.18,0,0,0-1.81-1.79c3.38-3.12,4.34-8.17,4.65-13.94H74v-2.31h3.33c0-1.75,0-3.51,0-5.33h2.39c0,1.82,0,3.58-.08,5.33Z"/><path d="M86.25,148.4a29.35,29.35,0,0,0,1.3-6.71l1.77.26A33.38,33.38,0,0,1,88.1,149Zm24,9.08v2.28H94.29v-2.28h7.22v-5.91H96.24v-2.26h5.27v-4.89H98.13a22.56,22.56,0,0,1-1.66,3.85,14.66,14.66,0,0,0-2.16-1.12,10.71,10.71,0,0,0,1-1.79l-1.45.7A24.21,24.21,0,0,0,92.26,142v18.64H89.84V136.78h2.42v4.81l1.53-.63a23.22,23.22,0,0,1,1.69,3.91A30.61,30.61,0,0,0,97.2,138l2.36.39a34.81,34.81,0,0,1-.78,3.79h2.73v-5.25h2.42v5.25h5.62v2.29h-5.62v4.89h5v2.26h-5v5.91Z"/><path d="M117.24,149c0,3.66-.52,8.5-4.91,11.38a6.08,6.08,0,0,0-1.25-1.35c4-2.44,4.34-6.94,4.34-10v-7h1.82Zm-3.2,4.65h-1.79v-15.5h8.14V153.6h-1.82V140.21H114Zm4,.47a20.81,20.81,0,0,1,2.36,3.35l-1.5,1.09a20.47,20.47,0,0,0-2.29-3.48Zm12.71-.73a15.58,15.58,0,0,0,4.32,4.94,9.51,9.51,0,0,0-1.46,1.56,17.81,17.81,0,0,1-3.38-4.08v4.76H128.4v-7.18h-1.8v7.18h-1.82V156a15.81,15.81,0,0,1-3.33,4.06,8.46,8.46,0,0,0-1.45-1.61,14.7,14.7,0,0,0,4.24-5h-2.19v-1.9h2.73v-1.77h-3.53v-1.89h3.53v-1.67h-2.65v-1.9h2.65v-1.61h-3.27v-1.9h3.12c-.45-.88-1.2-2.1-1.82-3.07l1.66-.78a26.25,26.25,0,0,1,2,3.23l-1.17.62h3.38a31.43,31.43,0,0,0,2.14-4l2.08.81c-.71,1.07-1.46,2.21-2.16,3.17h3.92v1.9h-4.47v1.61h3.49v3.57H135v1.89h-1.3v3.67Zm-4.16-9.13h1.8v-1.61h-1.8Zm0,3.57h1.8v-1.67h-1.8Zm1.8,3.66v-1.77h-1.8v1.77Zm1.84-5.33v1.67H132v-1.67Zm1.74,3.56h-1.74v1.77H132Z"/><path d="M146.26,155.55v5.07h-2.37V156l-7.38,1.3-.52-2.36,1.87-.24V140.11h-1.59v-2.19H148v2.19h-1.74v13.31l2.1-.34.13,2.06Zm-6.09-15.44v3.17h3.72v-3.17Zm0,8.58h3.72v-3.36h-3.72Zm0,5.64c1.17-.16,2.42-.36,3.72-.55v-3h-3.72Zm19-14.41a37.32,37.32,0,0,1-3.93,13.63,14.23,14.23,0,0,0,4.84,5,9.92,9.92,0,0,0-1.66,1.87,15.43,15.43,0,0,1-4.56-4.71,19.61,19.61,0,0,1-4.91,4.92,7.76,7.76,0,0,0-1.56-1.82,16.38,16.38,0,0,0,5.2-5.38,41.18,41.18,0,0,1-3.33-11.57h-1.09v-2.29h9.08l.41-.08Zm-7.75,2a40,40,0,0,0,2.5,9.12,35,35,0,0,0,2.73-9.12Z"/><path d="M183.49,137.77v22.88h-2.6v-1.41H164.28v1.41h-2.5V137.77ZM180.89,157V140.24H164.28V157Zm-3.22-13.18v9.54H167.42V143.8Zm-2.42,2.13h-5.54v5.31h5.54Z"/><path d="M194.49,150.2l-3,.83v6.78c0,1.36-.31,2-1.14,2.4a11,11,0,0,1-4.19.44,8.25,8.25,0,0,0-.75-2.32c1.35.06,2.68.06,3,0s.57-.13.57-.57v-6c-1.17.33-2.26.62-3.25.88l-.57-2.47c1.07-.26,2.39-.6,3.82-.94v-5H185.6v-2.34h3.45v-5h2.47v5h2.73v2.34h-2.73v4.37c.89-.24,1.8-.44,2.66-.7Zm14-3.23a21.42,21.42,0,0,1-3.54,8.66,14.56,14.56,0,0,0,4.42,2.91,8.94,8.94,0,0,0-1.66,2.08,16.2,16.2,0,0,1-4.32-3.12,17,17,0,0,1-4.29,3.23,7.78,7.78,0,0,0-1.48-1.69v1.56h-2.39V137.69h12.56s0,.62-.06.93c-.13,3.65-.39,5.18-1,5.78a2.91,2.91,0,0,1-2.08.8c-.86.05-2.44,0-4.11,0a4.67,4.67,0,0,0-.65-2c1.62.13,3.2.15,3.72.15s.81,0,1-.23.42-1.17.55-3.15h-7.62v6.64h8.89l.44-.08Zm-10.87,11.86a14.88,14.88,0,0,0,4.21-3.1,24.78,24.78,0,0,1-3.69-7h-.52Zm2.83-10.09a19.59,19.59,0,0,0,2.89,5.1,16.8,16.8,0,0,0,2.34-5.1Z"/></g></g></svg>