<svg xmlns="http://www.w3.org/2000/svg" viewBox="0 0 247.01 234.4"><defs><style>.cls-1{fill:#c7d1db;}.cls-2{fill:#fdcf23;}.cls-3{fill:#1f3fad;}.cls-4{fill:#fff;}</style></defs><g id="Layer_2" data-name="Layer 2"><g id="Layer_1-2" data-name="Layer 1"><rect class="cls-1" x="0.5" y="42.4" width="246.01" height="180.74"/><path d="M247,223.64H0V41.9H247Zm-246-1H246V42.9H1Z"/><rect class="cls-2" x="0.5" y="13.51" width="246.01" height="72.2"/><path d="M247,86.2H0V13H247ZM1,85.2H246V14H1Z"/><rect class="cls-3" x="0.5" y="221.44" width="246.01" height="12.46"/><path d="M247,234.4H0V220.94H247Zm-246-1H246V221.94H1Z"/><path class="cls-1" d="M168.51,4.36l-3.7-3.07A3.7,3.7,0,0,0,162.49.5H80.83a3.76,3.76,0,0,0-2.38.81L74.77,4.37a9.37,9.37,0,0,1-5.94,2H.5v8.25h246V6.39h-72A9.37,9.37,0,0,1,168.51,4.36Z"/><path d="M247,15.14H0V5.89H68.83A8.86,8.86,0,0,0,74.45,4l3.68-3A4.21,4.21,0,0,1,80.83,0h81.66a4.09,4.09,0,0,1,2.64.91L168.83,4a8.91,8.91,0,0,0,5.63,1.91H247Zm-246-1H246V6.89H174.46a10,10,0,0,1-6.27-2.14L164.5,1.68a3.19,3.19,0,0,0-2-.68H80.83a3.23,3.23,0,0,0-2.06.7L75.09,4.75a9.92,9.92,0,0,1-6.26,2.14H1Z"/><circle class="cls-4" cx="117.47" cy="7.5" r="1.35"/><path d="M117.47,9.35a1.85,1.85,0,1,1,1.85-1.85A1.85,1.85,0,0,1,117.47,9.35Zm0-2.7a.85.85,0,1,0,.85.85A.85.85,0,0,0,117.47,6.65Z"/><circle class="cls-4" cx="123.77" cy="7.5" r="1.35"/><path d="M123.77,9.35a1.85,1.85,0,1,1,1.85-1.85A1.85,1.85,0,0,1,123.77,9.35Zm0-2.7a.85.85,0,1,0,.85.85A.85.85,0,0,0,123.77,6.65Z"/><circle class="cls-4" cx="130.07" cy="7.5" r="1.35"/><path d="M130.07,9.35a1.85,1.85,0,1,1,1.85-1.85A1.85,1.85,0,0,1,130.07,9.35Zm0-2.7a.85.85,0,1,0,.85.85A.85.85,0,0,0,130.07,6.65Z"/><path d="M30.56,45.35v3.54H41.41v3.63H36l3.4,1.23c-1.19,1.9-2.51,3.94-3.57,5.4h7.31v3.71H13.77V59.15h6.69a28.18,28.18,0,0,0-2.82-5.5l2.69-1.13H15.4V48.89H26.21V45.35h-6.9V43.68a45.69,45.69,0,0,1-4.39,1.84,14.51,14.51,0,0,0-2.68-3.74C18.63,40,24.75,36.51,28,31.45l3.84,1.73-.95,1.36a37.73,37.73,0,0,0,13.94,7.24A19.48,19.48,0,0,0,42,45.32a46,46,0,0,1-4.63-2v2Zm-9.48,7.17a23,23,0,0,1,3,5.41l-2.78,1.22h5V52.52ZM34.4,41.65a39.79,39.79,0,0,1-5.88-4.42A30.35,30.35,0,0,1,23,41.65ZM30.56,52.52v6.63h4.25l-2.28-.95a30.74,30.74,0,0,0,3-5.68Z"/><path d="M44.47,33.08h16.9v3.4H44.47ZM60.69,59.66c0,1.46-.21,2.31-1.16,2.83s-2.07.54-3.77.54a11.49,11.49,0,0,0-.82-3c.88,0,1.84,0,2.11,0s.41-.1.41-.41V49.26H48.11V63.54H45.05V46.3H60.69Zm-.92-14.55H46.17V37.74h13.6Zm-9.39,9.08a14.23,14.23,0,0,0-1.56-3.6l2.07-.75a14.7,14.7,0,0,1,1.7,3.5Zm3.81,2.48v5.71H51.34V56.67H48.89V54.22H52.7a40.21,40.21,0,0,0,1.83-4.59l2.45,1c-.65,1.16-1.26,2.48-1.87,3.6h1.5v2.45Zm2-16.25H49.53v2h6.63Zm16.9,23.12c-.1-.75-.24-1.67-.44-2.65-3.67.68-7.38,1.36-10.3,1.94l-.85-3.68c1.43-.17,3.16-.4,5-.71V52.22H61.94v-14H66.5V32.33H70v5.92h4.62v14H70V57.9l1.87-.31c-.31-1.16-.61-2.38-1-3.47l2.72-.54A65.24,65.24,0,0,1,76,62.79Zm-8.3-14.79h2.08V41.68H64.76Zm6.87-7.07h-2v7.07h2Z"/><path d="M85.44,33.21a37.94,37.94,0,0,1-7.82,8.3,29.9,29.9,0,0,0-2.14-2.92,25.66,25.66,0,0,0,6.39-6.77Zm1,6.67a40,40,0,0,1-2.82,4.52V63.61h-4V49.12c-.68.68-1.39,1.3-2,1.87a27.51,27.51,0,0,0-2.11-3.7,27.45,27.45,0,0,0,7.38-8.7Zm5,8.5a29.18,29.18,0,0,0-6-3.61l2.17-2.89a30.85,30.85,0,0,1,6.06,3.27ZM85.68,60.07a106.15,106.15,0,0,0,6.73-10.78l2.89,2.62c-1.94,3.57-4.25,7.52-6.39,10.78ZM92,39.44a24.45,24.45,0,0,0-5.37-3.91l2.42-2.69a31,31,0,0,1,5.54,3.57Zm15.3,6.76h-3.5V59.15c0,1.91-.31,3-1.53,3.64s-2.89.71-5.13.71A16.3,16.3,0,0,0,96,59.56c1.4,0,2.83,0,3.3,0s.58-.14.58-.52V46.2h-5V42.5h12.44Zm-.47-9H95.57V33.52h11.29Z"/><path d="M138.65,58.64v4H108.08v-4h13.13V51.81H112V47.9h9.22v-6h-7A28.52,28.52,0,0,1,111,46.85a32.85,32.85,0,0,0-3.64-2.42c2.65-2.85,4.86-7.54,6-12.17l4.18.92c-.48,1.63-1,3.23-1.6,4.79h5.24V31.85h4.25V38h11.45v4H125.46v6h10.16v3.91H125.46v6.83Z"/><path d="M140.38,48.27H153.3V63.4h-4V61.87h-5.07v1.7h-3.81Zm3.81,3.88V58h5.07V52.15ZM165,45.45H145V33.15H165ZM160.85,37H149v4.59h11.9Zm8.7,11.25V63.44h-4.08V61.87h-5.4v1.7h-3.88V48.27ZM165.47,58V52.15h-5.4V58Z"/><path d="M195.05,47.39a24.89,24.89,0,0,1-5.37,8A30.42,30.42,0,0,0,202,59.73a15.41,15.41,0,0,0-2.45,3.64,30.58,30.58,0,0,1-13-5.34,37.74,37.74,0,0,1-13,5.51,22.06,22.06,0,0,0-2.45-3.6,34.21,34.21,0,0,0,12.45-4.63,27.16,27.16,0,0,1-5-7.82l3.64-1.12a19.52,19.52,0,0,0,4.35,6.53A17.45,17.45,0,0,0,191,46.2Zm-11.49-5.54a36.07,36.07,0,0,1-9,7.92,29.89,29.89,0,0,0-3.19-3,27.1,27.1,0,0,0,8.29-6.46Zm17.85-1.8H171.59V36.1h13.26a28,28,0,0,0-1.73-3.36L187,31.38a28.66,28.66,0,0,1,2.48,4.69l-.11,0h12Zm-8.47.1a53.54,53.54,0,0,1,8.74,7.17l-3.47,2.62a51.4,51.4,0,0,0-8.46-7.51Z"/><path d="M232.25,49.09s-.07,1.09-.14,1.6c-.71,7.34-1.49,10.43-2.62,11.56a4,4,0,0,1-2.75,1.29,41.6,41.6,0,0,1-4.25.07,7.6,7.6,0,0,0-1.05-3.44c1.42.14,2.75.14,3.36.14a1.51,1.51,0,0,0,1.26-.41c.65-.61,1.33-2.68,1.8-7.27h-2.92a28,28,0,0,1-7.79,11.18A21.15,21.15,0,0,0,214,61.33a20.86,20.86,0,0,0,6.8-8.7h-2.93a31.25,31.25,0,0,1-10.13,10.2,21,21,0,0,0-3-2.89,23.84,23.84,0,0,0,8.57-7.31h-3a32.73,32.73,0,0,1-5.27,4.11A27.75,27.75,0,0,0,202,53.88,24.94,24.94,0,0,0,210.15,47h-3V33.25h22.37V47H214.88c-.45.71-.92,1.39-1.43,2.07ZM211.14,38.62h14.27V36.51H211.14Zm0,5.17h14.27V41.65H211.14Z"/><path d="M20.31,108.91h2.5V132.6h-2.5v-5.93H12.88V124.3h7.43v-3.64H13.84v-2.31h6.47v-3.49H13.48V112.5h6.83Zm16,17.71H28.79v6H26.27V108.93h2.52v3.59h7.05v2.37H28.79v3.48h6.5v2.29h-6.5v3.59H36.3Z"/><path d="M46.31,122.07c-1.06.31-2.15.65-3.25,1v6.76c0,1.25-.28,1.87-1,2.21a8.82,8.82,0,0,1-3.69.44,8,8,0,0,0-.73-2.18c1.14,0,2.26,0,2.57,0s.5-.13.5-.52v-6.08c-1.07.28-2.06.57-3,.8l-.65-2.31c1-.23,2.26-.52,3.64-.88v-5.18H37.37v-2.23H40.7V108.8h2.36v5.08h3.1v2.23h-3.1v4.55c1-.26,2-.52,3-.8Zm11.5,7.87c.78,0,.91-.78,1-4.08a6,6,0,0,0,2.18,1c-.26,4-.83,5.35-3,5.35H54.79c-2.37,0-3-.8-3-3.61v-6.89l-4.86.73-.39-2.27,5.25-.8V113c-1.5.29-3,.55-4.42.76a7.55,7.55,0,0,0-.75-2,47.65,47.65,0,0,0,10.66-2.7l2.08,1.82a37.49,37.49,0,0,1-5.15,1.58v6.53l6.37-1,.37,2.23-6.74,1v7.28c0,1.14.13,1.32,1,1.32Z"/><path d="M66.1,112.5A14.68,14.68,0,0,1,64,115.59a16.85,16.85,0,0,0-2.08-1.12,14.2,14.2,0,0,0,3.28-5.82l2.37.44a16.74,16.74,0,0,1-.65,1.69h6.6v1.72H69.9A11.79,11.79,0,0,1,71,114.6l-2.05.76a13.58,13.58,0,0,0-1.43-2.86ZM74.21,114a9.18,9.18,0,0,1,1,2h9.42v4.39H82.22v-2.5H65.58v2.5H63.27V116h9.56c-.23-.52-.49-1.07-.75-1.54Zm-5.56,12.19H82.87v6.45H80.48v-.75H68.65v.8H66.2V119.21H81.49v5.43H68.65Zm0-5.14v1.82h10.5V121Zm0,7v2H80.48v-2Zm16.61-17.21v1.74H81.08a12.53,12.53,0,0,1,1.32,2l-2,.88a14.88,14.88,0,0,0-1.85-2.86H77.07a12.28,12.28,0,0,1-1.51,2.14,14.67,14.67,0,0,0-2-1.1,11.43,11.43,0,0,0,2.55-4.89l2.34.42a16.26,16.26,0,0,1-.6,1.69Z"/><path d="M94.8,109.58a44.87,44.87,0,0,1-2.54,5.28V132.6H90V118.37a26.75,26.75,0,0,1-2.42,2.89,14.13,14.13,0,0,0-1.35-2.44,27.9,27.9,0,0,0,6.34-10Zm9.78,13.89a19.47,19.47,0,0,0,6.42,6.24,11.4,11.4,0,0,0-1.69,1.92,22.3,22.3,0,0,1-6-6.47v7.51h-2.42v-7.38a21.18,21.18,0,0,1-6.34,6.29,10.51,10.51,0,0,0-1.67-1.92,19.09,19.09,0,0,0,6.74-6.19h-5.9v-2.18h7.17v-2.84H95.51V110H109v8.48h-5.67v2.84h7v2.18Zm-6.81-7.18h8.76v-4.18H97.77Z"/><path d="M119.63,125a12.51,12.51,0,0,0,.94,2.14c-4.5,3.69-5.25,4.31-5.67,4.91a7.21,7.21,0,0,0-1.51-1.61,4.14,4.14,0,0,0,1.54-3v-8.3h-3.38v-2.31h5.72v10.14Zm-2.86-10.16a30.18,30.18,0,0,0-4-4l1.59-1.46a36,36,0,0,1,4.1,3.82Zm18.39,14.53v2.26H119.45v-2.26h2.08V117.31h2.39v12.06h3V112.86h-6.74V110.6h14.43v2.26h-5.22v6.35h4.73v2.23h-4.73v7.93Z"/><path d="M149.14,118.63v3.15h8.71V124h-8.71v5.8h10V132H136.79v-2.21h9.78V124H138v-2.18h8.58v-3.15h-5.43v-1.35a32.48,32.48,0,0,1-3.77,1.67,9.31,9.31,0,0,0-1.62-2.24c4.84-1.48,9.55-4.34,12-8.17l2.26,1c-.24.34-.44.68-.68,1a27.75,27.75,0,0,0,10.82,6.16,11.56,11.56,0,0,0-1.67,2.11,28.12,28.12,0,0,1-3.87-1.77v1.58Zm-7.2,5.59a20.64,20.64,0,0,1,2.45,4.5l-2.11.91A22.12,22.12,0,0,0,140,125Zm11.52-7.82a29.36,29.36,0,0,1-5.51-4.21,23.81,23.81,0,0,1-5.23,4.21Zm-2.34,12.48a24.39,24.39,0,0,0,2.52-4.66l2.34.86c-1,1.64-2.13,3.41-3,4.58Z"/><path d="M178.73,120.27a18.32,18.32,0,0,1-4.21,6.35,23.59,23.59,0,0,0,9.88,3.71,8.54,8.54,0,0,0-1.48,2.16,23,23,0,0,1-10.25-4.31,28,28,0,0,1-10.27,4.49,12.31,12.31,0,0,0-1.45-2.18,25.54,25.54,0,0,0,9.93-3.9,20.89,20.89,0,0,1-4-6.24l2.18-.68a15.12,15.12,0,0,0,3.64,5.41,14.8,14.8,0,0,0,3.59-5.54Zm-8.66-4.21a30.71,30.71,0,0,1-6.81,6,14.62,14.62,0,0,0-1.9-1.77,22.12,22.12,0,0,0,6.35-5.12Zm13.73-1.48H161.39v-2.34h10.48a27.73,27.73,0,0,0-1.54-2.94l2.29-.78a22.77,22.77,0,0,1,1.9,3.43l-.75.29h10Zm-6.5.49a39.23,39.23,0,0,1,6.66,5.49l-2,1.58a36.7,36.7,0,0,0-6.53-5.69Z"/><path d="M207.78,122s-.06.65-.11,1c-.52,5.72-1.06,8-1.87,8.84a2.72,2.72,0,0,1-1.9.8,21,21,0,0,1-3.2,0,5,5,0,0,0-.65-2.05,26,26,0,0,0,2.78.13,1.12,1.12,0,0,0,.94-.31c.52-.47,1-2.24,1.38-6.3h-2.73a21.64,21.64,0,0,1-6,8.71,13.65,13.65,0,0,0-1.9-1.5,16.84,16.84,0,0,0,5.41-7.21H197a24.24,24.24,0,0,1-7.77,8,14.42,14.42,0,0,0-1.82-1.74,19.36,19.36,0,0,0,6.86-6.27h-3a28,28,0,0,1-4.11,3.31,12.72,12.72,0,0,0-1.85-1.72,19.65,19.65,0,0,0,6.45-5.64h-2.6V110h16.75V120H194.57c-.45.67-.91,1.3-1.41,1.95Zm-16.28-8h11.91v-2.11H191.5Zm0,4.06h11.91V115.9H191.5Z"/><path d="M217.65,116.42h4.19v2.24h-4.19v.6c1,1,3.59,4,4.19,4.76l-1.46,2c-.52-.93-1.71-2.6-2.73-4V132.6h-2.41V122.14a25.47,25.47,0,0,1-4.19,7,12.23,12.23,0,0,0-1.27-2.24,24.11,24.11,0,0,0,4.86-8.29H210.4v-2.24h4.84v-3.87c-1.36.23-2.73.39-4,.54a9.61,9.61,0,0,0-.67-1.87A48.49,48.49,0,0,0,220.2,109l1.61,1.87a23.87,23.87,0,0,1-4.16,1.14Zm14.9-5.22v20.07h-2.47v-1.92H225v2.1h-2.34V111.2ZM230.08,127V113.51H225V127Z"/><path d="M83.44,147.67c-1.3,5.36-4.16,9.29-7.38,11.39a10.76,10.76,0,0,0-1.93-1.82,15,15,0,0,0,6.24-7.88H74.71v-2.28h6.7l.42-.08Zm13.91-2.1a61.77,61.77,0,0,1-6.6,5.38,16,16,0,0,0,7.51,6,11.4,11.4,0,0,0-1.69,2.13,18.06,18.06,0,0,1-9-9.07v7.72c0,1.38-.32,2.08-1.25,2.47a12.79,12.79,0,0,1-4.55.44,9.12,9.12,0,0,0-.86-2.42c1.43.06,3,.06,3.46.06s.6-.16.6-.6V144.35H78.11V142h9.47v2.08a25.39,25.39,0,0,0,2,5A39.39,39.39,0,0,0,95.14,144Zm-7.54-3.2a45.45,45.45,0,0,0-9.46-3.54l1.19-2a44.25,44.25,0,0,1,9.55,3.28Z"/><path d="M107.05,149.6a12.25,12.25,0,0,0,.1,2c-6,1.64-6.86,2-7.41,2.34a12.86,12.86,0,0,0-.7-2c.57-.13,1.12-.72,1.93-1.71a37.6,37.6,0,0,0,2.23-3.17c-2.65.33-3.27.46-3.64.65a15.44,15.44,0,0,0-.73-2.08c.5-.13.94-.71,1.49-1.59a37.1,37.1,0,0,0,3.35-7.23l2.11,1a39.82,39.82,0,0,1-4,7.46l2.65-.2c.49-.94,1-1.9,1.46-2.86l1.82,1.11a51.88,51.88,0,0,1-4.63,7.26Zm.36,6.34c-2.73,1.12-5.61,2.21-7.85,3.1L99,156.8c2-.65,5-1.74,8-2.81Zm8.51-2c-1,2.47-3,4.94-7.26,6.79a10,10,0,0,0-1.43-1.79c3.36-1.41,5.2-3.18,6.16-5h-5.61v-2.08h6.37a11.61,11.61,0,0,0,.31-2.93V146h2.24v3a15.85,15.85,0,0,1-.24,2.86h5.7v2.08Zm-4.45-2.15a15.15,15.15,0,0,0-3.28-2.45l1.12-1.19a14.81,14.81,0,0,1,3.3,2.28Zm7.18-3.72a28.64,28.64,0,0,0,1-2.92H108.32v-2.05h5.46v-2h-4.52v-2h4.52V136.8h2.37V139h4.73v2h-4.73v2h4.21l.39-.08,1.54.37a38.33,38.33,0,0,1-1.77,5.12Zm-5.46,1.25a14.38,14.38,0,0,0-3.1-2.27l1-1.19A16.21,16.21,0,0,1,114.3,148Zm4,5.33a35.15,35.15,0,0,1,5.59,4.57l-1.56,1.51a33.72,33.72,0,0,0-5.49-4.76Z"/><path d="M138,137.79c-.26.39-.52.78-.83,1.17a30.65,30.65,0,0,0,10.56,6.63,7.45,7.45,0,0,0-1.69,2.21,45.14,45.14,0,0,1-4-2.13v1.72H129.12v-1.3a36.44,36.44,0,0,1-3.74,2,10.21,10.21,0,0,0-1.77-2.18c4.84-1.9,9.62-5.2,12.3-9.21Zm-10.4,12.3h16.25v10.4h-2.55V159.3H130.09v1.3h-2.45Zm2.45,2.16v4.81h11.25v-4.81Zm11.18-7.1a33.94,33.94,0,0,1-5.54-4.47,30.62,30.62,0,0,1-5.15,4.47Z"/><path d="M158,150.09a12.2,12.2,0,0,0,.1,2.06c-7.23,1.22-8.24,1.4-8.89,1.76a22.27,22.27,0,0,0-.75-2.13c.62-.13,1.22-.75,2.05-1.66A33.53,33.53,0,0,0,153,147c-3,.31-3.62.47-4,.68a13.08,13.08,0,0,0-.78-2.24c.52-.13,1-.67,1.59-1.53a35.37,35.37,0,0,0,3.64-7.05l2.29.94a43.26,43.26,0,0,1-4.29,7.38l2.93-.23a26,26,0,0,0,1.67-2.81l2,1.22a50.53,50.53,0,0,1-5.56,7.49Zm-9.65,6.84c2.52-.39,6.35-1,10-1.74l.15,2.13c-3.43.7-7.07,1.4-9.77,1.9Zm23-15.47s0,.86,0,1.17c-.31,11.44-.59,15.39-1.61,16.64a2.88,2.88,0,0,1-2.18,1.2,24.44,24.44,0,0,1-3.85,0,6.28,6.28,0,0,0-.75-2.29c1.58.15,3,.15,3.66.15a1.12,1.12,0,0,0,1-.41c.73-.83,1.09-4.63,1.35-14.22h-7.07a18.8,18.8,0,0,1-2.08,3.66,16.22,16.22,0,0,0-2-1.35,24.16,24.16,0,0,0,3.95-9.21l2.32.45c-.37,1.43-.81,2.86-1.28,4.21Zm-6.4,12.22a25.82,25.82,0,0,0-4.91-5.54l1.66-1.35a26.22,26.22,0,0,1,5,5.36Z"/></g></g></svg>