<svg xmlns="http://www.w3.org/2000/svg" viewBox="0 0 247.01 234.4"><defs><style>.cls-1{fill:#c7d1db;}.cls-2{fill:#fdcf23;}.cls-3{fill:#1f3fad;}.cls-4{fill:#fff;}</style></defs><g id="Layer_2" data-name="Layer 2"><g id="Layer_1-2" data-name="Layer 1"><rect class="cls-1" x="0.5" y="42.4" width="246.01" height="180.74"/><path d="M247,223.64H0V41.9H247Zm-246-1H246V42.9H1Z"/><rect class="cls-2" x="0.5" y="13.51" width="246.01" height="72.2"/><path d="M247,86.2H0V13H247ZM1,85.2H246V14H1Z"/><rect class="cls-3" x="0.5" y="221.44" width="246.01" height="12.46"/><path d="M247,234.4H0V220.94H247Zm-246-1H246V221.94H1Z"/><path class="cls-1" d="M168.51,4.36l-3.7-3.07A3.7,3.7,0,0,0,162.49.5H80.83a3.76,3.76,0,0,0-2.38.81L74.77,4.37a9.37,9.37,0,0,1-5.94,2H.5v8.25h246V6.39h-72A9.37,9.37,0,0,1,168.51,4.36Z"/><path d="M247,15.14H0V5.89H68.83A8.86,8.86,0,0,0,74.45,4l3.68-3A4.21,4.21,0,0,1,80.83,0h81.66a4.09,4.09,0,0,1,2.64.91L168.83,4a8.91,8.91,0,0,0,5.63,1.91H247Zm-246-1H246V6.89H174.46a10,10,0,0,1-6.27-2.14L164.5,1.68a3.19,3.19,0,0,0-2-.68H80.83a3.23,3.23,0,0,0-2.06.7L75.09,4.75a9.92,9.92,0,0,1-6.26,2.14H1Z"/><circle class="cls-4" cx="117.47" cy="7.5" r="1.35"/><path d="M117.47,9.35a1.85,1.85,0,1,1,1.85-1.85A1.85,1.85,0,0,1,117.47,9.35Zm0-2.7a.85.85,0,1,0,.85.85A.85.85,0,0,0,117.47,6.65Z"/><circle class="cls-4" cx="123.77" cy="7.5" r="1.35"/><path d="M123.77,9.35a1.85,1.85,0,1,1,1.85-1.85A1.85,1.85,0,0,1,123.77,9.35Zm0-2.7a.85.85,0,1,0,.85.85A.85.85,0,0,0,123.77,6.65Z"/><circle class="cls-4" cx="130.07" cy="7.5" r="1.35"/><path d="M130.07,9.35a1.85,1.85,0,1,1,1.85-1.85A1.85,1.85,0,0,1,130.07,9.35Zm0-2.7a.85.85,0,1,0,.85.85A.85.85,0,0,0,130.07,6.65Z"/><path d="M118.14,59.32c1.06,0,1.26-.57,1.43-4a11.29,11.29,0,0,0,3.71,1.57c-.45,4.82-1.53,6.12-4.73,6.12H114.2c-3.84,0-5-1.13-5-4.87v-6.9h-3.5c-.81,5.85-2.79,10-11.25,12.44a11.39,11.39,0,0,0-2.31-3.5c7.31-1.73,8.7-4.76,9.28-8.94H95.57V38.38h5a30.17,30.17,0,0,0-2.79-5.1l3.57-1.53a26.19,26.19,0,0,1,3.4,5.88l-1.7.75h6.7a35,35,0,0,0,3.6-6.56l4.32,1.29c-1.09,1.8-2.31,3.67-3.43,5.27h5.17V51.23h-6V58c0,1.12.2,1.29,1.43,1.29ZM99.75,47.66H115V42H99.75Z"/><path d="M146.47,53.85a16.18,16.18,0,0,0,9,6.36A17.06,17.06,0,0,0,153,63.37,18.26,18.26,0,0,1,144,56c-1.73,2.69-4.62,5.37-9.45,7.62a14.22,14.22,0,0,0-2.75-2.79c5.06-2.07,7.71-4.56,9.11-7h-7.24V50.42h2.07V42.87a14.17,14.17,0,0,0-2-2.31V42h-2.79v5l2.79-.75.54,3.64-3.33,1v8c0,1.94-.34,3-1.39,3.64s-2.52.84-4.63.81a15.5,15.5,0,0,0-1.12-3.91c1.16,0,2.28,0,2.69,0s.54-.13.54-.54V52l-3.06.85L123,49c1.12-.24,2.45-.58,3.94-1V42h-3.47V38.25H127v-6.4h3.91v6.4h2.79v1.93A22,22,0,0,0,140,31.89l4,.75c-.34.68-.68,1.36-1,2.07H149l.64-.17,2.65,1.8a34.65,34.65,0,0,1-2.89,4.15h3.4v9.93h2v3.43Zm-5.65-15.77a25,25,0,0,1-2,2.41h6.05c.61-.78,1.23-1.6,1.77-2.41Zm1.3,12.34a17.3,17.3,0,0,0,.23-3.1V43.51h-2.78v6.91Zm4.65-6.91,0,0,0,0h-.4v3.85a19.81,19.81,0,0,1-.24,3.06h2.72V43.51Z"/><path d="M47.17,130c.91,0,1.1-.45,1.2-3.18a6.47,6.47,0,0,0,2.24,1c-.29,3.49-.94,4.4-3.18,4.4H43.69c-2.6,0-3.36-.68-3.36-3.1v-6H37.06c-.57,4.73-2.08,7.88-8.4,9.65a7.46,7.46,0,0,0-1.4-2.11c5.66-1.33,6.81-3.85,7.25-7.54H29.86V113.9h4.21a27.06,27.06,0,0,0-2.47-4.24l2.11-.88a22.83,22.83,0,0,1,2.75,4.47L35,113.9h5.56a28.35,28.35,0,0,0,3-5.1l2.55.78c-.88,1.46-1.92,3-2.88,4.32h4.34v9.18H42.83v6c0,.78.21.91,1.2.91Zm-14.84-9.08H45V116H32.33Z"/><path d="M59.16,113.85v2.23H56.87v4.58l2.34-.67.34,2.21-2.68.83v6.73c0,1.22-.23,1.9-.91,2.29a6.63,6.63,0,0,1-3.28.49,9,9,0,0,0-.67-2.36c.94,0,1.82,0,2.11,0s.41-.1.41-.44v-6l-2.6.78-.57-2.31c.91-.21,2-.52,3.17-.86v-5.26H51.67v-2.23h2.86v-5h2.34v5ZM68.55,125a12.88,12.88,0,0,0,7.09,5.65,9.31,9.31,0,0,0-1.5,1.89A14.33,14.33,0,0,1,67,126.3c-1.25,2.27-3.51,4.5-7.57,6.4A10.34,10.34,0,0,0,57.75,131c4.22-1.76,6.3-3.9,7.36-6H59.19v-2.08H61V117.1l-.2.15a7.81,7.81,0,0,0-1.59-1.71,17.7,17.7,0,0,0,5.09-6.74l2.45.42c-.29.62-.6,1.2-.94,1.82h5.18l.39-.13L72.91,112a22,22,0,0,1-2.44,3.32h3v7.62h1.66V125Zm-4.06-11.93a22.44,22.44,0,0,1-1.77,2.23h5a21.76,21.76,0,0,0,1.69-2.23Zm1.35,9.85a12,12,0,0,0,.29-2.93V117.2H63.24v5.72Zm5.23-5.72h-2.6V120a14.54,14.54,0,0,1-.26,2.91h2.86Z"/><path d="M93.26,125.46c0,3-2.1,5.13-7.48,5.13H76.05v-18.2h9.78c5.2,0,6.84,2.15,6.84,4.66a3.75,3.75,0,0,1-2.51,3.71V121A4.48,4.48,0,0,1,93.26,125.46Zm-12.89-9.69v4H85.5c2,0,3-.67,3-2s-1.07-2-3-2Zm8.51,9c0-1.48-1.15-2.28-3.16-2.28H80.37v4.68h5.35C87.73,127.21,88.88,126.26,88.88,124.81Z"/><path d="M93.58,112.39H108.9v3.53h-11v4h10.62V123H97.89v4h11v3.55H93.58Z"/><path d="M109.46,112.39H119c4.85,0,7.49,2.32,7.49,6.68s-2.64,6.65-7.49,6.65h-5.2v4.87h-4.32Zm9.24,9.71c2.12,0,3.44-1,3.44-3S120.82,116,118.7,116h-4.92v6.09Z"/><path d="M131.39,127.24H141.6v3.35h-15v-2.18c0-8.07,10.94-7,10.94-10.75,0-1.24-.82-2.25-3.05-2.25-2,0-3.51.75-3.49,2.62h-4.23c0-3.93,2.58-6.11,7.5-6.11s7.48,2.1,7.48,5.54C141.73,124,132.26,122.4,131.39,127.24Z"/><path d="M141.72,121.49c0-6.43,3.3-9.57,8.65-9.57s8.65,3.14,8.65,9.57-3.32,9.58-8.65,9.58S141.72,127.93,141.72,121.49Zm13.05,0c0-4.2-1.78-5.91-4.4-5.91s-4.4,1.71-4.4,5.91,1.76,5.92,4.4,5.92S154.77,125.7,154.77,121.49Z"/><path d="M168.49,109.77a39,39,0,0,1-2.63,5V132.6h-2.49V118.37a26.45,26.45,0,0,1-3.12,3.41,15,15,0,0,0-1.38-2.42A28.5,28.5,0,0,0,166.2,109Zm6.91,9c.84,6.37,2.4,10.66,4.87,11,.65,0,1-1.4,1.27-4.34a7.43,7.43,0,0,0,2,1.32c-.6,4.71-1.79,6-3.17,5.91-4.34-.37-6.37-5.52-7.36-13.5l-5.69.73-.37-2.29,5.83-.73q-.32-3.54-.47-7.64h2.44c.08,2.6.21,5.07.42,7.31l7.62-1,.31,2.27Zm5.33-4.16a24.78,24.78,0,0,0-3.9-4.29l1.8-1.14a24.68,24.68,0,0,1,4,4.16Z"/><path d="M205.33,126.69c0,1.28-.26,2-1.2,2.37a11,11,0,0,1-4.34.44,10.57,10.57,0,0,0-.8-2.42c1.43.06,2.86.06,3.27,0s.55-.13.55-.47v-7.59h-5.62v13.57H194.7V119.05h-5.36v10.66h-2.47v-13h7.83v-3.85c-3.12.16-6.3.26-9.21.26a7.87,7.87,0,0,0-.52-2.15,169.13,169.13,0,0,0,21-1.51l.94,2.24c-2.7.41-6.14.75-9.7,1v4h8.14Z"/><path d="M209.88,132c2-.72,3.17-1.92,3.3-3.51a1.34,1.34,0,0,1-.36,0,2,2,0,0,1-2.19-2,2.06,2.06,0,0,1,2.21-2.08c1.64,0,2.5,1.27,2.5,3.25a6.29,6.29,0,0,1-4.78,6.05Z"/><path d="M70.44,147.33a18.35,18.35,0,0,1-6.52,8.27,30.49,30.49,0,0,0,9.54,2.55A10.52,10.52,0,0,0,72,160.49a29.25,29.25,0,0,1-10.48-3.35,36.66,36.66,0,0,1-10.79,3.51,7.86,7.86,0,0,0-1.3-2.32,35.67,35.67,0,0,0,9.8-2.7,19.43,19.43,0,0,1-5.35-6.47l.91-.34h-3v-2.37h8.43v-3.56H50.53V140.5h9.62v-3.7h2.49v3.7h9.7v2.39h-9.7v3.56h5.67l.44-.1Zm-14.09,1.49a15.55,15.55,0,0,0,5.23,5.51,15.29,15.29,0,0,0,5.33-5.51Z"/><path d="M82.35,150.09l-2.63.83v7c0,1.22-.26,1.84-.93,2.23a7.3,7.3,0,0,1-3.38.44,10.12,10.12,0,0,0-.65-2.23c1,0,2,0,2.29,0s.44-.1.44-.46v-6.25l-3,.92L74,150.2c1-.26,2.18-.6,3.51-1v-5.13H74.34v-2.23h3.15v-5h2.23v5h2.5v2.23h-2.5v4.5l2.32-.7Zm12.56-2.91v2.52h3v2.21h-3v6c0,1.3-.29,1.95-1.12,2.32a11.7,11.7,0,0,1-4,.39,9.46,9.46,0,0,0-.73-2.32c1.33.08,2.68.08,3,.06s.52-.13.52-.5v-6H82.9V149.7h9.69v-2.52h-10V145h6.63v-2.81H83.83V140h5.41v-3.07h2.31V140h5.36v2.21H91.55V145h6.56v2.21Zm-8.43,5.2a22.57,22.57,0,0,1,2.92,4.42L87.34,158a19.08,19.08,0,0,0-2.78-4.55Z"/><path d="M118.7,142a13.83,13.83,0,0,0,4.42,4.37,11.25,11.25,0,0,0-1.59,1.85,15.57,15.57,0,0,1-2.91-2.76v1.59h-6.81v-1.33A18.76,18.76,0,0,1,108.9,148a10.48,10.48,0,0,0-1-2.06h-2.24v3.25h2.44v2.11h-2.44v4.11l3.15-.83.31,2.08c-3.33,1-6.92,2-9.62,2.7l-.55-2.26,1.15-.26v-8.69H102v8.22l1.56-.42V146H100v-8.14h7.86v7.94a14.8,14.8,0,0,0,4.23-3.78h-3.17v-2.1h4.53a16.22,16.22,0,0,0,1.14-2.78l2.11.54a16.73,16.73,0,0,1-.86,2.24h6.68V142Zm-12.9-2.08H102v4h3.85Zm2.91,9h13.68v2h-8.61c-.2.75-.41,1.53-.65,2.26h8l-.08.91c-.34,3.56-.68,5.17-1.43,5.88a3.16,3.16,0,0,1-2.29.75,42.87,42.87,0,0,1-4.29,0,4.43,4.43,0,0,0-.88-2.08c1.82.15,3.74.18,4.47.18a2.17,2.17,0,0,0,1.19-.21c.4-.36.68-1.35.91-3.4h-8.5a40.91,40.91,0,0,0,1.35-4.24h-2.86Zm9.62-3.8a17.63,17.63,0,0,1-2-3.1h-1.66a18,18,0,0,1-2.29,3.1Z"/><path d="M130.89,154.67a8.1,8.1,0,0,0,.68,1.84c-4,2.86-4.63,3.38-5,3.9a8,8,0,0,0-1.2-1.63,3.33,3.33,0,0,0,1.25-2.6v-4.42h-2.68v-2.08h2.68v-3.23h-1.71v-1.79c-.16.21-.29.39-.45.57A12.12,12.12,0,0,0,123.3,143a16,16,0,0,0,2.78-6.21l2.06.55c-.19.7-.42,1.45-.68,2.16h4v2.1H126.6a20,20,0,0,1-1.51,2.73h5.83v2.08h-2.13v3.23h2.73v2.08h-2.73v4.34Zm4.55,1.17c.47.21.94.62,1.64,1a9,9,0,0,0,4.81,1,57.12,57.12,0,0,0,5.9-.34,11.12,11.12,0,0,0-.57,2.45c-1.3.1-3.8.18-5.36.18a9.57,9.57,0,0,1-5.12-1.22c-.88-.57-1.61-1.22-2.1-1.22-.71,0-1.77,1.43-2.66,2.78l-1.53-2.24a10.33,10.33,0,0,1,2.81-2.26v-8.19h-2.19v-2.18h4.37Zm-1.95-12.72a31,31,0,0,0-1.82-4.88l2-.63a32.74,32.74,0,0,1,1.9,4.79Zm5.41,4.71a4.18,4.18,0,0,0-2.05.36c-.13-.44-.47-1.45-.71-2,.42-.13.78-.78,1.2-1.71.21-.45.57-1.41,1-2.68H136v-2H139c.26-1,.52-2,.7-3.07l2.27.44c-.24.86-.47,1.77-.73,2.63h6.16v2h-6.89c-.52,1.43-1.09,2.81-1.66,4h2.26v-2.94h2.13v2.94h3.54v2h-3.54v3h4.06v2.08h-4.06V157h-2.13V152.9h-4.81v-2.08h4.81v-3Z"/><path d="M166.38,148.27a18.32,18.32,0,0,1-4.21,6.35,23.59,23.59,0,0,0,9.88,3.71,8.54,8.54,0,0,0-1.48,2.16,23,23,0,0,1-10.25-4.31,28,28,0,0,1-10.27,4.49,12.31,12.31,0,0,0-1.45-2.18,25.54,25.54,0,0,0,9.93-3.9,20.89,20.89,0,0,1-4-6.24l2.18-.68a15.12,15.12,0,0,0,3.64,5.41,14.8,14.8,0,0,0,3.59-5.54Zm-8.66-4.21a30.71,30.71,0,0,1-6.81,6,14.62,14.62,0,0,0-1.9-1.77,22.12,22.12,0,0,0,6.35-5.12Zm13.73-1.48H149v-2.34h10.48A27.73,27.73,0,0,0,158,137.3l2.29-.78a22.77,22.77,0,0,1,1.9,3.43l-.75.29h10Zm-6.5.49a39.23,39.23,0,0,1,6.66,5.49l-2,1.58a36.7,36.7,0,0,0-6.53-5.69Z"/><path d="M180.71,141.85v2.23h-2.29v4.58l2.34-.67.34,2.21-2.68.83v6.73c0,1.22-.23,1.9-.91,2.29a6.65,6.65,0,0,1-3.28.49,9,9,0,0,0-.67-2.36c.93,0,1.82,0,2.1,0s.42-.1.42-.44v-6l-2.6.78-.57-2.31c.91-.21,2-.52,3.17-.86v-5.26h-2.86v-2.23h2.86v-5h2.34v5ZM190.09,153a12.94,12.94,0,0,0,7.1,5.65,9.72,9.72,0,0,0-1.51,1.89,14.37,14.37,0,0,1-7.15-6.24c-1.24,2.27-3.51,4.5-7.56,6.4A10.75,10.75,0,0,0,179.3,159c4.22-1.76,6.3-3.9,7.36-6h-5.93v-2.08h1.77V145.1l-.21.15a7.53,7.53,0,0,0-1.58-1.71,17.91,17.91,0,0,0,5.09-6.74l2.45.42c-.29.62-.6,1.2-.94,1.82h5.18l.39-.13,1.58,1.07A22.67,22.67,0,0,1,192,143.3h3v7.62h1.67V153ZM186,141.07a22.44,22.44,0,0,1-1.77,2.23h5a19.22,19.22,0,0,0,1.69-2.23Zm1.35,9.85a12,12,0,0,0,.29-2.93V145.2h-2.89v5.72Zm5.23-5.72H190V148a15.32,15.32,0,0,1-.26,2.91h2.86Z"/></g></g></svg>